<svg width="28" height="28" viewBox="0 0 28 28" fill="none" xmlns="http://www.w3.org/2000/svg">
<g clip-path="url(#clip0_3097_16752)">
<path fill-rule="evenodd" clip-rule="evenodd" d="M14 0C21.728 0 28 6.272 28 14C28 21.728 21.728 28 14 28C6.272 28 0 21.728 0 14C0 6.272 6.272 0 14 0ZM21.0093 8.41867L7.42 8.38133L14.2147 13.776L21.0093 8.41867ZM12.6093 15.2787L6.67333 10.612V19.4787H21.3547V10.7987L15.848 15.2973C13.9813 16.8187 14.5413 16.7907 12.6093 15.2787ZM6.748 6.68267H21.392C22.5773 6.68267 23.5387 7.65333 23.5387 8.82933V19.096C23.5387 20.2813 22.568 21.2427 21.392 21.2427H6.748C5.56267 21.2427 4.60133 20.272 4.60133 19.096V8.82933C4.60133 7.644 5.572 6.68267 6.748 6.68267Z" fill="#FF0000"/>
</g>
<defs>
<clipPath id="clip0_3097_16752">
<rect width="28" height="28" fill="white"/>
</clipPath>
</defs>
</svg>
