<svg width="24" height="24" viewBox="0 0 24 24" fill="none" xmlns="http://www.w3.org/2000/svg">
<path d="M21.75 8.625C21.75 11.2908 20.2071 14.11 16.9843 17.0095C15.5259 18.3206 13.9382 19.4802 12.2455 20.4704C12.2084 20.4899 12.167 20.5001 12.125 20.5001C12.0817 20.5001 12.0392 20.4893 12.0012 20.4686C11.8012 20.3568 9.40763 18.9956 7.06715 16.8411C4.6981 14.6603 2.5 11.7732 2.5 8.625C2.5 7.54935 2.83844 6.50097 3.46738 5.62836C4.09633 4.75575 4.98388 4.10315 6.00433 3.763C7.02478 3.42285 8.12639 3.41239 9.15311 3.73312C10.1798 4.05384 11.0796 4.68948 11.725 5.55L12.125 6.08333L12.525 5.55C13.1704 4.68948 14.0702 4.05384 15.0969 3.73312C16.1236 3.41239 17.2252 3.42285 18.2457 3.763C19.2661 4.10315 20.1537 4.75575 20.7826 5.62836C21.4116 6.50097 21.75 7.54935 21.75 8.625Z" fill="#FF5964" stroke="#FF5964"/>
</svg>
