<svg width="20" height="20" viewBox="0 0 20 20" fill="none" xmlns="http://www.w3.org/2000/svg">
<path d="M15.5614 19.5602C15.3993 19.5598 15.2397 19.52 15.0964 19.4442L9.9994 16.7642L4.9024 19.4442C4.73736 19.5307 4.55145 19.5693 4.36563 19.5558C4.17981 19.5422 4.00147 19.477 3.85071 19.3676C3.69996 19.2581 3.58278 19.1087 3.51241 18.9361C3.44203 18.7636 3.42125 18.5749 3.4524 18.3912L4.4254 12.7152L0.301398 8.6952C0.167988 8.56494 0.0736517 8.39998 0.0290423 8.21894C-0.0155671 8.0379 -0.00867329 7.848 0.0489455 7.67067C0.106564 7.49334 0.212613 7.33565 0.355117 7.21541C0.49762 7.09517 0.670903 7.01716 0.855398 6.9902L6.5544 6.1622L9.1034 0.998201C9.19522 0.842042 9.32624 0.712576 9.48349 0.622623C9.64073 0.532671 9.81874 0.485352 9.9999 0.485352C10.1811 0.485352 10.3591 0.532671 10.5163 0.622623C10.6736 0.712576 10.8046 0.842042 10.8964 0.998201L13.4444 6.1622L19.1434 6.9902C19.3279 7.01716 19.5012 7.09517 19.6437 7.21541C19.7862 7.33565 19.8922 7.49334 19.9499 7.67067C20.0075 7.848 20.0144 8.0379 19.9698 8.21894C19.9251 8.39998 19.8308 8.56494 19.6974 8.6952L15.5734 12.7152L16.5474 18.3912C16.572 18.5347 16.565 18.6818 16.5268 18.8223C16.4887 18.9628 16.4203 19.0932 16.3265 19.2046C16.2327 19.3159 16.1157 19.4054 15.9838 19.4668C15.8518 19.5282 15.708 19.5601 15.5624 19.5602H15.5614Z" fill="#FDFBFB"/>
</svg>
