<svg width="24" height="24" viewBox="0 0 24 24" fill="none" xmlns="http://www.w3.org/2000/svg">
  <path
    d="M22 12C22 9.34784 20.9464 6.8043 19.0711 4.92893C17.1957 3.05357 14.6522 2 12 2C9.34784 2 6.8043 3.05357 4.92893 4.92893C3.05357 6.8043 2 9.34784 2 12C2 14.6522 3.05357 17.1957 4.92893 19.0711C6.8043 20.9464 9.34784 22 12 22C14.6522 22 17.1957 20.9464 19.0711 19.0711C20.9464 17.1957 22 14.6522 22 12ZM11.385 10.6375C11.4111 10.4934 11.487 10.363 11.5994 10.2692C11.7118 10.1753 11.8536 10.1239 12 10.1239C12.1464 10.1239 12.2882 10.1753 12.4006 10.2692C12.513 10.363 12.5889 10.4934 12.615 10.6375L12.625 10.75V16.3775L12.615 16.49C12.5889 16.6341 12.513 16.7645 12.4006 16.8583C12.2882 16.9522 12.1464 17.0036 12 17.0036C11.8536 17.0036 11.7118 16.9522 11.5994 16.8583C11.487 16.7645 11.4111 16.6341 11.385 16.49L11.375 16.3775V10.75L11.385 10.6375ZM11.0625 7.9375C11.0625 7.68886 11.1613 7.4504 11.3371 7.27459C11.5129 7.09877 11.7514 7 12 7C12.2486 7 12.4871 7.09877 12.6629 7.27459C12.8387 7.4504 12.9375 7.68886 12.9375 7.9375C12.9375 8.18614 12.8387 8.4246 12.6629 8.60041C12.4871 8.77623 12.2486 8.875 12 8.875C11.7514 8.875 11.5129 8.77623 11.3371 8.60041C11.1613 8.4246 11.0625 8.18614 11.0625 7.9375Z"
    fill="currentColor" />
</svg>