<svg width="20" height="20" viewBox="0 0 20 20" fill="none" xmlns="http://www.w3.org/2000/svg">
  <path
    d="M10.615 8.6375C10.5872 8.48382 10.5028 8.34612 10.3785 8.25152C10.2543 8.15693 10.0991 8.11229 9.94353 8.12641C9.78798 8.14052 9.64336 8.21236 9.53814 8.32777C9.43291 8.44319 9.37471 8.59382 9.375 8.75V14.3775L9.385 14.49C9.41283 14.6437 9.49718 14.7814 9.62146 14.876C9.74574 14.9706 9.90093 15.0152 10.0565 15.0011C10.212 14.987 10.3566 14.9151 10.4619 14.7997C10.5671 14.6843 10.6253 14.5337 10.625 14.3775V8.75L10.615 8.6375ZM10.9987 5.9375C10.9987 5.68886 10.9 5.4504 10.7242 5.27459C10.5483 5.09877 10.3099 5 10.0612 5C9.81261 5 9.57415 5.09877 9.39834 5.27459C9.22252 5.4504 9.12375 5.68886 9.12375 5.9375C9.12375 6.18614 9.22252 6.4246 9.39834 6.60041C9.57415 6.77623 9.81261 6.875 10.0612 6.875C10.3099 6.875 10.5483 6.77623 10.7242 6.60041C10.9 6.4246 10.9987 6.18614 10.9987 5.9375ZM20 10C20 7.34784 18.9464 4.8043 17.0711 2.92893C15.1957 1.05357 12.6522 0 10 0C7.34784 0 4.8043 1.05357 2.92893 2.92893C1.05357 4.8043 0 7.34784 0 10C0 12.6522 1.05357 15.1957 2.92893 17.0711C4.8043 18.9464 7.34784 20 10 20C12.6522 20 15.1957 18.9464 17.0711 17.0711C18.9464 15.1957 20 12.6522 20 10ZM1.25 10C1.25 8.85093 1.47633 7.71312 1.91605 6.65152C2.35578 5.58992 3.0003 4.62533 3.81282 3.81282C4.62533 3.0003 5.58992 2.35578 6.65152 1.91605C7.71312 1.47633 8.85093 1.25 10 1.25C11.1491 1.25 12.2869 1.47633 13.3485 1.91605C14.4101 2.35578 15.3747 3.0003 16.1872 3.81282C16.9997 4.62533 17.6442 5.58992 18.0839 6.65152C18.5237 7.71312 18.75 8.85093 18.75 10C18.75 12.3206 17.8281 14.5462 16.1872 16.1872C14.5462 17.8281 12.3206 18.75 10 18.75C7.67936 18.75 5.45376 17.8281 3.81282 16.1872C2.17187 14.5462 1.25 12.3206 1.25 10Z"
    fill="currentColor" />
</svg>