<svg width="24" height="16" viewBox="0 0 24 16" fill="none" xmlns="http://www.w3.org/2000/svg">
  <path
    d="M11.3631 10.8036C12.3693 10.1351 13.1337 9.16045 13.5429 8.02384C13.9522 6.88723 13.9847 5.64905 13.6356 4.49255C13.2864 3.33604 12.5743 2.32266 11.6044 1.60237C10.6346 0.882086 9.45864 0.493164 8.25058 0.493164C7.04253 0.493164 5.86657 0.882086 4.89674 1.60237C3.92691 2.32266 3.21473 3.33604 2.8656 4.49255C2.51648 5.64905 2.54896 6.88723 2.95823 8.02384C3.3675 9.16045 4.13182 10.1351 5.13808 10.8036C3.42149 11.4348 1.93941 12.5766 0.891208 14.0754C0.822889 14.1546 0.771877 14.2472 0.741447 14.3472C0.711017 14.4472 0.701841 14.5525 0.714509 14.6563C0.727176 14.7601 0.761408 14.8601 0.815005 14.9499C0.868602 15.0397 0.940381 15.1173 1.02573 15.1777C1.11109 15.2381 1.20812 15.28 1.31062 15.3006C1.41312 15.3213 1.51881 15.3204 1.62091 15.2978C1.723 15.2752 1.81925 15.2315 1.90347 15.1696C1.9877 15.1076 2.05803 15.0287 2.10996 14.9379C2.80302 13.9533 3.72269 13.1498 4.7914 12.5952C5.86011 12.0405 7.04652 11.751 8.25058 11.751C9.45465 11.751 10.6411 12.0405 11.7098 12.5952C12.7785 13.1498 13.6981 13.9533 14.3912 14.9379C14.4431 15.0287 14.5135 15.1076 14.5977 15.1696C14.6819 15.2315 14.7782 15.2752 14.8803 15.2978C14.9824 15.3204 15.088 15.3213 15.1905 15.3006C15.293 15.28 15.3901 15.2381 15.4754 15.1777C15.5608 15.1173 15.6326 15.0397 15.6862 14.9499C15.7398 14.8601 15.774 14.7601 15.7867 14.6563C15.7993 14.5525 15.7901 14.4472 15.7597 14.3472C15.7293 14.2472 15.6783 14.1546 15.61 14.0754C14.5618 12.5766 13.0797 11.4348 11.3631 10.8036ZM4.12558 6.12544C4.12558 5.30959 4.36751 4.51206 4.82077 3.83371C5.27403 3.15536 5.91827 2.62665 6.67201 2.31444C7.42576 2.00222 8.25516 1.92054 9.05533 2.0797C9.8555 2.23886 10.5905 2.63173 11.1674 3.20862C11.7443 3.78551 12.1372 4.52052 12.2963 5.32069C12.4555 6.12086 12.3738 6.95026 12.0616 7.70401C11.7494 8.45775 11.2207 9.10199 10.5423 9.55525C9.86396 10.0085 9.06643 10.2504 8.25058 10.2504C7.15657 10.2504 6.10736 9.81584 5.33377 9.04225C4.56018 8.26867 4.12558 7.21946 4.12558 6.12544ZM23.0725 15.1161C22.9927 15.1735 22.9023 15.2144 22.8066 15.2366C22.7109 15.2587 22.6117 15.2615 22.5148 15.245C22.418 15.2284 22.3254 15.1927 22.2425 15.14C22.1596 15.0873 22.0879 15.0186 22.0318 14.9379C21.3383 13.9538 20.4185 13.1506 19.3499 12.5959C18.2813 12.0412 17.0952 11.7513 15.8912 11.7504C15.6923 11.7504 15.5015 11.6714 15.3609 11.5308C15.2202 11.3901 15.1412 11.1994 15.1412 11.0004C15.1412 10.8015 15.2202 10.6108 15.3609 10.4701C15.5015 10.3295 15.6923 10.2504 15.8912 10.2504C16.9852 10.2504 18.0344 9.81584 18.808 9.04225C19.5816 8.26867 20.0162 7.21946 20.0162 6.12544C20.0162 5.03142 19.5816 3.98221 18.808 3.20862C18.0344 2.43504 16.9852 2.00044 15.8912 2.00044C15.5145 2.00295 15.1396 2.05335 14.7756 2.15044C14.6808 2.17763 14.5816 2.18585 14.4836 2.17465C14.3856 2.16344 14.2908 2.13302 14.2046 2.08512C14.1184 2.03723 14.0425 1.9728 13.9812 1.89553C13.9199 1.81826 13.8745 1.72967 13.8475 1.63481C13.7951 1.44341 13.8197 1.23912 13.9161 1.06566C14.0125 0.8922 14.1729 0.763351 14.3631 0.706689C14.8615 0.572498 15.3751 0.503176 15.8912 0.500439C17.1005 0.496086 18.2789 0.882226 19.2511 1.60142C20.2233 2.32061 20.9374 3.33443 21.2871 4.49207C21.6368 5.64971 21.6035 6.88931 21.1921 8.02649C20.7807 9.16366 20.0132 10.1376 19.0037 10.8036C20.7214 11.4374 22.2058 12.5785 23.26 14.0754C23.3725 14.2385 23.4159 14.4394 23.3808 14.6344C23.3457 14.8294 23.2348 15.0025 23.0725 15.1161Z"
    fill="currentColor" />
</svg>