<svg width="21" height="21" viewBox="0 0 21 21" fill="currentColor"
  xmlns="http://www.w3.org/2000/svg">
  <path fill-rule="evenodd" clip-rule="evenodd"
    d="M10.3328 2.2959C9.32003 2.29557 8.33385 2.64153 7.51898 3.283C6.70412 3.92448 6.10348 4.82768 5.80524 5.86005C5.507 6.89241 5.52686 7.99957 5.8619 9.01901C6.19694 10.0385 6.82951 10.9165 7.66678 11.5243C6.21366 12.0928 4.95327 13.1121 4.04784 14.4511C3.14242 15.7901 2.63337 17.3875 2.58623 19.0377C2.58109 19.2204 2.6442 19.3978 2.76169 19.5309C2.87917 19.664 3.0414 19.7418 3.21269 19.7473C3.38397 19.7528 3.55028 19.6855 3.67503 19.5601C3.79979 19.4348 3.87276 19.2618 3.8779 19.0791C3.92917 17.2893 4.63176 15.5911 5.83677 14.3445C7.04178 13.0978 8.65452 12.4006 10.3332 12.4006C12.0119 12.4006 13.6246 13.0978 14.8297 14.3445C16.0347 15.5911 16.7373 17.2893 16.7885 19.0791C16.7892 19.1708 16.807 19.2615 16.841 19.3457C16.8749 19.43 16.9243 19.5062 16.9862 19.5699C17.0481 19.6335 17.1213 19.6833 17.2015 19.7164C17.2817 19.7495 17.3673 19.7651 17.4533 19.7624C17.5393 19.7597 17.6238 19.7388 17.7021 19.7007C17.7804 19.6627 17.8507 19.6084 17.909 19.541C17.9673 19.4736 18.0124 19.3944 18.0417 19.3081C18.0709 19.2219 18.0837 19.1303 18.0793 19.0387C18.0324 17.3883 17.5234 15.7907 16.618 14.4515C15.7125 13.1123 14.452 12.0928 12.9988 11.5243C13.8361 10.9165 14.4686 10.0385 14.8037 9.01901C15.1387 7.99957 15.1586 6.89241 14.8603 5.86005C14.5621 4.82768 13.9615 3.92448 13.1466 3.283C12.3317 2.64153 11.3455 2.29557 10.3328 2.2959ZM6.88834 7.34775C6.88834 6.37333 7.25124 5.43881 7.89719 4.74979C8.54315 4.06077 9.41926 3.67368 10.3328 3.67368C11.2463 3.67368 12.1224 4.06077 12.7684 4.74979C13.4143 5.43881 13.7772 6.37333 13.7772 7.34775C13.7772 8.32218 13.4143 9.25669 12.7684 9.94571C12.1224 10.6347 11.2463 11.0218 10.3328 11.0218C9.41926 11.0218 8.54315 10.6347 7.89719 9.94571C7.25124 9.25669 6.88834 8.32218 6.88834 7.34775Z"
    fill="currentColor" />
</svg>