<svg width="24" height="24" viewBox="0 0 24 24" fill="none" xmlns="http://www.w3.org/2000/svg">
  <path
    d="M17.5614 21.5602C17.3993 21.5598 17.2397 21.52 17.0964 21.4442L11.9994 18.7642L6.9024 21.4442C6.73736 21.5307 6.55145 21.5693 6.36563 21.5558C6.17981 21.5422 6.00147 21.477 5.85071 21.3676C5.69996 21.2581 5.58278 21.1087 5.51241 20.9361C5.44203 20.7636 5.42125 20.5749 5.4524 20.3912L6.4254 14.7152L2.3014 10.6952C2.16799 10.5649 2.07365 10.4 2.02904 10.2189C1.98443 10.0379 1.99133 9.848 2.04895 9.67067C2.10656 9.49334 2.21261 9.33565 2.35512 9.21541C2.49762 9.09517 2.6709 9.01716 2.8554 8.9902L8.5544 8.1622L11.1034 2.9982C11.1952 2.84204 11.3262 2.71258 11.4835 2.62262C11.6407 2.53267 11.8187 2.48535 11.9999 2.48535C12.1811 2.48535 12.3591 2.53267 12.5163 2.62262C12.6736 2.71258 12.8046 2.84204 12.8964 2.9982L15.4444 8.1622L21.1434 8.9902C21.3279 9.01716 21.5012 9.09517 21.6437 9.21541C21.7862 9.33565 21.8922 9.49334 21.9499 9.67067C22.0075 9.848 22.0144 10.0379 21.9698 10.2189C21.9251 10.4 21.8308 10.5649 21.6974 10.6952L17.5734 14.7152L18.5474 20.3912C18.572 20.5347 18.565 20.6818 18.5268 20.8223C18.4887 20.9628 18.4203 21.0932 18.3265 21.2046C18.2327 21.3159 18.1157 21.4054 17.9838 21.4668C17.8518 21.5282 17.708 21.5601 17.5624 21.5602H17.5614Z"
    fill="currentColor" />
</svg>