<svg width="24" height="24" viewBox="0 0 24 24" fill="none" xmlns="http://www.w3.org/2000/svg">
  <path
    d="M21.7406 20.6252C21.6765 20.7401 21.5826 20.8356 21.4687 20.9016C21.3549 20.9676 21.2253 21.0016 21.0937 21.0002H2.90622C2.77463 21.0016 2.64508 20.9676 2.53123 20.9016C2.41738 20.8356 2.32345 20.7401 2.25934 20.6252C2.19063 20.5121 2.1543 20.3824 2.1543 20.2502C2.1543 20.1179 2.19063 19.9882 2.25934 19.8752C3.65878 17.4644 5.89881 15.655 8.54997 14.7939C7.2792 14.0383 6.29169 12.8863 5.73912 11.5149C5.18656 10.1436 5.09951 8.62881 5.49135 7.20321C5.88319 5.77762 6.73225 4.5201 7.90809 3.62385C9.08393 2.7276 10.5215 2.24219 12 2.24219C13.4784 2.24219 14.916 2.7276 16.0918 3.62385C17.2677 4.5201 18.1167 5.77762 18.5086 7.20321C18.9004 8.62881 18.8134 10.1436 18.2608 11.5149C17.7082 12.8863 16.7207 14.0383 15.45 14.7939C18.1011 15.655 20.3412 17.4644 21.7406 19.8752C21.8093 19.9882 21.8456 20.1179 21.8456 20.2502C21.8456 20.3824 21.8093 20.5121 21.7406 20.6252Z"
    fill="currentColor" />
</svg>