<svg width="19" height="16" viewBox="0 0 19 16" fill="none" xmlns="http://www.w3.org/2000/svg">
<path d="M1.72727 16C1.25227 16 0.845788 15.8435 0.507818 15.5304C0.169273 15.2168 0 14.84 0 14.4V4.8C0 4.36 0.169273 3.98347 0.507818 3.6704C0.845788 3.3568 1.25227 3.2 1.72727 3.2H4.44773L5.52727 2.12C5.68561 1.96 5.87618 1.83333 6.099 1.74C6.32239 1.64667 6.55644 1.6 6.80114 1.6H10.3636C10.6083 1.6 10.8136 1.67653 10.9794 1.8296C11.1447 1.9832 11.2273 2.17333 11.2273 2.4V4C11.2273 4.22667 11.3102 4.4168 11.476 4.5704C11.6412 4.72347 11.8462 4.8 12.0909 4.8H13.8182V6.4C13.8182 6.62667 13.9011 6.81653 14.0669 6.9696C14.2322 7.1232 14.4371 7.2 14.6818 7.2H16.4091C16.6538 7.2 16.8588 7.27653 17.024 7.4296C17.1898 7.5832 17.2727 7.77333 17.2727 8V14.4C17.2727 14.84 17.1037 15.2168 16.7658 15.5304C16.4272 15.8435 16.0205 16 15.5455 16H1.72727ZM8.63636 13.2C9.71591 13.2 10.6337 12.8501 11.3896 12.1504C12.145 11.4501 12.5227 10.6 12.5227 9.6C12.5227 8.6 12.145 7.74987 11.3896 7.0496C10.6337 6.34987 9.71591 6 8.63636 6C7.55682 6 6.63906 6.34987 5.88309 7.0496C5.1277 7.74987 4.75 8.6 4.75 9.6C4.75 10.6 5.1277 11.4501 5.88309 12.1504C6.63906 12.8501 7.55682 13.2 8.63636 13.2ZM15.5455 3.2H14.6818C14.4371 3.2 14.2322 3.12347 14.0669 2.9704C13.9011 2.8168 13.8182 2.62667 13.8182 2.4C13.8182 2.17333 13.9011 1.9832 14.0669 1.8296C14.2322 1.67653 14.4371 1.6 14.6818 1.6H15.5455V0.8C15.5455 0.573333 15.6284 0.3832 15.7942 0.2296C15.9594 0.0765333 16.1644 0 16.4091 0C16.6538 0 16.8588 0.0765333 17.024 0.2296C17.1898 0.3832 17.2727 0.573333 17.2727 0.8V1.6H18.1364C18.3811 1.6 18.586 1.67653 18.7513 1.8296C18.9171 1.9832 19 2.17333 19 2.4C19 2.62667 18.9171 2.8168 18.7513 2.9704C18.586 3.12347 18.3811 3.2 18.1364 3.2H17.2727V4C17.2727 4.22667 17.1898 4.4168 17.024 4.5704C16.8588 4.72347 16.6538 4.8 16.4091 4.8C16.1644 4.8 15.9594 4.72347 15.7942 4.5704C15.6284 4.4168 15.5455 4.22667 15.5455 4V3.2Z" fill="url(#paint0_linear_3126_15458)"/>
<defs>
<linearGradient id="paint0_linear_3126_15458" x1="0" y1="0" x2="17.6728" y2="16.3662" gradientUnits="userSpaceOnUse">
<stop stop-color="#2B5876"/>
<stop offset="1" stop-color="#4E4376"/>
</linearGradient>
</defs>
</svg>
