<svg width="24" height="24" viewBox="0 0 24 24" fill="none" xmlns="http://www.w3.org/2000/svg">
<path d="M20.9999 12C20.9999 12.1989 20.9209 12.3896 20.7803 12.5303C20.6396 12.671 20.4489 12.75 20.2499 12.75H5.55932L11.0343 18.2156C11.1752 18.3578 11.2542 18.5498 11.2542 18.75C11.2542 18.9501 11.1752 19.1422 11.0343 19.2843C10.891 19.423 10.6994 19.5004 10.4999 19.5004C10.3005 19.5004 10.1089 19.423 9.96557 19.2843L3.21557 12.5343C3.07474 12.3922 2.99573 12.2001 2.99573 12C2.99573 11.7998 3.07474 11.6078 3.21557 11.4656L9.96557 4.7156C10.1113 4.596 10.2963 4.53488 10.4846 4.54413C10.6729 4.55338 10.851 4.63233 10.9843 4.76563C11.1176 4.89893 11.1965 5.07705 11.2058 5.26534C11.215 5.45363 11.1539 5.63862 11.0343 5.78435L5.55932 11.25H20.2499C20.4489 11.25 20.6396 11.329 20.7803 11.4696C20.9209 11.6103 20.9999 11.8011 20.9999 12Z" fill="#2D3037"/>
</svg>
