<svg width="24" height="24" viewBox="0 0 24 24" fill="none" xmlns="http://www.w3.org/2000/svg">
<path d="M4 13C4.55228 13 5 12.5523 5 12C5 11.4477 4.55228 11 4 11C3.44772 11 3 11.4477 3 12C3 12.5523 3.44772 13 4 13Z" fill="#1E1E24"/>
<path d="M20.06 11H7.94C7.42085 11 7 11.4209 7 11.94V12.06C7 12.5791 7.42085 13 7.94 13H20.06C20.5791 13 21 12.5791 21 12.06V11.94C21 11.4209 20.5791 11 20.06 11Z" fill="#1E1E24"/>
<path d="M4 19C4.55228 19 5 18.5523 5 18C5 17.4477 4.55228 17 4 17C3.44772 17 3 17.4477 3 18C3 18.5523 3.44772 19 4 19Z" fill="#1E1E24"/>
<path d="M20.2689 17H7.73111C7.32733 17 7 17.4209 7 17.94V18.06C7 18.5791 7.32733 19 7.73111 19H20.2689C20.6727 19 21 18.5791 21 18.06V17.94C21 17.4209 20.6727 17 20.2689 17Z" fill="#1E1E24"/>
<path d="M4 7C4.55228 7 5 6.55228 5 6C5 5.44772 4.55228 5 4 5C3.44772 5 3 5.44772 3 6C3 6.55228 3.44772 7 4 7Z" fill="#1E1E24"/>
<path d="M20.2689 5H7.73111C7.32733 5 7 5.42085 7 5.94V6.06C7 6.57915 7.32733 7 7.73111 7H20.2689C20.6727 7 21 6.57915 21 6.06V5.94C21 5.42085 20.6727 5 20.2689 5Z" fill="#1E1E24"/>
</svg>
