<svg width="24" height="24" viewBox="0 0 24 24" fill="none" xmlns="http://www.w3.org/2000/svg">
  <path
    d="M15.6093 18.0754C15.6911 18.1866 15.7399 18.3187 15.7498 18.4564C15.7598 18.5941 15.7305 18.7318 15.6655 18.8536C15.6012 18.9746 15.5054 19.0759 15.3883 19.1469C15.2711 19.2178 15.1369 19.2558 14.9999 19.2567H1.49989C1.36289 19.2558 1.22869 19.2178 1.11151 19.1469C0.994331 19.0759 0.89853 18.9746 0.834263 18.8536C0.769227 18.7318 0.739996 18.5941 0.74995 18.4564C0.759905 18.3187 0.808638 18.1866 0.890513 18.0754C1.93871 16.5766 3.4208 15.4348 5.13739 14.8036C4.13113 14.1351 3.36681 13.1605 2.95753 12.0238C2.54826 10.8872 2.51578 9.64905 2.86491 8.49255C3.21403 7.33604 3.92621 6.32266 4.89604 5.60237C5.86588 4.88209 7.04184 4.49316 8.24989 4.49316C9.45794 4.49316 10.6339 4.88209 11.6037 5.60237C12.5736 6.32266 13.2857 7.33604 13.6349 8.49255C13.984 9.64905 13.9515 10.8872 13.5422 12.0238C13.133 13.1605 12.3686 14.1351 11.3624 14.8036C13.079 15.4348 14.5611 16.5766 15.6093 18.0754ZM23.2593 18.0754C22.2051 16.5785 20.7207 15.4374 19.003 14.8036C20.0125 14.1376 20.78 13.1637 21.1914 12.0265C21.6028 10.8893 21.6361 9.64971 21.2864 8.49207C20.9367 7.33443 20.2226 6.32061 19.2504 5.60142C18.2782 4.88223 17.0998 4.49609 15.8905 4.50044C15.3744 4.50318 14.8608 4.5725 14.3624 4.70669C14.2453 4.74185 14.1383 4.80442 14.0503 4.8892C13.9622 4.97398 13.8957 5.07854 13.8561 5.19419C13.8184 5.30889 13.8089 5.43101 13.8285 5.55016C13.8481 5.66931 13.8962 5.78197 13.9686 5.87856C14.8165 7.01779 15.3036 8.38493 15.3671 9.80363C15.4306 11.2223 15.0676 12.6275 14.3249 13.8379C14.2296 13.9988 14.1971 14.1891 14.2334 14.3724C14.2697 14.5558 14.3724 14.7193 14.5218 14.8317C14.803 15.0504 15.0749 15.2754 15.3374 15.5067L15.3843 15.5536C16.385 16.4796 17.1968 17.5907 17.7749 18.8254C17.8342 18.9545 17.9294 19.0637 18.0491 19.1402C18.1687 19.2166 18.3079 19.2571 18.4499 19.2567H22.6405C22.7775 19.2558 22.9117 19.2178 23.0289 19.1469C23.1461 19.0759 23.2419 18.9746 23.3061 18.8536C23.3704 18.732 23.4 18.5952 23.3917 18.4579C23.3835 18.3207 23.3376 18.1884 23.2593 18.0754Z"
    fill="currentColor" />
</svg>