<svg width="20" height="20" viewBox="0 0 20 20" fill="none" xmlns="http://www.w3.org/2000/svg">
  <path
    d="M8.78803 1.10186C9.28303 0.0988594 10.714 0.0988594 11.209 1.10186L13.567 5.87986L18.84 6.64586C19.947 6.80586 20.389 8.16786 19.588 8.94886L15.772 12.6679L16.673 17.9179C16.863 19.0219 15.705 19.8629 14.714 19.3419L9.99803 16.8619L5.28303 19.3419C4.29303 19.8619 3.13503 19.0219 3.32303 17.9189L4.22403 12.6679L0.409031 8.94786C-0.391969 8.16786 0.0500314 6.80686 1.15703 6.64586L6.43003 5.87986L8.78803 1.10186ZM9.99803 2.03886L7.74003 6.61386C7.64327 6.81017 7.50023 6.98001 7.32323 7.10875C7.14624 7.23749 6.9406 7.32126 6.72403 7.35286L1.67403 8.08686L5.32803 11.6489C5.64603 11.9589 5.79103 12.4059 5.71603 12.8439L4.85403 17.8729L9.37003 15.4979C9.56384 15.3959 9.77954 15.3426 9.99853 15.3426C10.2175 15.3426 10.4332 15.3959 10.627 15.4979L15.143 17.8729L14.281 12.8429C14.2442 12.6273 14.2602 12.406 14.3278 12.198C14.3954 11.99 14.5125 11.8016 14.669 11.6489L18.323 8.08686L13.273 7.35286C13.0565 7.32126 12.8508 7.23749 12.6738 7.10875C12.4968 6.98001 12.3538 6.81017 12.257 6.61386L9.99803 2.03986V2.03886Z"
    fill="currentColor" />
</svg>