<svg width="24" height="24" viewBox="0 0 24 24" fill="none" xmlns="http://www.w3.org/2000/svg">
  <path
    d="M12.596 8.105C12.2783 8.02253 11.9475 8.00347 11.6225 8.04891C11.2974 8.09435 10.9845 8.2034 10.7017 8.36982C10.4188 8.53624 10.1715 8.75677 9.97387 9.01881C9.77626 9.28085 9.63223 9.57927 9.55 9.897C9.53359 9.96063 9.52986 10.0269 9.53905 10.0919C9.54823 10.157 9.57014 10.2196 9.60352 10.2762C9.6369 10.3328 9.68111 10.3823 9.73361 10.4218C9.78611 10.4613 9.84587 10.4901 9.9095 10.5065C9.97313 10.5229 10.0394 10.5266 10.1044 10.5175C10.1695 10.5083 10.2321 10.4864 10.2887 10.453C10.3453 10.4196 10.3948 10.3754 10.4343 10.3229C10.4738 10.2704 10.5026 10.2106 10.519 10.147C10.5836 9.89491 10.7127 9.66398 10.8936 9.47688C11.0745 9.28979 11.301 9.15298 11.5507 9.07989C11.8005 9.00681 12.065 8.99996 12.3182 9.06003C12.5714 9.12009 12.8047 9.24501 12.995 9.42249C13.1853 9.59997 13.3262 9.82392 13.4038 10.0723C13.4814 10.3207 13.493 10.5851 13.4375 10.8393C13.382 11.0936 13.2614 11.329 13.0873 11.5225C12.9133 11.716 12.692 11.8609 12.445 11.943C12.1505 12.0526 11.8977 12.2514 11.7218 12.5118C11.5459 12.7721 11.4557 13.0809 11.464 13.395V14.023C11.464 14.1556 11.5167 14.2828 11.6104 14.3766C11.7042 14.4703 11.8314 14.523 11.964 14.523C12.0966 14.523 12.2238 14.4703 12.3176 14.3766C12.4113 14.2828 12.464 14.1556 12.464 14.023V13.395C12.4574 13.29 12.483 13.1856 12.5373 13.0955C12.5916 13.0055 12.6721 12.9341 12.768 12.891C13.2782 12.7191 13.7192 12.3871 14.0254 11.9442C14.3315 11.5014 14.4864 10.9715 14.4669 10.4335C14.4475 9.89545 14.2548 9.37812 13.9174 8.95854C13.5801 8.53895 13.1163 8.23957 12.595 8.105H12.596ZM11.965 15.397C11.8829 15.397 11.8017 15.4132 11.7258 15.4446C11.65 15.476 11.5811 15.522 11.5231 15.5801C11.465 15.6381 11.419 15.707 11.3876 15.7828C11.3562 15.8587 11.34 15.9399 11.34 16.022C11.34 16.1041 11.3562 16.1853 11.3876 16.2612C11.419 16.337 11.465 16.4059 11.5231 16.4639C11.5811 16.522 11.65 16.568 11.7258 16.5994C11.8017 16.6308 11.8829 16.647 11.965 16.647C12.1308 16.647 12.2897 16.5812 12.4069 16.4639C12.5242 16.3467 12.59 16.1878 12.59 16.022C12.59 15.8562 12.5242 15.6973 12.4069 15.5801C12.2897 15.4628 12.1308 15.397 11.965 15.397ZM12 2C6.477 2 2 6.477 2 12C2 17.523 6.477 22 12 22C17.52 21.994 21.994 17.52 22 12C22 6.477 17.523 2 12 2ZM12 21C10.8181 21 9.64778 20.7672 8.55585 20.3149C7.46392 19.8626 6.47177 19.1997 5.63604 18.364C4.80031 17.5282 4.13738 16.5361 3.68508 15.4442C3.23279 14.3522 3 13.1819 3 12C3 10.8181 3.23279 9.64778 3.68508 8.55585C4.13738 7.46392 4.80031 6.47177 5.63604 5.63604C6.47177 4.80031 7.46392 4.13738 8.55585 3.68508C9.64778 3.23279 10.8181 3 12 3C14.3861 3.00265 16.6738 3.95171 18.361 5.63896C20.0483 7.32622 20.9974 9.61386 21 12C21 14.3869 20.0518 16.6761 18.364 18.364C16.6761 20.0518 14.3869 21 12 21Z"
    fill="currentColor" />
</svg>