<svg width="20" height="20" viewBox="0 0 20 20" fill="none" xmlns="http://www.w3.org/2000/svg">
  <path
    d="M19.7407 17.8752C18.3413 15.4644 16.1012 13.655 13.4501 12.7939C14.7208 12.0382 15.7083 10.8863 16.2609 9.51495C16.8135 8.14362 16.9005 6.62881 16.5087 5.20321C16.1168 3.77762 15.2678 2.5201 14.0919 1.62385C12.9161 0.727599 11.4785 0.242187 10.0001 0.242188C8.5216 0.242187 7.08403 0.727599 5.90819 1.62385C4.73235 2.5201 3.88329 3.77762 3.49145 5.20321C3.09961 6.62881 3.18666 8.14362 3.73922 9.51495C4.29179 10.8863 5.2793 12.0382 6.55007 12.7939C3.89891 13.655 1.65888 15.4644 0.259441 17.8752C0.200744 17.9603 0.160293 18.0567 0.140631 18.1582C0.120969 18.2598 0.12252 18.3643 0.145188 18.4652C0.167855 18.5661 0.211148 18.6612 0.272347 18.7446C0.333546 18.828 0.411328 18.8978 0.500805 18.9497C0.590283 19.0015 0.689521 19.0343 0.792285 19.046C0.895049 19.0577 0.999117 19.048 1.09795 19.0175C1.19678 18.987 1.28824 18.9364 1.36659 18.8689C1.44493 18.8014 1.50846 18.7184 1.55319 18.6252C2.41042 17.1439 3.64211 15.9141 5.1247 15.0591C6.60728 14.2042 8.28863 13.7541 10.0001 13.7541C11.7115 13.7541 13.3928 14.2042 14.8754 15.0591C16.358 15.9141 17.5897 17.1439 18.4469 18.6252C18.4917 18.7184 18.5552 18.8014 18.6335 18.8689C18.7119 18.9364 18.8033 18.987 18.9022 19.0175C19.001 19.048 19.1051 19.0577 19.2078 19.046C19.3106 19.0343 19.4098 19.0015 19.4993 18.9497C19.5888 18.8978 19.6666 18.828 19.7278 18.7446C19.789 18.6612 19.8323 18.5661 19.8549 18.4652C19.8776 18.3643 19.8792 18.2598 19.8595 18.1582C19.8398 18.0567 19.7994 17.9603 19.7407 17.8752ZM4.75007 7.00016C4.75007 5.96181 5.05797 4.94678 5.63485 4.08342C6.21173 3.22006 7.03167 2.54715 7.99098 2.14979C8.95029 1.75243 10.0059 1.64847 11.0243 1.85104C12.0427 2.05361 12.9782 2.55363 13.7124 3.28785C14.4466 4.02208 14.9466 4.95754 15.1492 5.97594C15.3518 6.99434 15.2478 8.04994 14.8504 9.00925C14.4531 9.96856 13.7802 10.7885 12.9168 11.3654C12.0535 11.9423 11.0384 12.2502 10.0001 12.2502C8.60768 12.2502 7.27232 11.697 6.28776 10.7125C5.30319 9.7279 4.75007 8.39255 4.75007 7.00016Z"
    fill="currentColor" />
</svg>