<svg width="168" height="100" viewBox="0 0 168 100" fill="none" xmlns="http://www.w3.org/2000/svg">
<path d="M23.4682 14.6293C23.4541 15.0869 23.4783 15.5448 23.5403 15.9983C20.6971 16.9442 17.6649 17.1834 14.7076 16.6954C14.8496 16.1607 14.9358 15.6129 14.9649 15.0607C14.866 15.6168 14.6718 16.1517 14.3907 16.6422C13.8322 16.5359 13.5184 16.4453 13.5184 16.4453C13.5184 16.4453 14.0895 13.3697 13.0603 11.1318C12.0311 8.89387 12.5457 7.64362 13.3239 7.29043C14.7672 2.87084 20.1924 3.56784 22.028 5.36194C24.3561 7.63737 24.3687 14.048 24.7829 15.5139C24.4409 15.6608 24.1051 15.7952 23.7694 15.914C23.6012 15.5044 23.4996 15.0707 23.4682 14.6293Z" fill="#263238"/>
<path d="M25.71 21.5088L25.9924 22.3996C26.0959 22.7121 26.1995 23.0247 26.3062 23.3216C26.5164 23.9468 26.736 24.5719 26.9714 25.172C27.2067 25.7721 27.4326 26.4035 27.6773 27.0161L28.0413 27.9538L28.1323 28.1851L28.1543 28.2382C28.1155 28.2044 28.0708 28.1779 28.0225 28.1601C27.9535 28.1351 27.9252 28.1601 27.9692 28.1601C28.0447 28.1598 28.1198 28.1482 28.1919 28.1257C28.4373 28.0482 28.6731 27.9434 28.8948 27.8131C29.4299 27.5025 29.9416 27.1536 30.426 26.7692C30.9343 26.3753 31.4332 25.9534 31.9227 25.5189C32.4122 25.0845 32.9048 24.6313 33.3786 24.1874L34.3419 25.0001C33.9403 25.5752 33.5167 26.1003 33.0868 26.6348C32.6569 27.1692 32.1737 27.6693 31.6779 28.1663C31.1676 28.6851 30.6122 29.1579 30.0181 29.5791C29.6782 29.8163 29.313 30.0154 28.9293 30.1729C28.6858 30.2702 28.4305 30.3354 28.17 30.3667C27.8164 30.4106 27.4574 30.3621 27.1282 30.2261C26.7695 30.0738 26.4638 29.8194 26.2497 29.4947C26.2026 29.4228 26.1587 29.3509 26.1242 29.2853L26.0394 29.1165L25.9265 28.8883C25.779 28.5758 25.6127 28.2632 25.4841 27.9694C25.1985 27.3443 24.913 26.7192 24.6526 26.094C24.3921 25.4689 24.138 24.825 23.8964 24.1812C23.7834 23.8686 23.6705 23.5279 23.5638 23.1997C23.4571 22.8716 23.3535 22.5496 23.25 22.1652L25.71 21.5088Z" fill="#FFC3BD"/>
<path d="M24.9662 18.7332C26.0487 19.0082 26.8049 23.4403 26.8049 23.4403L23.8241 25.4595C23.8241 25.4595 20.9687 20.9867 21.8002 19.8021C22.6663 18.5707 23.3879 18.3331 24.9662 18.7332Z" fill="#407BFF"/>
<path d="M24.9662 18.7332C26.0487 19.0082 26.8049 23.4403 26.8049 23.4403L23.8241 25.4595C23.8241 25.4595 20.9687 20.9867 21.8002 19.8021C22.6663 18.5707 23.3879 18.3331 24.9662 18.7332Z" fill="#407BFF"/>
<path opacity="0.4" d="M24.9662 18.7332C26.0487 19.0082 26.8049 23.4403 26.8049 23.4403L23.8241 25.4595C23.8241 25.4595 20.9687 20.9867 21.8002 19.8021C22.6663 18.5707 23.3879 18.3331 24.9662 18.7332Z" fill="white"/>
<path opacity="0.3" d="M24.8714 19.7246L25.7029 24.1911L24.0273 25.3226L24.8714 19.7246Z" fill="black"/>
<path d="M33.3281 24.2942L34.3228 21.9062L35.5496 24.2942C35.5496 24.2942 34.7527 25.4819 33.7015 25.1913L33.3281 24.2942Z" fill="#FFC3BD"/>
<path d="M35.4185 21.6592L36.9937 22.2906L35.5503 24.2941L34.3203 21.9061L35.4185 21.6592Z" fill="#FFC3BD"/>
<path d="M19.1172 93.3482H21.7435L21.9192 87.2939H19.2929L19.1172 93.3482Z" fill="#FFC3BD"/>
<path d="M1.50781 85.5491L3.92073 86.5742L7.08042 81.3357L4.66437 80.3105L1.50781 85.5491Z" fill="#FFC3BD"/>
<path d="M4.38403 86.219L1.87384 84.6812C1.83092 84.6537 1.77933 84.643 1.72895 84.6511C1.67857 84.6591 1.63296 84.6854 1.60086 84.725L0.0916109 86.5284C0.0540616 86.5756 0.0270892 86.6303 0.0125069 86.6887C-0.00207545 86.7472 -0.00392977 86.8081 0.00706796 86.8673C0.0180657 86.9265 0.0416613 86.9827 0.0762684 87.0321C0.110875 87.0814 0.155693 87.1229 0.207708 87.1536C1.09255 87.6755 1.54438 87.8818 2.64886 88.5569C3.32975 88.9758 4.27735 89.6509 5.21553 90.226C6.15371 90.8011 6.78439 89.9135 6.43611 89.5853C4.91431 88.1381 4.95823 87.4505 4.6727 86.5941C4.62524 86.4384 4.52267 86.3051 4.38403 86.219Z" fill="#263238"/>
<path d="M21.8282 93.0449H18.8819C18.8311 93.0444 18.7819 93.0621 18.7433 93.0948C18.7046 93.1276 18.6792 93.1731 18.6716 93.2231L18.3359 95.5485C18.3277 95.6082 18.3326 95.6689 18.3503 95.7265C18.3679 95.784 18.398 95.8371 18.4382 95.882C18.4785 95.9269 18.5281 95.9625 18.5836 95.9864C18.639 96.0103 18.6991 96.022 18.7595 96.0205C19.7887 96.0049 20.2844 95.9424 21.5834 95.9424C22.3804 95.9424 24.0309 96.0267 25.1322 96.0267C26.2336 96.0267 26.29 94.9422 25.8319 94.8422C23.7767 94.4014 22.9672 93.7951 22.2737 93.2168C22.1509 93.1078 21.9927 93.0467 21.8282 93.0449Z" fill="#263238"/>
<path opacity="0.2" d="M21.9173 87.2969L21.8294 90.4162H19.2031L19.2941 87.2969H21.9173Z" fill="black"/>
<path opacity="0.2" d="M4.66364 80.3145L7.07656 81.3365L5.44807 84.037L3.03516 83.0118L4.66364 80.3145Z" fill="black"/>
<path d="M24.9701 18.7323C24.9701 18.7323 26.2252 19.1699 23.715 34.5072H13.0467C13.2256 30.1876 13.2318 27.5246 11.1641 18.6573C12.6558 18.3502 14.168 18.1517 15.6887 18.0634C17.3004 17.9476 18.9184 17.9476 20.5302 18.0634C22.6137 18.2509 24.9701 18.7323 24.9701 18.7323Z" fill="#407BFF"/>
<path opacity="0.4" d="M24.9701 18.7323C24.9701 18.7323 26.2252 19.1699 23.715 34.5072H13.0467C13.2256 30.1876 13.2318 27.5246 11.1641 18.6573C12.6558 18.3502 14.168 18.1517 15.6887 18.0634C17.3004 17.9476 18.9184 17.9476 20.5302 18.0634C22.6137 18.2509 24.9701 18.7323 24.9701 18.7323Z" fill="white"/>
<path d="M15.6915 18.0611C17.3033 17.9484 18.9211 17.9484 20.533 18.0611C20.7934 18.0861 21.0601 18.1142 21.3237 18.1455C21.4334 18.3097 21.5037 18.4969 21.5293 18.6926C21.5549 18.8882 21.535 19.0871 21.4712 19.2738C21.1291 20.1146 19.9023 20.2115 19.0112 20.2115C15.7134 20.2115 15.1549 18.2924 15.1329 18.2111L15.1016 18.0955L15.6915 18.0611Z" fill="white"/>
<path d="M16.1754 12.6348C16.4892 14.1976 16.7872 17.0294 15.6953 18.0639C15.6953 18.0639 16.122 19.6267 19.015 19.6267C22.1967 19.6267 20.5368 18.0639 20.5368 18.0639C18.7985 17.6513 18.8456 16.3667 19.1468 15.1634L16.1754 12.6348Z" fill="#FFC3BD"/>
<path d="M16.4889 11.5322C16.1155 12.7606 16.6332 15.6674 17.402 16.7926C15.8864 15.9268 15.375 13.2888 15.375 13.2888L16.4889 11.5322Z" fill="#263238"/>
<path opacity="0.2" d="M17.3852 13.666L19.1454 15.1601C19.0682 15.4401 19.0178 15.7269 18.9948 16.0165C18.3328 15.9196 17.426 15.1944 17.3506 14.5037C17.3117 14.2246 17.3234 13.9409 17.3852 13.666Z" fill="black"/>
<path d="M14.7358 9.86646C15.3445 12.3888 15.5453 13.4703 17.0703 14.5549C19.364 16.1833 22.3417 14.8893 22.5017 12.2357C22.646 9.84771 21.6294 6.12512 18.9466 5.55001C18.3555 5.42 17.7409 5.44263 17.161 5.61576C16.5812 5.78888 16.0554 6.10675 15.6335 6.53919C15.2117 6.97163 14.9078 7.5043 14.7506 8.08662C14.5935 8.66895 14.5884 9.28162 14.7358 9.86646Z" fill="#FFC3BD"/>
<path d="M23.7145 34.5082C23.7145 34.5082 25.7823 54.6433 25.5972 62.6136C25.4183 70.9027 22.3684 89.8063 22.3684 89.8063H18.8228C18.8228 89.8063 19.3845 71.3809 19.0707 63.2387C18.7287 54.362 15.8984 34.502 15.8984 34.502L23.7145 34.5082Z" fill="#407BFF"/>
<path opacity="0.4" d="M23.7145 34.5082C23.7145 34.5082 25.7823 54.6433 25.5972 62.6136C25.4183 70.9027 22.3684 89.8063 22.3684 89.8063H18.8228C18.8228 89.8063 19.3845 71.3809 19.0707 63.2387C18.7287 54.362 15.8984 34.502 15.8984 34.502L23.7145 34.5082Z" fill="black"/>
<path d="M18.5305 89.9378H22.6911L22.9986 88.6157L18.3359 88.4531L18.5305 89.9378Z" fill="#407BFF"/>
<path opacity="0.2" d="M19.1203 39.5179C21.7371 44.7627 19.6443 54.3301 18.7186 57.8902C18.2448 52.5454 17.4447 46.0129 16.8203 41.2089C17.2157 38.5083 17.9122 37.0987 19.1203 39.5179Z" fill="black"/>
<path d="M20.8993 34.5078C20.8993 34.5078 18.4832 55.4493 16.6602 62.16C14.4983 70.1396 6.26805 83.7266 6.26805 83.7266L2.97656 82.3326C2.97656 82.3326 8.0691 66.9046 9.72582 62.7007C13.2558 53.7302 10.2341 40.3621 13.055 34.5078H20.8993Z" fill="#407BFF"/>
<path opacity="0.4" d="M20.8993 34.5078C20.8993 34.5078 18.4832 55.4493 16.6602 62.16C14.4983 70.1396 6.26805 83.7266 6.26805 83.7266L2.97656 82.3326C2.97656 82.3326 8.0691 66.9046 9.72582 62.7007C13.2558 53.7302 10.2341 40.3621 13.055 34.5078H20.8993Z" fill="black"/>
<path d="M2.52344 82.3425L6.60876 84.0741L7.59088 82.9801L2.878 80.7266L2.52344 82.3425Z" fill="#407BFF"/>
<path d="M18.7612 9.90031C18.7989 10.1064 18.937 10.2564 19.075 10.2314C19.2131 10.2064 19.2915 10.019 19.2539 9.81286C19.2162 9.60673 19.0782 9.45682 18.9401 9.47868C18.802 9.50054 18.7079 9.69106 18.7612 9.90031Z" fill="#263238"/>
<path d="M21.1029 9.48722C21.1374 9.69335 21.2786 9.84327 21.4167 9.81828C21.5548 9.7933 21.6363 9.6059 21.5987 9.39977C21.561 9.19364 21.423 9.04373 21.2849 9.06559C21.1469 9.08746 21.0653 9.27797 21.1029 9.48722Z" fill="#263238"/>
<path d="M21.2227 9.09068L21.6965 8.85645C21.6965 8.85645 21.5082 9.29057 21.2227 9.09068Z" fill="#263238"/>
<path d="M20.5391 9.95312C20.8084 10.3943 21.1379 10.7961 21.518 11.1471C21.4249 11.241 21.3124 11.3137 21.1884 11.3601C21.0643 11.4065 20.9317 11.4255 20.7995 11.4159L20.5391 9.95312Z" fill="#ED847E"/>
<path d="M19.8547 12.3945C19.9736 12.3943 20.0922 12.3838 20.2093 12.3632C20.2182 12.3629 20.227 12.3606 20.235 12.3566C20.243 12.3526 20.2501 12.3469 20.2557 12.3399C20.2613 12.333 20.2653 12.3249 20.2676 12.3163C20.2698 12.3076 20.2701 12.2986 20.2685 12.2898C20.2669 12.281 20.2635 12.2727 20.2584 12.2653C20.2533 12.258 20.2467 12.2518 20.239 12.2472C20.2313 12.2426 20.2227 12.2398 20.2138 12.2388C20.2049 12.2378 20.1958 12.2387 20.1873 12.2414C19.9289 12.2927 19.662 12.2823 19.4084 12.2112C19.1548 12.1401 18.9218 12.0103 18.7283 11.8323C18.7165 11.8209 18.7008 11.8145 18.6843 11.8145C18.6679 11.8145 18.6521 11.8209 18.6404 11.8323C18.6343 11.8379 18.6295 11.8446 18.6261 11.8521C18.6228 11.8597 18.6211 11.8678 18.6211 11.876C18.6211 11.8843 18.6228 11.8924 18.6261 11.8999C18.6295 11.9074 18.6343 11.9142 18.6404 11.9198C18.9679 12.2289 19.4034 12.3992 19.8547 12.3945Z" fill="#263238"/>
<path d="M15.623 8.38803C15.6917 9.0527 15.7964 9.71317 15.9368 10.3665C15.9368 10.3665 17.5057 8.38803 17.7661 7.32846C17.7039 7.74563 17.5824 8.15185 17.4053 8.53494C17.4053 8.53494 19.517 8.07547 19.7241 6.68771C19.7205 7.309 19.6511 7.92817 19.517 8.53494C19.517 8.53494 21.5314 7.74729 21.3463 6.41578C21.1611 5.08428 18.0673 4.56855 16.6397 5.01864C15.212 5.46872 13.8157 6.92838 14.2362 8.93501C14.6566 10.9416 15.463 11.6949 15.463 11.6949C15.463 11.6949 14.8825 9.67266 15.623 8.38803Z" fill="#263238"/>
<path d="M14.6267 11.7656C14.8203 12.2286 15.1905 12.5962 15.6558 12.7877C16.2834 13.0377 16.6568 12.5033 16.547 11.8844C16.4497 11.3249 16.0073 10.5248 15.3578 10.5373C15.2156 10.5435 15.0773 10.585 14.9553 10.6578C14.8333 10.7307 14.7314 10.8326 14.6588 10.9545C14.5863 11.0764 14.5453 11.2144 14.5397 11.356C14.5341 11.4976 14.564 11.6384 14.6267 11.7656Z" fill="#FFC3BD"/>
<path d="M16.0042 7.4248C15.6904 8.67504 16.3431 11.5506 17.1652 12.6352C15.5963 11.8444 14.9688 9.2314 14.9688 9.2314L16.0042 7.4248Z" fill="#263238"/>
<path d="M17.9024 9.18808C17.9185 9.18323 17.9335 9.17519 17.9464 9.16446C17.9594 9.15373 17.97 9.14052 17.9777 9.12561C18.0438 8.98472 18.1426 8.86145 18.2659 8.7659C18.3891 8.67035 18.5334 8.60525 18.6868 8.57593C18.7193 8.57127 18.7487 8.55445 18.7691 8.52891C18.7895 8.50337 18.7994 8.47103 18.7967 8.43851C18.7951 8.42218 18.7903 8.40634 18.7824 8.39192C18.7746 8.3775 18.7639 8.36481 18.751 8.35461C18.7381 8.3444 18.7233 8.33689 18.7074 8.33252C18.6915 8.32816 18.6749 8.32703 18.6586 8.3292C18.4639 8.36282 18.2802 8.44249 18.123 8.56152C17.9657 8.68055 17.8395 8.83545 17.7549 9.01318C17.7443 9.03489 17.7402 9.05922 17.7431 9.08321C17.7461 9.1072 17.7559 9.12982 17.7716 9.14833C17.7872 9.16684 17.8078 9.18045 17.8311 9.1875C17.8543 9.19456 17.8791 9.19476 17.9024 9.18808Z" fill="#263238"/>
<path d="M21.9567 8.21819C21.9725 8.21887 21.9882 8.21615 22.0028 8.21022C22.0175 8.20429 22.0306 8.19529 22.0414 8.18384C22.0644 8.16049 22.0773 8.12909 22.0773 8.09639C22.0773 8.06369 22.0644 8.03229 22.0414 8.00894C21.9076 7.8648 21.7416 7.75406 21.5568 7.68569C21.372 7.61732 21.1736 7.59325 20.9777 7.61542C20.9614 7.61842 20.9459 7.6246 20.932 7.63362C20.9181 7.64264 20.9061 7.65432 20.8968 7.66797C20.8874 7.68162 20.8809 7.69697 20.8776 7.71315C20.8742 7.72933 20.8741 7.746 20.8773 7.76221C20.8841 7.79379 20.903 7.82152 20.9299 7.83957C20.9568 7.85762 20.9897 7.8646 21.0217 7.85903C21.1761 7.84185 21.3325 7.86117 21.4781 7.91544C21.6236 7.96971 21.7543 8.05739 21.8594 8.17135C21.8711 8.18587 21.8859 8.19762 21.9027 8.20572C21.9196 8.21383 21.938 8.21809 21.9567 8.21819Z" fill="#263238"/>
<path d="M12.4636 22.3687C12.0274 23.7409 11.6101 25.1817 11.2556 26.6008C10.8987 28.0016 10.6376 29.4249 10.4743 30.861L10.4492 31.1235C10.4492 31.2079 10.4492 31.2267 10.4492 31.3017C10.4526 31.4491 10.4642 31.5962 10.4837 31.7424C10.5236 32.0848 10.5812 32.4248 10.6563 32.7613C10.8037 33.4583 10.97 34.1772 11.1834 34.8899C11.3968 35.6025 11.5787 36.3276 11.7921 37.0465L12.4197 39.2032L11.2556 39.6814C10.5402 38.3186 9.91889 36.9309 9.33841 35.4993C9.05915 34.7805 8.78616 34.0553 8.56025 33.2896C8.44729 32.9082 8.34061 32.5175 8.24647 32.0924C8.20178 31.8673 8.17035 31.6398 8.15234 31.4111C8.15234 31.2954 8.15234 31.1235 8.15234 31.0204V30.7078C8.17894 29.9114 8.25228 29.1171 8.37198 28.3292C8.47553 27.5478 8.62928 26.7852 8.79558 26.0257C9.12206 24.5045 9.5412 23.0046 10.0507 21.5342L12.4636 22.3687Z" fill="#FFC3BD"/>
<path d="M11.1666 18.659C10.0997 18.9716 8.81641 22.6442 8.81641 22.6442L12.9582 25.5947C12.9582 25.5947 14.4706 22.5379 14.0219 21.1627C13.5544 19.7311 12.3871 18.2902 11.1666 18.659Z" fill="#407BFF"/>
<path opacity="0.4" d="M11.1666 18.659C10.0997 18.9716 8.81641 22.6442 8.81641 22.6442L12.9582 25.5947C12.9582 25.5947 14.4706 22.5379 14.0219 21.1627C13.5544 19.7311 12.3871 18.2902 11.1666 18.659Z" fill="white"/>
<path d="M5.44579 87.2118C5.49681 87.194 5.54324 87.1651 5.58175 87.1273C5.62026 87.0895 5.64991 87.0437 5.66857 86.9932C5.6867 86.9607 5.69622 86.9242 5.69622 86.887C5.69622 86.8498 5.6867 86.8133 5.66857 86.7808C5.48031 86.506 4.52958 86.5278 4.41348 86.531C4.40145 86.5312 4.38972 86.5348 4.37971 86.5414C4.3697 86.5481 4.36181 86.5575 4.357 86.5684C4.35089 86.5783 4.34766 86.5896 4.34766 86.6012C4.34766 86.6128 4.35089 86.6242 4.357 86.634C4.60488 86.8808 5.06927 87.2837 5.39559 87.2212L5.44579 87.2118ZM4.56409 86.6434C4.94376 86.6434 5.45207 86.6965 5.55248 86.8433C5.56106 86.8574 5.56559 86.8736 5.56559 86.8901C5.56559 86.9066 5.56106 86.9228 5.55248 86.937C5.5386 86.9747 5.51559 87.0084 5.48548 87.0351C5.45537 87.0618 5.41911 87.0806 5.3799 87.09C5.20733 87.1337 4.9061 86.9557 4.56409 86.6434Z" fill="#407BFF"/>
<path d="M4.84318 86.5778C5.13185 86.4872 5.43935 86.3279 5.50524 86.1499C5.52161 86.1036 5.52185 86.0531 5.50591 86.0067C5.48997 85.9602 5.45879 85.9205 5.41739 85.8938C5.38084 85.8634 5.33784 85.8418 5.29163 85.8304C5.24542 85.819 5.19722 85.8183 5.15068 85.8282C4.77729 85.8938 4.37566 86.5309 4.35997 86.559C4.35446 86.5685 4.35156 86.5793 4.35156 86.5903C4.35156 86.6012 4.35446 86.612 4.35997 86.6215C4.36561 86.6306 4.37343 86.6383 4.38273 86.6437C4.39203 86.6492 4.40253 86.6523 4.41331 86.6527C4.55949 86.6486 4.7043 86.6234 4.84318 86.5778ZM5.13185 85.9531H5.17264C5.20215 85.947 5.23264 85.9475 5.26194 85.9545C5.29124 85.9615 5.31861 85.9749 5.34208 85.9937C5.40484 86.0437 5.39856 86.0812 5.38915 86.1093C5.32639 86.2811 4.84946 86.4872 4.53255 86.5278C4.67673 86.2877 4.88391 86.0911 5.13185 85.9594V85.9531Z" fill="#407BFF"/>
<path d="M22.815 93.5002C23.0362 93.5183 23.2571 93.4622 23.4426 93.341C23.4857 93.3021 23.5185 93.2533 23.5382 93.1989C23.5579 93.1444 23.5639 93.0859 23.5555 93.0286C23.5531 92.9948 23.542 92.9621 23.5233 92.9337C23.5046 92.9053 23.479 92.8821 23.4488 92.8662C23.1351 92.6913 22.0839 93.2223 21.9647 93.2816C21.9532 93.2863 21.9433 93.2943 21.9364 93.3046C21.9295 93.3149 21.9258 93.327 21.9258 93.3394C21.9258 93.3518 21.9295 93.3639 21.9364 93.3742C21.9433 93.3845 21.9532 93.3925 21.9647 93.3972C22.2439 93.46 22.5288 93.4946 22.815 93.5002ZM23.2825 92.9599C23.3225 92.9574 23.3624 92.9649 23.3986 92.9818C23.411 92.9885 23.4213 92.9985 23.4285 93.0106C23.4357 93.0227 23.4395 93.0365 23.4394 93.0505C23.4453 93.0864 23.442 93.1232 23.43 93.1576C23.4179 93.192 23.3974 93.2228 23.3704 93.2473C23.2104 93.3909 22.7774 93.4159 22.1969 93.3191C22.5357 93.1391 22.9028 93.0176 23.2825 92.9599Z" fill="#407BFF"/>
<path d="M22.0003 93.4095H22.0254C22.3392 93.269 22.9667 92.7068 22.9102 92.4101C22.9102 92.3383 22.8475 92.254 22.6749 92.2352C22.6131 92.2283 22.5506 92.2342 22.4912 92.2525C22.4318 92.2707 22.3769 92.301 22.3298 92.3414C22.016 92.6162 21.9407 93.319 21.9375 93.3471C21.9371 93.358 21.9395 93.3689 21.9445 93.3788C21.9494 93.3886 21.9567 93.397 21.9658 93.4033C21.976 93.4097 21.9884 93.4119 22.0003 93.4095ZM22.6278 92.3508H22.6655C22.7785 92.3508 22.7879 92.4101 22.7879 92.4226C22.8192 92.6006 22.3988 93.0472 22.0787 93.2378C22.1038 92.941 22.2212 92.6593 22.4145 92.432C22.472 92.3799 22.5469 92.351 22.6247 92.3508H22.6278Z" fill="#407BFF"/>
<path d="M12.8958 33.8875L12.626 34.8244C12.5883 34.8962 12.6762 34.9712 12.7986 34.9712H23.7806C23.8779 34.9712 23.9563 34.9244 23.9626 34.865L24.0599 33.9281C24.0599 33.8625 23.9814 33.8063 23.8779 33.8063H13.0716C13.0377 33.8036 13.0038 33.8097 12.973 33.824C12.9422 33.8382 12.9157 33.8601 12.8958 33.8875Z" fill="#263238"/>
<path d="M14.3463 35.0866H14.0545C13.998 35.0866 13.9541 35.0585 13.9572 35.021L14.0921 33.7707C14.0921 33.7363 14.1486 33.7051 14.2051 33.7051H14.4937C14.5534 33.7051 14.5942 33.7363 14.591 33.7707L14.4561 35.021C14.4561 35.071 14.4059 35.0866 14.3463 35.0866Z" fill="#407BFF"/>
<path opacity="0.4" d="M14.3463 35.0866H14.0545C13.998 35.0866 13.9541 35.0585 13.9572 35.021L14.0921 33.7707C14.0921 33.7363 14.1486 33.7051 14.2051 33.7051H14.4937C14.5534 33.7051 14.5942 33.7363 14.591 33.7707L14.4561 35.021C14.4561 35.071 14.4059 35.0866 14.3463 35.0866Z" fill="black"/>
<path d="M22.9525 35.0866H22.6638C22.6074 35.0866 22.5634 35.0585 22.5666 35.021L22.7046 33.7707C22.7046 33.7363 22.758 33.7051 22.8144 33.7051H23.1031C23.1627 33.7051 23.2067 33.7363 23.2004 33.7707L23.0655 35.021C23.0623 35.071 23.0121 35.0866 22.9525 35.0866Z" fill="#407BFF"/>
<path opacity="0.4" d="M22.9525 35.0866H22.6638C22.6074 35.0866 22.5634 35.0585 22.5666 35.021L22.7046 33.7707C22.7046 33.7363 22.758 33.7051 22.8144 33.7051H23.1031C23.1627 33.7051 23.2067 33.7363 23.2004 33.7707L23.0655 35.021C23.0623 35.071 23.0121 35.0866 22.9525 35.0866Z" fill="black"/>
<path d="M18.6522 35.0866H18.3635C18.3039 35.0866 18.2599 35.0585 18.2662 35.021L18.4011 33.7707C18.4011 33.7363 18.4545 33.7051 18.5141 33.7051H18.8028C18.8593 33.7051 18.9032 33.7363 18.9 33.7707L18.7651 35.021C18.762 35.071 18.7086 35.0866 18.6522 35.0866Z" fill="#407BFF"/>
<path opacity="0.4" d="M18.6522 35.0866H18.3635C18.3039 35.0866 18.2599 35.0585 18.2662 35.021L18.4011 33.7707C18.4011 33.7363 18.4545 33.7051 18.5141 33.7051H18.8028C18.8593 33.7051 18.9032 33.7363 18.9 33.7707L18.7651 35.021C18.762 35.071 18.7086 35.0866 18.6522 35.0866Z" fill="black"/>
<path d="M18.8672 9.50065L19.341 9.26953C19.341 9.26953 19.1527 9.70366 18.8672 9.50065Z" fill="#263238"/>
<path d="M12.3309 38.8496L14.5807 40.5687L11.9732 41.1407C11.9732 41.1407 10.8656 39.8904 11.2484 38.859L12.3309 38.8496Z" fill="#FFC3BD"/>
<path d="M15.1326 42.6969L12.9236 43.0563L11.7188 40.7997L14.5804 40.5684L15.1326 42.6969Z" fill="#FFC3BD"/>
<path d="M95.0798 64.6596L91.7344 64.9014L91.7571 65.2129L95.1025 64.9711L95.0798 64.6596Z" fill="#407BFF"/>
<path d="M98.0883 64.4437L96.4453 64.5625L96.468 64.874L98.111 64.7552L98.0883 64.4437Z" fill="#407BFF"/>
<path d="M112.521 27.7538L57.1215 31.7327C55.9685 31.8223 54.8974 32.3613 54.1408 33.2326C53.3842 34.1039 53.003 35.2373 53.0801 36.3867L54.9627 62.398C55.0519 63.5482 55.5934 64.6169 56.4696 65.3714C57.3457 66.126 58.4856 66.5053 59.6411 66.4269L62.7788 66.2018C63.0068 66.1855 63.2319 66.2599 63.4049 66.4087C63.5778 66.5576 63.6844 66.7687 63.7013 66.9957L64.0527 71.8154C64.0585 71.9087 64.0921 71.9982 64.1493 72.0724C64.2065 72.1465 64.2846 72.202 64.3737 72.2315C64.4627 72.2611 64.5586 72.2635 64.6491 72.2383C64.7395 72.2132 64.8203 72.1617 64.8811 72.0904L70.1337 66.0424C70.3545 65.7891 70.6669 65.6329 71.0028 65.608L115.031 62.448C116.185 62.3591 117.257 61.8206 118.014 60.9492C118.771 60.0778 119.153 58.944 119.076 57.794L117.193 31.7827C117.104 30.6336 116.564 29.5659 115.689 28.8116C114.814 28.0573 113.676 27.6772 112.521 27.7538Z" fill="#407BFF"/>
<path d="M65.2148 43.6728L68.2082 43.4571L68.453 46.8328L71.7225 46.5983L71.4778 43.2227L74.4837 43.0039L75.1834 52.6495L72.1775 52.8652L71.8951 48.9644L68.6256 49.202L68.908 53.1027L65.9177 53.3184L65.2148 43.6728Z" fill="white"/>
<path opacity="0.2" d="M57.1215 31.733C55.9685 31.8226 54.8974 32.3615 54.1408 33.2328C53.3842 34.1041 53.003 35.2375 53.0801 36.387L54.9627 62.3982C55.0519 63.5485 55.5934 64.6172 56.4696 65.3717C57.3457 66.1262 58.4856 66.5055 59.6411 66.4271L60.1023 66.3927C60.8687 66.3376 61.5953 66.0319 62.1695 65.5233C62.7437 65.0146 63.1332 64.3314 63.2777 63.5797L69.5877 30.8359L57.1215 31.733Z" fill="black"/>
<path d="M84.5723 49.1304L79.1817 49.518C79.2231 49.8658 79.3697 50.1928 79.6022 50.4556C79.7355 50.5954 79.8995 50.7025 80.0813 50.7687C80.2631 50.8348 80.4578 50.8582 80.6502 50.837C80.9144 50.8182 81.1694 50.7321 81.3907 50.5869C81.5639 50.4563 81.7117 50.2953 81.8268 50.1118L84.4939 50.165C84.2037 50.82 83.7325 51.3794 83.1353 51.7778C82.5872 52.1237 81.7777 52.3321 80.7066 52.4029C79.9578 52.4897 79.199 52.4096 78.4851 52.1685C77.9128 51.9291 77.4216 51.531 77.07 51.0214C76.6669 50.4413 76.4354 49.7601 76.4017 49.0554C76.3457 48.566 76.3933 48.0703 76.5413 47.6003C76.6894 47.1303 76.9347 46.6965 77.2614 46.3267C77.9141 45.6016 78.8554 45.1942 80.0854 45.1046C80.8997 45.0082 81.7253 45.1046 82.4952 45.3859C83.0846 45.6368 83.5813 46.0638 83.9165 46.608C84.3004 47.2839 84.5156 48.0418 84.5441 48.8178L84.5723 49.1304ZM81.7484 48.0427C81.7102 47.6362 81.5342 47.2548 81.2495 46.9612C81.106 46.8513 80.9414 46.7718 80.7659 46.7279C80.5904 46.6839 80.4076 46.6763 80.2291 46.7056C80.0505 46.735 79.8798 46.8005 79.7277 46.8982C79.5756 46.996 79.4453 47.1238 79.3449 47.2738C79.1774 47.5679 79.0928 47.9016 79.1001 48.2396L81.7484 48.0427Z" fill="white"/>
<path d="M85.4062 42.2182L88.1016 42.0244L88.8013 51.6669L86.106 51.8607L85.4062 42.2182Z" fill="white"/>
<path d="M89.9062 41.894L92.6016 41.7002L93.3013 51.3427L90.6091 51.5365L89.9062 41.894Z" fill="white"/>
<path d="M94.4367 47.7698C94.3858 47.2806 94.4388 46.7862 94.5924 46.3188C94.7459 45.8514 94.9965 45.4214 95.3278 45.0568C95.9993 44.3129 96.9501 43.8961 98.18 43.8065C99.5816 43.7065 100.671 44.0357 101.45 44.7942C102.096 45.4732 102.469 46.3651 102.499 47.3003C102.528 48.2356 102.212 49.149 101.61 49.8671C100.944 50.6047 99.9801 51.0215 98.7166 51.1173C97.7351 51.2346 96.7436 51.0021 95.9177 50.4609C95.4785 50.1573 95.1161 49.7561 94.8591 49.2891C94.6021 48.8221 94.4575 48.302 94.4367 47.7698ZM97.132 47.5698C97.127 48.0631 97.297 48.5424 97.6121 48.9231C97.7392 49.0528 97.8931 49.1533 98.063 49.2178C98.233 49.2823 98.415 49.3093 98.5965 49.2968C98.7779 49.2843 98.9545 49.2327 99.1139 49.1455C99.2733 49.0583 99.4119 48.9377 99.5199 48.7919C99.7735 48.3568 99.8687 47.8479 99.7897 47.351C99.7928 46.8675 99.6251 46.3984 99.3159 46.0257C99.1951 45.8937 99.0453 45.7911 98.8783 45.7261C98.7112 45.661 98.5313 45.6352 98.3526 45.6506C98.1663 45.6593 97.9844 45.7106 97.8211 45.8006C97.6579 45.8905 97.5177 46.0168 97.4113 46.1695C97.1585 46.59 97.0639 47.0863 97.1446 47.5698H97.132Z" fill="white"/>
<path d="M103.352 40.925L106.223 40.7188L106.383 42.9067L106.147 47.3606L104.371 47.4888L103.508 43.113L103.352 40.925ZM103.979 48.2014L106.659 48.0076L106.831 50.3706L104.149 50.5613L103.979 48.2014Z" fill="white"/>
<path d="M151.634 6.34732C150.966 5.68157 149.68 3.15921 150.913 1.97148C152.146 0.783757 153.244 1.86209 153.329 2.44032C153.413 3.01856 153.188 7.89137 151.634 6.34732Z" fill="#263238"/>
<path d="M151.35 97.0811L148.548 97.1061L147.785 90.6549L150.584 90.6299L151.35 97.0811Z" fill="#FF8B7B"/>
<path d="M148.544 96.784L151.6 96.7559C151.656 96.7567 151.711 96.7753 151.756 96.809C151.801 96.8427 151.834 96.8897 151.851 96.9434L152.591 99.4157C152.611 99.4733 152.616 99.5347 152.607 99.5948C152.598 99.6549 152.574 99.7119 152.538 99.761C152.502 99.81 152.455 99.8497 152.4 99.8767C152.346 99.9036 152.285 99.9171 152.224 99.9158C151.123 99.9158 149.523 99.8565 148.145 99.869C146.526 99.869 145.804 99.9815 143.903 100C142.754 100 142.334 98.8563 142.82 98.75C144.976 98.253 146.09 98.1874 147.894 97.009C148.084 96.8726 148.31 96.7944 148.544 96.784Z" fill="#263238"/>
<path opacity="0.2" d="M147.785 90.6588L148.181 93.9844L150.979 93.9594L150.587 90.6338L147.785 90.6588Z" fill="black"/>
<path d="M147.387 97.2808C147.689 97.2754 147.99 97.2388 148.284 97.1715C148.298 97.1695 148.311 97.1628 148.321 97.1526C148.331 97.1424 148.336 97.1293 148.338 97.1153C148.339 97.1018 148.336 97.0883 148.329 97.0766C148.323 97.0648 148.312 97.0554 148.3 97.0497C148.168 96.9841 146.992 96.4251 146.668 96.6218C146.639 96.6408 146.614 96.6672 146.598 96.6984C146.581 96.7296 146.573 96.7646 146.574 96.7998C146.574 96.8599 146.587 96.9194 146.613 96.9735C146.639 97.0277 146.677 97.0752 146.725 97.1122C146.921 97.2389 147.154 97.2982 147.387 97.2808ZM148.058 97.0809C147.453 97.1871 146.992 97.1653 146.803 97.0153C146.771 96.99 146.745 96.9572 146.728 96.9196C146.711 96.882 146.703 96.8409 146.706 96.7998C146.704 96.7871 146.706 96.774 146.712 96.7623C146.717 96.7507 146.726 96.7409 146.737 96.7343C146.913 96.6281 147.578 96.8779 148.058 97.0809Z" fill="#407BFF"/>
<path d="M148.271 97.1894C148.285 97.1883 148.3 97.1829 148.311 97.1738C148.321 97.1667 148.328 97.157 148.332 97.1458C148.336 97.1347 148.336 97.1227 148.333 97.1113C148.333 97.0613 148.114 95.862 147.448 95.937C147.273 95.9557 147.223 96.0463 147.213 96.115C147.166 96.4273 147.885 97.0332 148.242 97.1831L148.271 97.1894ZM147.505 96.065C147.907 96.065 148.107 96.7178 148.176 97.002C147.806 96.7958 147.317 96.3211 147.345 96.1337C147.345 96.1337 147.345 96.0806 147.464 96.0681L147.505 96.065Z" fill="#407BFF"/>
<path d="M149.37 20.4347L149.081 20.7473L148.811 21.013C148.632 21.188 148.447 21.3537 148.262 21.5162C147.894 21.8454 147.517 22.158 147.132 22.4539C146.356 23.0688 145.538 23.6306 144.685 24.1355C144.255 24.3886 143.813 24.6293 143.364 24.8575C142.915 25.0856 142.442 25.2826 141.965 25.4826C140.987 25.8713 139.968 26.1491 138.927 26.3109L138.695 26.3453C138.544 26.3646 138.392 26.374 138.24 26.3734C137.891 26.3701 137.545 26.3023 137.22 26.1733C136.898 26.0446 136.604 25.857 136.351 25.6201C136.15 25.4291 135.975 25.2126 135.83 24.9762C135.63 24.6333 135.479 24.264 135.382 23.8792C135.306 23.5811 135.25 23.2783 135.215 22.9727C135.158 22.4444 135.142 21.9125 135.168 21.3818C135.19 20.8755 135.231 20.3879 135.287 19.9096C135.407 18.9501 135.576 18.0343 135.783 17.0966C135.99 16.1589 136.226 15.2931 136.53 14.3867L138.592 14.793C138.516 16.5496 138.432 18.35 138.488 20.0503C138.498 20.8398 138.582 21.6267 138.739 22.4008C138.77 22.5437 138.813 22.6838 138.868 22.8196C138.912 22.9259 138.965 22.9915 138.962 22.9634C138.944 22.9158 138.915 22.873 138.877 22.8383C138.792 22.7561 138.692 22.6903 138.582 22.6445C138.469 22.5973 138.35 22.5688 138.228 22.5602C138.171 22.5602 138.146 22.5602 138.111 22.5602H138.146L138.212 22.5414C138.955 22.3512 139.678 22.0895 140.371 21.76C141.095 21.4117 141.796 21.0171 142.47 20.5785C143.151 20.1284 143.822 19.6409 144.468 19.1251C144.782 18.8688 145.112 18.6 145.41 18.3281L145.868 17.9155L146.088 17.7124L146.279 17.5311L149.37 20.4347Z" fill="#FF8B7B"/>
<path d="M151.03 19.3318C150.923 16.3843 148.494 15.3592 145.451 17.3689C144.109 18.2163 142.817 19.1399 141.582 20.1351L143.549 26.43C143.549 26.43 147.315 25.2392 149.492 22.9012C150.958 21.3134 151.067 20.3351 151.03 19.3318Z" fill="#263238"/>
<path opacity="0.2" d="M147.323 20.5869C147.323 20.5869 145.507 23.1749 144.863 25.9254C145.756 25.546 146.617 25.0944 147.436 24.5752L147.323 20.5869Z" fill="black"/>
<path d="M138.489 15.7276L139.544 13.3552L136.56 12.4863C136.56 12.4863 136.048 13.6209 136.34 15.5682L138.489 15.7276Z" fill="#FF8B7B"/>
<path d="M139.859 10.5732L137.265 10.8827L136.559 12.4861L139.543 13.355L139.859 10.5732Z" fill="#FF8B7B"/>
<path d="M147.342 40.6985C147.342 40.6985 145.416 56.7828 145.203 65.3907C144.983 74.333 146.743 92.3708 146.743 92.3708L151.798 92.2646C151.798 92.2646 152.407 72.9546 153.141 64.1061C153.938 54.4605 155.946 40.5234 155.946 40.5234L147.342 40.6985Z" fill="#407BFF"/>
<path opacity="0.6" d="M147.342 40.6985C147.342 40.6985 145.416 56.7828 145.203 65.3907C144.983 74.333 146.743 92.3708 146.743 92.3708L151.798 92.2646C151.798 92.2646 152.407 72.9546 153.141 64.1061C153.938 54.4605 155.946 40.5234 155.946 40.5234L147.342 40.6985Z" fill="white"/>
<path opacity="0.2" d="M153.363 45.2521C151.104 50.2124 151.709 61.2927 152.992 66.0436C153.039 65.3528 153.09 64.6996 153.14 64.0963C153.664 57.7389 154.709 49.5217 155.371 44.6551C154.756 43.7674 154.069 43.6987 153.363 45.2521Z" fill="black"/>
<path d="M152.417 92.481L146.474 92.5998L146.035 90.6338L152.345 90.6182L152.417 92.481Z" fill="#407BFF"/>
<path d="M163.835 97.0811L161.036 97.1061L160.273 90.6549L163.072 90.6299L163.835 97.0811Z" fill="#FF8B7B"/>
<path d="M161.029 96.784L164.088 96.7559C164.144 96.7572 164.199 96.7759 164.244 96.8096C164.289 96.8432 164.322 96.89 164.339 96.9434L165.08 99.4157C165.098 99.4733 165.103 99.5345 165.094 99.5943C165.084 99.6541 165.061 99.7107 165.025 99.7596C164.989 99.8085 164.942 99.8481 164.888 99.8753C164.833 99.9025 164.773 99.9164 164.712 99.9158C163.608 99.9158 162.011 99.8565 160.633 99.869C159.014 99.869 158.289 99.9815 156.391 100C155.243 100 154.822 98.8563 155.309 98.75C157.461 98.253 158.575 98.1874 160.382 97.009C160.571 96.8727 160.796 96.7944 161.029 96.784Z" fill="#263238"/>
<path opacity="0.2" d="M160.273 90.6588L160.666 93.9844L163.468 93.9594L163.075 90.6338L160.273 90.6588Z" fill="black"/>
<path d="M159.875 97.2808C160.178 97.275 160.478 97.2384 160.773 97.1715C160.786 97.1694 160.799 97.1626 160.808 97.1523C160.817 97.1421 160.822 97.129 160.823 97.1153C160.825 97.1021 160.823 97.0887 160.817 97.0769C160.81 97.0651 160.801 97.0555 160.789 97.0497C160.654 96.9841 159.477 96.4251 159.157 96.6218C159.127 96.6403 159.102 96.6666 159.085 96.698C159.069 96.7293 159.061 96.7645 159.063 96.7998C159.062 96.8596 159.075 96.9187 159.101 96.9728C159.126 97.0269 159.164 97.0745 159.21 97.1122C159.408 97.2385 159.641 97.2977 159.875 97.2808ZM160.547 97.0809C159.941 97.1871 159.48 97.1653 159.292 97.0153C159.259 96.9897 159.233 96.9568 159.216 96.9194C159.199 96.882 159.19 96.8411 159.191 96.7998C159.19 96.7871 159.192 96.774 159.197 96.7623C159.203 96.7507 159.212 96.7409 159.223 96.7343C159.399 96.6281 160.057 96.8779 160.547 97.0809Z" fill="#407BFF"/>
<path d="M160.755 97.1894C160.764 97.189 160.774 97.1867 160.782 97.1824C160.791 97.1782 160.799 97.1722 160.805 97.1649C160.811 97.1575 160.816 97.149 160.819 97.1397C160.821 97.1305 160.822 97.1208 160.821 97.1113C160.821 97.0613 160.601 95.862 159.936 95.937C159.76 95.9557 159.71 96.0463 159.697 96.115C159.653 96.4273 160.372 97.0332 160.73 97.1831L160.755 97.1894ZM159.992 96.065C160.391 96.065 160.595 96.7178 160.664 97.002C160.293 96.7958 159.801 96.3211 159.829 96.1337C159.829 96.1337 159.829 96.0806 159.948 96.0681L159.992 96.065Z" fill="#407BFF"/>
<path d="M152.273 40.5914C152.273 40.5914 153.67 57.8979 154.689 66.437C155.747 75.32 159.23 92.3607 159.23 92.3607L164.285 92.2544C164.285 92.2544 162.898 72.907 162.361 64.0428C161.774 54.3691 161.624 40.3789 161.624 40.3789L152.273 40.5914Z" fill="#407BFF"/>
<path opacity="0.6" d="M152.273 40.5914C152.273 40.5914 153.67 57.8979 154.689 66.437C155.747 75.32 159.23 92.3607 159.23 92.3607L164.285 92.2544C164.285 92.2544 162.898 72.907 162.361 64.0428C161.774 54.3691 161.624 40.3789 161.624 40.3789L152.273 40.5914Z" fill="white"/>
<path d="M164.906 92.481L158.96 92.5998L158.523 90.6338L164.833 90.6182L164.906 92.481Z" fill="#407BFF"/>
<path d="M146.996 16.597C146.996 16.597 144.928 24.2422 147.344 40.6985C151.856 40.6016 159.434 40.4266 161.627 40.386C161.683 38.0949 159.986 26.8615 161.972 16.0313C160.543 15.7855 159.098 15.6455 157.648 15.6125C155.526 15.5353 153.402 15.5812 151.285 15.75C149.835 15.9208 148.401 16.2041 146.996 16.597Z" fill="#263238"/>
<path opacity="0.2" d="M161.103 23.7381L158.766 21.8096C158.919 23.3161 160.287 27.0074 161.009 28.8765C160.997 27.2387 161.012 25.5103 161.103 23.7381Z" fill="black"/>
<path d="M152.745 21.0287L150.194 26.0578C150.14 26.1634 150.121 26.2833 150.14 26.4003C150.159 26.5172 150.215 26.6252 150.299 26.7086C150.383 26.792 150.492 26.8466 150.61 26.8644C150.727 26.8823 150.848 26.8625 150.953 26.808L152.619 25.8953C152.71 25.8468 152.812 25.8246 152.915 25.8312C153.018 25.8378 153.116 25.873 153.2 25.9328L154.841 27.1112C154.935 27.1795 155.049 27.2157 155.165 27.2146C155.282 27.2135 155.395 27.175 155.488 27.1049C155.581 27.0348 155.649 26.9368 155.681 26.8253C155.714 26.7139 155.71 26.5949 155.669 26.486L153.752 21.1163C153.719 21.0141 153.656 20.924 153.572 20.8572C153.487 20.7903 153.385 20.7497 153.277 20.7404C153.17 20.731 153.062 20.7534 152.968 20.8047C152.873 20.856 152.795 20.9339 152.745 21.0287Z" fill="white"/>
<path d="M156.863 8.47363C156.505 10.524 156.185 14.2685 157.647 15.5969C157.647 15.5969 157.22 17.4535 153.327 18.0973C150.71 17.2597 151.284 15.7469 151.284 15.7469C153.556 15.153 153.458 13.4683 153.028 11.893L156.863 8.47363Z" fill="#FF8B7B"/>
<path opacity="0.2" d="M155.299 9.86523L153.027 11.8781C153.133 12.2451 153.207 12.6205 153.247 13.0002C154.119 12.8564 155.296 11.875 155.368 10.9654C155.413 10.5976 155.389 10.2247 155.299 9.86523Z" fill="black"/>
<path d="M158.106 5.95154C157.35 8.61455 157.046 10.2117 155.376 11.3026C152.866 12.9404 149.788 10.99 149.728 8.14883C149.672 5.59835 150.914 1.66947 153.807 1.16937C154.443 1.05708 155.097 1.10827 155.707 1.31809C156.317 1.52791 156.863 1.88942 157.293 2.36835C157.724 2.84728 158.024 3.42777 158.167 4.05483C158.309 4.68189 158.288 5.33474 158.106 5.95154Z" fill="#FF8B7B"/>
<path d="M156.498 7.5821C156.147 6.73194 155.892 3.9314 157.358 3.24377C158.823 2.55614 160.345 4.23458 159.959 5.02849C159.366 6.25997 157.314 9.55123 156.498 7.5821Z" fill="#263238"/>
<path d="M157.375 4.23201C157.014 3.29433 152.712 2.76298 152.11 1.75342C151.395 0.553187 154.328 0.409408 156.346 1.0189C158.119 1.5565 159.302 2.07535 159.095 3.3881C158.978 4.13199 157.375 4.23201 157.375 4.23201Z" fill="#263238"/>
<path d="M158.309 3.26596C158.309 3.26596 159.25 3.52206 159.765 2.83496C159.601 3.51581 158.801 4.20291 158.309 3.26596Z" fill="#263238"/>
<path d="M153.999 0.374982C152.707 -0.625209 150.946 0.550017 151.113 1.85339C151.279 3.15677 155.637 4.14758 155.637 4.14758C155.637 4.14758 155.716 1.70336 153.999 0.374982Z" fill="#263238"/>
<path d="M151.117 1.8594C151.315 2.77207 151.983 3.48784 153.336 4.01919C152.553 3.44265 151.96 2.64737 151.632 1.73438L151.117 1.8594Z" fill="#263238"/>
<path d="M153.831 5.81531C153.784 6.03705 153.631 6.19009 153.486 6.15886C153.342 6.12762 153.263 5.92149 153.311 5.70287C153.358 5.48425 153.514 5.33121 153.659 5.36244C153.803 5.39368 153.882 5.60918 153.831 5.81531Z" fill="#263238"/>
<path d="M151.342 5.27865C151.292 5.49727 151.138 5.65031 150.994 5.61907C150.85 5.58784 150.771 5.38484 150.818 5.16621C150.865 4.94759 151.022 4.79455 151.167 4.82266C151.311 4.85077 151.389 5.06002 151.342 5.27865Z" fill="#263238"/>
<path d="M152.106 5.55957C151.696 6.17442 151.203 6.72981 150.641 7.20989C150.954 7.65685 151.654 7.63497 151.654 7.63497L152.106 5.55957Z" fill="#FF5652"/>
<path d="M152.167 8.38261C152.462 8.45545 152.77 8.45628 153.065 8.38504C153.36 8.3138 153.633 8.1726 153.862 7.97347C153.868 7.96736 153.873 7.96008 153.876 7.95203C153.88 7.94399 153.881 7.93535 153.881 7.92662C153.881 7.9179 153.88 7.90926 153.876 7.90121C153.873 7.89317 153.868 7.88588 153.862 7.87978C153.849 7.86792 153.832 7.86133 153.815 7.86133C153.797 7.86133 153.78 7.86792 153.768 7.87978C153.553 8.05925 153.3 8.18634 153.027 8.25088C152.755 8.31541 152.471 8.3156 152.199 8.25143C152.181 8.24771 152.163 8.25104 152.148 8.26071C152.133 8.27037 152.122 8.28557 152.119 8.30297C152.115 8.32036 152.118 8.33852 152.128 8.35346C152.138 8.3684 152.153 8.37888 152.17 8.38261H152.167Z" fill="#263238"/>
<path d="M154.755 5.17791C154.779 5.1827 154.804 5.18086 154.828 5.17259C154.851 5.16432 154.871 5.14993 154.887 5.13097C154.902 5.11201 154.912 5.0892 154.915 5.065C154.919 5.0408 154.916 5.01613 154.906 4.99364C154.821 4.80128 154.692 4.63181 154.528 4.49927C154.364 4.36674 154.171 4.27497 153.965 4.23158C153.93 4.22709 153.895 4.23633 153.866 4.25733C153.838 4.27833 153.82 4.30943 153.814 4.34401C153.811 4.36103 153.812 4.37842 153.816 4.39516C153.82 4.41191 153.828 4.42769 153.838 4.44162C153.848 4.45554 153.861 4.46732 153.876 4.4763C153.89 4.48527 153.907 4.49126 153.924 4.49393C154.087 4.52954 154.239 4.6034 154.367 4.70935C154.495 4.8153 154.596 4.95025 154.661 5.10295C154.67 5.12185 154.683 5.13846 154.699 5.15147C154.716 5.16448 154.735 5.17353 154.755 5.17791Z" fill="#263238"/>
<path d="M150.43 4.18862C150.455 4.1954 150.481 4.19455 150.505 4.18618C150.529 4.17781 150.55 4.16232 150.565 4.14178C150.664 4.00911 150.793 3.90154 150.942 3.82776C151.091 3.75398 151.255 3.71605 151.421 3.71702C151.456 3.72034 151.491 3.70969 151.518 3.68744C151.545 3.66518 151.562 3.63313 151.566 3.59834C151.569 3.56355 151.558 3.52887 151.536 3.50193C151.514 3.47499 151.481 3.45799 151.447 3.45467C151.236 3.44846 151.027 3.49291 150.838 3.58426C150.648 3.67561 150.483 3.81115 150.358 3.97937C150.347 3.99273 150.338 4.0082 150.333 4.02485C150.328 4.04149 150.327 4.05896 150.329 4.07619C150.331 4.09343 150.337 4.11006 150.345 4.1251C150.354 4.14013 150.366 4.15324 150.38 4.16364C150.394 4.17615 150.411 4.18476 150.43 4.18862Z" fill="#263238"/>
<path d="M162.656 18.1621C163.227 19.156 163.704 20.1187 164.2 21.1095C164.695 22.1004 165.141 23.0974 165.565 24.1164C165.988 25.1353 166.399 26.1699 166.757 27.242C167.129 28.3111 167.443 29.3994 167.698 30.502L167.89 31.3553C167.973 31.756 168.009 32.1651 167.996 32.5742C167.97 33.3344 167.8 34.0828 167.497 34.7809C166.965 35.9572 166.207 37.0189 165.266 37.9065C164.428 38.7133 163.514 39.4385 162.537 40.0725C162.063 40.3851 161.573 40.6727 161.081 40.9477C160.588 41.2228 160.099 41.4759 159.55 41.7166L158.508 39.9006C158.887 39.5881 159.305 39.2755 159.694 38.938C160.083 38.6004 160.463 38.2566 160.839 37.9128C161.566 37.2409 162.241 36.5147 162.857 35.7405C163.405 35.0765 163.83 34.3209 164.112 33.5088C164.209 33.2062 164.247 32.888 164.225 32.5711C164.216 32.4437 164.191 32.3178 164.153 32.196L163.939 31.4959C163.305 29.5539 162.551 27.653 161.68 25.8042C161.25 24.8665 160.792 23.9288 160.334 22.9912C159.876 22.0535 159.393 21.1158 158.925 20.225L162.656 18.1621Z" fill="#FF8B7B"/>
<path d="M162.077 16.0467C164.694 16.6093 166.514 23.4106 166.514 23.4106L161.835 27.6395C160.348 25.9911 159.178 24.0839 158.384 22.0134C157.145 18.6096 159.278 15.4403 162.077 16.0467Z" fill="#263238"/>
<path d="M159.075 39.5791L156.066 39.6104L157.949 42.6328C157.949 42.6328 160.092 42.1046 160.284 41.0325L159.075 39.5791Z" fill="#FF8B7B"/>
<path d="M154.191 41.3951L155.851 43.8205L157.932 42.6328L156.065 39.6104L154.191 41.3951Z" fill="#FF8B7B"/>
<path d="M158.931 8.38912C158.597 9.00185 158.033 9.45803 157.362 9.65812C156.471 9.91754 156.016 9.12677 156.254 8.28598C156.471 7.52958 157.196 6.48251 158.087 6.59191C158.978 6.7013 159.329 7.63586 158.931 8.38912Z" fill="#FF8B7B"/>
</svg>
