<svg width="13" height="16" viewBox="0 0 13 16" fill="none" xmlns="http://www.w3.org/2000/svg">
<path d="M1.5 15.5C1.0875 15.5 0.73425 15.3533 0.44025 15.0597C0.14675 14.7657 0 14.4125 0 14V3.5H1.5V14H9.75V15.5H1.5ZM4.5 12.5C4.0875 12.5 3.7345 12.3533 3.441 12.0597C3.147 11.7657 3 11.4125 3 11V2C3 1.5875 3.147 1.23425 3.441 0.94025C3.7345 0.64675 4.0875 0.5 4.5 0.5H11.25C11.6625 0.5 12.0157 0.64675 12.3097 0.94025C12.6033 1.23425 12.75 1.5875 12.75 2V11C12.75 11.4125 12.6033 11.7657 12.3097 12.0597C12.0157 12.3533 11.6625 12.5 11.25 12.5H4.5ZM4.5 11H11.25V2H4.5V11Z" fill="#1F40DA"/>
</svg>
