<svg width="16" height="17" viewBox="0 0 16 17" fill="none" xmlns="http://www.w3.org/2000/svg">
<path d="M8 4.5C7.77333 4.5 7.5832 4.5768 7.4296 4.7304C7.276 4.884 7.19947 5.07387 7.2 5.3L7.2 8.52C7.2 8.74667 7.2768 8.93333 7.4304 9.08C7.584 9.22667 7.77387 9.3 8 9.3C8.22667 9.3 8.4168 9.2232 8.5704 9.0696C8.724 8.916 8.80053 8.72613 8.8 8.5L8.8 5.28C8.8 5.05333 8.7232 4.86667 8.5696 4.72C8.416 4.57333 8.22613 4.5 8 4.5ZM8 10.9C7.77333 10.9 7.5832 10.9768 7.4296 11.1304C7.276 11.284 7.19947 11.4739 7.2 11.7C7.2 11.9267 7.2768 12.1168 7.4304 12.2704C7.584 12.424 7.77387 12.5005 8 12.5C8.22667 12.5 8.4168 12.4232 8.5704 12.2696C8.724 12.116 8.80053 11.9261 8.8 11.7C8.8 11.4733 8.7232 11.2832 8.5696 11.1296C8.416 10.976 8.22613 10.8995 8 10.9ZM8 0.5C9.10667 0.5 10.1467 0.710133 11.12 1.1304C12.0933 1.55067 12.94 2.12053 13.66 2.84C14.38 3.56 14.9499 4.40667 15.3696 5.38C15.7893 6.35333 15.9995 7.39333 16 8.5C16 9.60667 15.7899 10.6467 15.3696 11.62C14.9493 12.5933 14.3795 13.44 13.66 14.16C12.94 14.88 12.0933 15.4499 11.12 15.8696C10.1467 16.2893 9.10667 16.4995 8 16.5C6.89333 16.5 5.85333 16.2899 4.88 15.8696C3.90667 15.4493 3.06 14.8795 2.34 14.16C1.62 13.44 1.04987 12.5933 0.629602 11.62C0.209335 10.6467 -0.000531548 9.60667 1.65306e-06 8.5C1.7498e-06 7.39333 0.210134 6.35333 0.630402 5.38C1.05067 4.40667 1.62054 3.56 2.34 2.84C3.06 2.12 3.90667 1.54987 4.88 1.1296C5.85334 0.709333 6.89333 0.499467 8 0.5ZM8 2.1C6.22667 2.1 4.71653 2.7232 3.4696 3.9696C2.22267 5.216 1.59947 6.72613 1.6 8.5C1.6 10.2733 2.2232 11.7835 3.4696 13.0304C4.716 14.2773 6.22613 14.9005 8 14.9C9.77333 14.9 11.2835 14.2768 12.5304 13.0304C13.7773 11.784 14.4005 10.2739 14.4 8.5C14.4 6.72667 13.7768 5.21653 12.5304 3.9696C11.284 2.72267 9.77387 2.09947 8 2.1Z" fill="#3A65FD"/>
</svg>
