<svg width="22" height="19" viewBox="0 0 22 19" fill="none" xmlns="http://www.w3.org/2000/svg">
<path d="M13.5 13.667V15.7503C13.5 16.3029 13.2805 16.8328 12.8898 17.2235C12.4991 17.6142 11.9692 17.8337 11.4167 17.8337H3.08333C2.5308 17.8337 2.0009 17.6142 1.61019 17.2235C1.21949 16.8328 1 16.3029 1 15.7503V3.25033C1 2.69779 1.21949 2.16789 1.61019 1.77719C2.0009 1.38649 2.5308 1.16699 3.08333 1.16699H11C12.1505 1.16699 13.5 2.0998 13.5 3.25033V5.33366" stroke="#1F40DA" stroke-width="2" stroke-linecap="round" stroke-linejoin="round"/>
<path d="M16.832 13.6673L20.9987 9.50065L16.832 5.33398" stroke="#1F40DA" stroke-width="2" stroke-linecap="round" stroke-linejoin="round"/>
<path d="M6.83203 9.5H20.1654" stroke="#1F40DA" stroke-width="2" stroke-linecap="round" stroke-linejoin="round"/>
</svg>
