<svg viewBox="0 0 710 1024" fill="none" xmlns="http://www.w3.org/2000/svg">
  <g clip-path="url(#clip0_3680_32650)">
    <mask id="mask0_3680_32650" style="mask-type:luminance" maskUnits="userSpaceOnUse" x="0" y="0"
      width="710" height="1024">
      <path d="M710 0H0V1024H710V0Z" fill="white" />
    </mask>
    <g mask="url(#mask0_3680_32650)">
      <path d="M710 0H0V1024H710V0Z" fill="white" />
      <path d="M710 0H0V1024H710V0Z" fill="#F7F8FF" />
      <path
        d="M536.729 439.88C458.044 379.387 347.885 328.742 307.231 234.487C267.888 140.231 296.739 2.36436 374.113 -112.994C452.798 -228.352 581.317 -322.607 720.327 -333.862C858.026 -345.116 1006.22 -271.963 1099.33 -156.605C1192.44 -39.8398 1230.47 119.129 1202.93 248.555C1175.39 377.98 1083.59 479.27 990.479 538.356C897.368 598.849 802.946 618.544 733.441 593.221C662.625 567.899 615.414 500.372 536.729 439.88Z"
        fill="#EEF1FE" />
      <path
        d="M614.083 402.075C538.471 343.128 432.613 293.778 393.546 201.931C355.74 110.084 383.465 -24.2584 457.817 -136.668C533.43 -249.077 656.931 -340.924 790.513 -351.891C922.835 -362.858 1065.24 -291.574 1154.71 -179.164C1244.19 -65.3839 1280.74 89.5218 1254.27 215.639C1227.81 341.757 1139.59 440.458 1050.12 498.034C960.642 556.98 869.906 576.172 803.115 551.497C735.064 526.822 689.696 461.021 614.083 402.075Z"
        fill="#E5ECFF" />
      <g filter="url(#filter0_d_3680_32650)">
        <path
          d="M610.396 428.438C618.263 411.442 612.024 399.33 592.791 399.33C580.733 399.33 565.772 404.091 551.218 411.849C549.577 407.428 544.938 404.783 537.492 404.783C524.376 404.783 506.296 412.975 492.108 424.518C488.677 421.941 483.712 420.367 477.324 420.11C464.764 419.594 449.559 424.287 436.348 431.951C435.209 430.676 433.242 429.862 430.529 429.753C423.3 429.455 413.507 434.202 408.638 440.346C408.339 440.74 408.068 441.106 407.797 441.472H422.825H434.775H476.307H496.747H512.644H537.126H541.575H602.299H620.203C626.876 435.45 619.47 428.736 610.396 428.438Z"
          fill="white" />
      </g>
      <g filter="url(#filter1_d_3680_32650)">
        <path
          d="M311.271 383.014C310.742 382.959 310.213 382.932 309.67 382.932C310.172 377.371 307.283 373.818 301.139 373.818C296.703 373.818 291.251 375.676 285.703 378.809C287.29 368.012 282.204 361 270.688 361C261.397 361 249.624 365.557 238.014 373.004C236.996 368.772 233.578 366.236 227.814 366.236C217.709 366.236 203.345 374.075 191.83 385.143C191.83 385.143 191.83 385.157 191.816 385.143C189.334 382.675 185.59 381.156 180.68 380.911C171.064 380.41 159.114 384.913 148.521 392.264C147.721 391.03 146.242 390.257 144.154 390.148C138.891 389.877 131.634 393.932 127.43 399.344H139.705H148.033H180.043H195.031H208.377H227.339H263.161H277.118H282.082H301.953H319.734C324.251 391.125 320.657 383.936 311.271 383.014Z"
          fill="white" />
      </g>
      <path
        d="M260.676 746.986C305.329 788.581 369.656 825.721 389.371 886.245C408.289 946.701 383.392 1030.61 330.172 1098.04C276.153 1165.39 192.938 1217.07 107.76 1216.77C23.3796 1216.54 -62.8882 1163.47 -113.396 1087.13C-163.829 1009.91 -178.502 909.431 -154.852 830.683C-131.203 751.935 -69.9553 693.98 -10.1568 662.242C49.7167 629.632 108.215 622.368 149.156 641.692C190.895 661.085 216.023 705.392 260.676 746.986Z"
        fill="#EEF1FE" />
      <path
        d="M225.585 802.992C267.794 842.13 328.591 877.085 347.243 934.017C365.141 990.885 341.648 1069.79 291.385 1133.19C240.368 1196.52 161.758 1245.09 81.2712 1244.78C1.53943 1244.53 -79.9963 1194.58 -127.75 1122.76C-175.434 1050.12 -189.337 955.608 -167.021 881.553C-144.704 807.497 -86.8526 753.013 -30.3603 723.185C26.2024 692.538 81.4756 685.728 120.169 703.918C159.615 722.174 183.376 763.855 225.585 802.992Z"
        fill="#E5ECFF" />
      <path
        d="M241.5 732C244.538 732 247 729.538 247 726.5C247 723.462 244.538 721 241.5 721C238.462 721 236 723.462 236 726.5C236 729.538 238.462 732 241.5 732Z"
        fill="#E6E9FC" />
      <mask id="mask1_3680_32650" style="mask-type:luminance" maskUnits="userSpaceOnUse" x="204"
        y="232" width="302" height="56">
        <path d="M506 232H204V288H506V232Z" fill="white" />
      </mask>
      <g mask="url(#mask1_3680_32650)">
        <path
          d="M221.645 286.002L204.941 235.602H214.661L229.565 281.178H224.741L240.221 235.602H248.861L263.909 281.178H259.229L274.493 235.602H283.421L266.717 286.002H256.781L243.029 244.89H245.621L231.653 286.002H221.645Z"
          fill="#1D1A4D" />
        <path
          d="M385.307 286.506C381.083 286.506 377.819 285.426 375.515 283.266C373.211 281.058 372.059 277.818 372.059 273.546V239.058H381.059V273.33C381.059 275.154 381.515 276.57 382.427 277.578C383.387 278.586 384.707 279.09 386.387 279.09C388.403 279.09 390.083 278.562 391.427 277.506L393.947 283.914C392.891 284.778 391.595 285.426 390.059 285.858C388.523 286.29 386.939 286.506 385.307 286.506ZM365.723 255.042V247.842H391.355V255.042H365.723Z"
          fill="#1D1A4D" />
        <path
          d="M425.037 286V278.224L424.533 276.568V262.96C424.533 260.32 423.741 258.28 422.157 256.84C420.573 255.352 418.173 254.608 414.957 254.608C412.797 254.608 410.661 254.944 408.549 255.616C406.485 256.288 404.733 257.224 403.293 258.424L399.765 251.872C401.829 250.288 404.277 249.112 407.109 248.344C409.989 247.528 412.965 247.12 416.037 247.12C421.605 247.12 425.901 248.464 428.925 251.152C431.997 253.792 433.533 257.896 433.533 263.464V286H425.037ZM412.941 286.504C410.061 286.504 407.541 286.024 405.381 285.064C403.221 284.056 401.541 282.688 400.341 280.96C399.189 279.184 398.613 277.192 398.613 274.984C398.613 272.824 399.117 270.88 400.125 269.152C401.181 267.424 402.885 266.056 405.237 265.048C407.589 264.04 410.709 263.536 414.597 263.536H425.757V269.512H415.245C412.173 269.512 410.109 270.016 409.053 271.024C407.997 271.984 407.469 273.184 407.469 274.624C407.469 276.256 408.117 277.552 409.413 278.512C410.709 279.472 412.509 279.952 414.813 279.952C417.021 279.952 418.989 279.448 420.717 278.44C422.493 277.432 423.765 275.944 424.533 273.976L426.045 279.376C425.181 281.632 423.621 283.384 421.365 284.632C419.157 285.88 416.349 286.504 412.941 286.504Z"
          fill="#1D1A4D" />
        <path d="M445.082 286V232.576H454.082V286H445.082Z" fill="#1D1A4D" />
        <path
          d="M473.239 277.432L473.455 266.128L493.543 247.552H504.343L487.279 264.688L482.527 268.648L473.239 277.432ZM465.895 286V232.576H474.895V286H465.895ZM494.911 286L480.871 268.648L486.559 261.448L505.855 286H494.911Z"
          fill="#1D1A4D" />
        <path
          d="M285.238 278.172C291.224 279.491 297.21 279.291 302.178 277.337M302.178 277.337C309.259 274.553 314.273 268.207 314.273 257.621C314.273 253.21 311.854 246.329 306.208 246.329C303.049 246.329 298.726 248.929 297.336 256.814C295.738 265.887 298.48 273.245 302.178 277.337ZM302.178 277.337C303.162 278.426 304.213 279.284 305.269 279.881C314.273 284.976 321.829 283.916 327.178 283.43C330.35 283.141 336.01 281.057 340.59 277.313M340.59 277.313C343.733 274.742 346.368 271.39 347.341 267.299C349.068 260.04 347.518 246.333 340.082 246.33C332.824 246.327 329.739 258.817 332.824 267.299C334.361 271.525 336.63 274.918 340.59 277.313ZM340.59 277.313C344.943 279.945 351.339 281.37 361.052 281.37"
          stroke="#1F40DA" stroke-width="8" stroke-linecap="square" />
      </g>
      <g filter="url(#filter2_d_3680_32650)">
        <path
          d="M608.87 700.86C600.267 681.289 583.741 664.957 563.892 656.921C543.218 648.549 519.477 651.594 497.7 648.792C478.787 646.357 465.142 637.914 453.847 622.902C443.026 608.519 433.323 592.589 415.633 585.935C401.653 580.676 385.76 582.136 371.865 587.613C346.265 597.709 326.926 619.171 310.64 640.556C295.771 660.08 283.643 681.457 256.14 682.153C228.619 682.85 202.419 667.152 174.712 671.311C138.091 676.809 107.589 707.297 101.198 743.589C95.2081 777.604 110.238 810.598 136.059 829.98H579.889C612.426 795.465 629.501 747.784 608.87 700.86Z"
          fill="white" />
      </g>
      <path
        d="M207.657 829.984H208.878C217.356 820.662 224 809.356 228.22 796.804C235.053 776.487 234.767 755.164 227.409 736.764C223.69 727.464 218.324 718.799 213.129 710.417C207.864 701.917 202.419 693.128 198.725 683.71C197.197 679.815 196.068 675.635 195.39 671.368C195.083 671.329 194.776 671.297 194.473 671.258C195.155 675.677 196.315 680.008 197.896 684.035C201.62 693.527 207.089 702.353 212.376 710.885C217.549 719.231 222.897 727.867 226.585 737.092C233.864 755.296 234.146 776.398 227.377 796.518C223.1 809.224 216.317 820.641 207.657 829.984Z"
        fill="white" />
      <path
        d="M138.298 733.461C142.239 749.598 140.483 767.023 133.471 781.271C128.88 790.603 122.251 799.053 114.086 806.307C114.25 806.561 114.414 806.811 114.579 807.06C122.875 799.71 129.612 791.139 134.271 781.664C141.371 767.231 143.153 749.583 139.162 733.247C136.045 720.484 129.776 709.675 121.112 701.854C120.919 702.082 120.726 702.311 120.537 702.539C129.055 710.243 135.224 720.888 138.298 733.461Z"
        fill="white" />
      <g filter="url(#filter3_d_3680_32650)">
        <path
          d="M340.297 529.061C348.072 537.005 351.556 550.392 347.269 562.73C343.117 574.679 334.017 584.575 323.086 590.94C314.289 596.06 302.815 598.883 294.165 593.521C287.7 589.516 284.347 581.655 284.162 574.054C283.976 566.45 286.532 559.042 289.692 552.124C294.147 542.374 300.141 532.917 309.073 526.987C321.383 518.812 332.821 521.422 340.297 529.061Z"
          fill="white" />
      </g>
      <path
        d="M565.01 458.014C562.344 449.129 557.656 440.971 550.946 433.514C544.222 426.056 535.051 419.898 523.434 415.029C511.817 410.159 497.057 407.725 479.154 407.725C464.871 407.725 450.316 409.656 435.488 413.519C420.645 417.395 407.77 422.907 396.852 430.072L411.066 469.197L403.448 475.385L414.497 478.641C425.402 472.918 435.339 468.762 444.304 466.174C453.256 463.6 462.769 462.312 472.855 462.312C482.927 462.312 490.554 464.746 495.733 469.616C500.912 474.499 503.495 480.362 503.495 487.247C503.495 495.558 500.83 502.933 495.528 509.384C490.198 515.835 484.321 522.354 477.883 528.944C473.414 533.521 469.068 538.249 464.871 543.118C460.676 548.001 456.958 553.221 453.747 558.818C450.522 564.401 447.938 570.417 445.984 576.868C444.017 583.319 443.047 590.552 443.047 598.57C443.047 601.158 443.102 604.236 443.252 607.819C443.277 608.481 443.312 609.124 443.35 609.76H432.906L444.304 617.487H499.725C499.437 615.767 499.3 613.764 499.3 611.472C499.3 609.176 499.3 607.456 499.3 606.309C499.3 601.44 500.284 596.641 502.238 591.911C504.192 587.181 506.652 582.676 509.592 578.367C512.529 574.072 515.811 569.985 519.458 566.125C523.094 562.248 526.593 558.596 529.955 555.155C534.424 550.578 539.043 545.711 543.8 540.546C548.556 535.384 552.765 529.954 556.401 524.217C560.037 518.48 563.042 512.254 565.421 505.51C567.799 498.78 569.002 491.405 569.002 483.373C568.999 475.35 567.66 466.9 565.01 458.014Z"
        fill="#292F69" />
      <path
        d="M461.044 459.705C451.086 459.705 441.693 460.947 432.855 463.433C424.002 465.933 414.192 469.944 403.422 475.471L386 428.576C396.782 421.659 409.495 416.335 424.15 412.593C438.793 408.865 453.163 407 467.265 407C484.942 407 499.519 409.351 510.989 414.052C522.459 418.753 531.514 424.698 538.155 431.898C544.781 439.099 549.408 446.975 552.04 455.554C554.658 464.134 555.98 472.293 555.98 480.035C555.98 487.79 554.792 494.911 552.446 501.408C550.097 507.919 547.128 513.932 543.539 519.471C539.949 525.009 535.792 530.251 531.097 535.237C526.402 540.223 521.839 544.924 517.426 549.341C514.106 552.665 510.651 556.19 507.062 559.934C503.459 563.662 500.221 567.607 497.318 571.756C494.417 575.917 491.987 580.266 490.057 584.832C488.128 589.398 487.157 594.033 487.157 598.733C487.157 599.841 487.157 601.503 487.157 603.719C487.157 605.936 487.291 607.868 487.574 609.53H432.852C432.284 606.76 431.949 603.653 431.812 600.195C431.664 596.736 431.609 593.763 431.609 591.264C431.609 583.522 432.567 576.538 434.51 570.308C436.439 564.08 438.991 558.27 442.174 552.88C445.346 547.476 449.015 542.438 453.159 537.721C457.302 533.02 461.594 528.452 466.006 524.034C472.362 517.672 478.165 511.375 483.428 505.147C488.664 498.919 491.296 491.799 491.296 483.774C491.296 477.126 488.746 471.467 483.631 466.752C478.521 462.056 470.991 459.705 461.044 459.705Z"
        fill="#9AB0FF" />
      <path
        d="M503.18 671.559C503.18 681.543 499.927 689.248 493.42 694.682C486.916 700.129 479.562 702.84 471.352 702.84C463.131 702.84 455.779 700.129 449.275 694.682C442.78 689.248 439.527 681.543 439.527 671.559C439.527 661.585 442.78 653.881 449.275 648.435C459.289 640.038 474.104 638.168 485.828 644.061C496.232 649.293 503.18 659.911 503.18 671.559Z"
        fill="#292F69" />
      <path
        d="M493.051 671.375C493.051 681.418 489.762 689.167 483.181 694.633C476.603 700.111 469.166 702.839 460.862 702.839C452.548 702.839 445.113 700.111 438.534 694.633C431.965 689.167 428.676 681.418 428.676 671.375C428.676 661.343 431.965 653.594 438.534 648.116C445.113 642.649 452.55 639.91 460.862 639.91C469.166 639.91 476.601 642.649 483.181 648.116C489.762 653.596 493.051 661.345 493.051 671.375Z"
        fill="#9AB0FF" />
      <g filter="url(#filter4_d_3680_32650)">
        <path
          d="M234.2 560.694C235.15 555.626 231.812 550.748 226.744 549.798C221.676 548.849 216.798 552.187 215.849 557.255C214.899 562.322 218.237 567.201 223.305 568.15C228.373 569.1 233.251 565.762 234.2 560.694Z"
          fill="white" />
      </g>
      <g filter="url(#filter5_d_3680_32650)">
        <path
          d="M238.66 578.241C239.194 575.39 237.3 572.644 234.43 572.106C231.56 571.568 228.8 573.443 228.266 576.293C227.732 579.144 229.625 581.891 232.496 582.429C235.366 582.967 238.125 581.092 238.66 578.241Z"
          fill="white" />
      </g>
      <g filter="url(#filter6_d_3680_32650)">
        <path
          d="M227.97 537.972C242.324 523.618 242.324 500.345 227.97 485.991C213.616 471.637 190.343 471.637 175.989 485.991C161.634 500.345 161.634 523.618 175.989 537.972C190.343 552.326 213.616 552.326 227.97 537.972Z"
          fill="white" />
      </g>
      <path
        d="M188 515C189.657 515 191 513.657 191 512C191 510.343 189.657 509 188 509C186.343 509 185 510.343 185 512C185 513.657 186.343 515 188 515Z"
        fill="#102048" />
      <path
        d="M202.113 515C203.77 515 205.113 513.657 205.113 512C205.113 510.343 203.77 509 202.113 509C200.456 509 199.113 510.343 199.113 512C199.113 513.657 200.456 515 202.113 515Z"
        fill="#102048" />
      <path
        d="M216.227 515C217.883 515 219.227 513.657 219.227 512C219.227 510.343 217.883 509 216.227 509C214.57 509 213.227 510.343 213.227 512C213.227 513.657 214.57 515 216.227 515Z"
        fill="#102048" />
      <path
        d="M175.235 811.413L178.67 824.654C179.566 828.106 182.904 830.441 186.598 830.187C197.858 829.424 221.256 826.664 234.686 816.764L230.87 797.683C212.406 796.64 195.141 797.668 180.187 802.698C176.438 803.962 174.275 807.714 175.235 811.413Z"
        fill="#102048" />
      <path
        d="M196.753 821.952C196.557 821.952 196.378 821.823 196.325 821.627L191.712 805.116C191.645 804.876 191.784 804.634 192.023 804.566C192.262 804.501 192.509 804.637 192.573 804.876L197.185 821.388C197.253 821.627 197.114 821.87 196.875 821.937C196.835 821.948 196.796 821.952 196.753 821.952Z"
        fill="white" />
      <path
        d="M206.718 819.721C206.522 819.721 206.343 819.593 206.29 819.397L201.677 802.885C201.609 802.646 201.749 802.403 201.988 802.336C202.227 802.268 202.473 802.407 202.538 802.646L207.15 819.157C207.218 819.397 207.079 819.639 206.84 819.707C206.8 819.718 206.757 819.721 206.718 819.721Z"
        fill="white" />
      <path
        d="M218.29 739.842L175.379 752.579L207.248 796.244L253.001 799.882L316.108 773.2L292.125 737.114L218.29 739.842Z"
        fill="#FCB966" />
      <path
        d="M271.197 745.908C365.438 718.012 380.582 801.3 233.544 816.462C228.35 810.618 222.281 800.479 219.871 792L297.519 756.118L271.197 745.908Z"
        fill="#FCB966" />
      <path
        d="M275.202 805.601C270.793 804.191 266.57 801.402 266.57 801.402L251.426 806.154L254.896 822.63L270.629 825.825C275.423 817.057 275.702 809.856 275.202 805.601Z"
        fill="#F0D7C9" />
      <path
        d="M220.206 792.578L219.535 791.421C235.736 782.007 277.226 759.391 312.58 752.719L312.83 754.036C277.676 760.666 236.343 783.199 220.206 792.578Z"
        fill="#D68D83" />
      <path
        d="M218.291 739.843C130.573 723.164 107.853 807.466 254.894 822.627C260.089 816.783 264.158 809.879 266.568 801.4C243.981 786.288 218.727 771.923 191.052 758.239L218.291 739.843Z"
        fill="#FCB966" />
      <path
        d="M266.212 801.963C262.039 799.307 257.691 796.501 253.089 793.527C229.98 778.608 203.791 761.697 181.539 752.054L182.071 750.826C204.423 760.512 230.662 777.455 253.814 792.402C258.415 795.373 262.76 798.179 266.93 800.835L266.212 801.963Z"
        fill="#D68D83" />
      <path
        d="M153.937 781.639L152.766 780.993C156.057 775.031 161.334 771.011 168.441 769.044L168.798 770.333C161.951 772.228 157.092 775.927 153.937 781.639Z"
        fill="#D68D83" />
      <path
        d="M337.014 776.568C333.858 770.856 328.996 767.157 322.152 765.261L322.509 763.973C329.617 765.94 334.894 769.963 338.185 775.921L337.014 776.568Z"
        fill="#D68D83" />
      <path
        d="M246.681 821.887L245.703 820.973C252.722 813.459 257.031 805.526 258.88 796.719L260.19 796.994C258.287 806.044 253.871 814.187 246.681 821.887Z"
        fill="#D68D83" />
      <path
        d="M318.949 800.693C307.71 793.749 285.923 805.748 280.454 806.355C278.858 806.533 277.016 806.184 275.202 805.602C275.702 809.861 275.423 817.058 270.629 825.826L273.303 826.368C273.303 826.368 291.778 833.141 311.377 829.199C329.466 825.558 327.785 806.151 318.949 800.693Z"
        fill="#102048" />
      <path
        d="M303.628 823.406C303.585 823.406 303.539 823.399 303.493 823.385C303.257 823.31 303.128 823.06 303.2 822.824C304.535 818.597 305.117 810.279 301.251 804.692C301.111 804.489 301.161 804.21 301.365 804.071C301.568 803.932 301.847 803.982 301.986 804.185C306.034 810.036 305.442 818.697 304.053 823.092C303.992 823.281 303.817 823.406 303.628 823.406Z"
        fill="white" />
      <path
        d="M294.816 825.077C294.773 825.077 294.726 825.07 294.68 825.056C294.444 824.981 294.316 824.731 294.387 824.495C295.722 820.268 296.304 811.95 292.438 806.363C292.299 806.16 292.349 805.881 292.552 805.742C292.756 805.603 293.034 805.653 293.174 805.856C297.222 811.707 296.629 820.368 295.241 824.763C295.183 824.956 295.005 825.077 294.816 825.077Z"
        fill="white" />
      <path
        d="M202.77 631.15C202.77 631.15 224.861 612.364 224.043 608.794C223.458 606.242 217.2 609.983 217.2 609.983C217.2 609.983 225.975 599.569 225.528 598.306C224.732 596.046 218.66 600.258 218.66 600.258C218.66 600.258 222.762 594.354 220.802 593.39C218.842 592.426 214.565 596.067 214.565 596.067C214.565 596.067 217.064 592.79 215.889 591.93C214.715 591.069 209.653 594.607 209.653 594.607C209.653 594.607 211.47 590.473 207.61 592.04C203.751 593.607 176.684 618.448 176.684 618.448L202.77 631.15Z"
        fill="#F0D7C9" />
      <path
        d="M211.809 608.869C211.701 608.869 211.594 608.829 211.509 608.751C207.717 605.284 206.043 604.446 201.863 603.157C201.627 603.085 201.495 602.835 201.566 602.6C201.638 602.364 201.888 602.232 202.123 602.304C206.457 603.635 208.189 604.506 212.112 608.091C212.294 608.258 212.308 608.54 212.141 608.722C212.051 608.819 211.93 608.869 211.809 608.869Z"
        fill="#E28B6D" />
      <path
        d="M205.154 619.058C205.132 619.058 205.111 619.058 205.093 619.054C204.85 619.018 204.679 618.793 204.711 618.551C205.146 615.445 206.125 613.503 207.699 612.617C209.048 611.861 210.801 611.935 212.915 612.849C213.14 612.946 213.247 613.21 213.147 613.435C213.05 613.66 212.786 613.767 212.561 613.667C210.719 612.871 209.231 612.778 208.138 613.396C206.839 614.127 205.982 615.902 205.596 618.676C205.564 618.897 205.371 619.058 205.154 619.058Z"
        fill="#E28B6D" />
      <path
        d="M204.11 600.28C203.992 600.28 203.874 600.233 203.785 600.14C203.617 599.962 203.625 599.68 203.803 599.509L209.347 594.286C209.526 594.114 209.808 594.125 209.979 594.303C210.147 594.482 210.14 594.764 209.961 594.935L204.417 600.158C204.331 600.237 204.221 600.28 204.11 600.28Z"
        fill="#E28B6D" />
      <path
        d="M209.245 602.064C209.134 602.064 209.023 602.021 208.934 601.939C208.755 601.768 208.752 601.486 208.92 601.307L214.246 595.76C214.417 595.581 214.7 595.574 214.878 595.745C215.057 595.917 215.06 596.199 214.892 596.377L209.566 601.925C209.477 602.018 209.359 602.064 209.245 602.064Z"
        fill="#E28B6D" />
      <path
        d="M214.487 605.188C214.377 605.188 214.269 605.149 214.184 605.067C214.005 604.899 213.995 604.617 214.162 604.435L218.339 599.954C218.507 599.776 218.789 599.765 218.971 599.933C219.15 600.101 219.16 600.383 218.993 600.565L214.816 605.045C214.726 605.138 214.609 605.188 214.487 605.188Z"
        fill="#E28B6D" />
      <path
        d="M286.224 756.799L205.452 759.923L196.527 686.292C196.527 686.292 223.567 660.645 233.97 651.198L251.534 650.299C306.023 675.064 297.101 705.998 286.224 756.799Z"
        fill="#3A65FD" />
      <path
        d="M251.535 650.299C251.535 650.299 313.874 655.629 333.527 698.34C352.759 740.134 273.73 755.014 273.73 755.014L251.535 650.299Z"
        fill="#3A65FD" />
      <path
        d="M180.276 659.449L206.038 628.101L181.947 613.503C171.898 620.489 152.466 636.315 135.998 654.237C132.363 658.192 129.522 662.812 128.094 667.899C126.873 672.24 126.651 676.528 127.337 680.726C129.125 691.672 137.733 700.115 149.225 701.461C159.038 702.61 196.527 699.676 226.872 690.751L235.797 656.304C231.21 653.705 197.127 653.251 180.276 659.449Z"
        fill="#3A65FD" />
      <g opacity="0.8">
        <path
          d="M303.557 667.246C303.693 667.214 303.825 667.185 303.96 667.153C303.678 666.985 303.396 666.825 303.114 666.66C298.545 667.714 293.832 668.788 289.184 669.349C286.392 669.684 277.06 670.302 274.337 664.086C272.98 660.995 274.008 657.553 275.54 655.14C275.315 655.076 275.093 655.012 274.872 654.947C273.301 657.503 272.291 661.091 273.723 664.354C276.632 670.994 286.357 670.366 289.266 670.013C294.047 669.438 298.884 668.324 303.557 667.246Z"
          fill="white" />
        <path
          d="M332.649 715.416C329.672 714.266 326.594 713.074 323.36 713.381C317.687 713.916 312.832 719.529 312.536 725.887C312.336 730.224 313.992 734.769 317.148 738.764C317.337 738.646 317.527 738.524 317.716 738.403C314.628 734.519 313.007 730.11 313.203 725.915C313.482 719.875 318.066 714.548 323.421 714.045C326.494 713.759 329.368 714.866 332.406 716.037C333.492 716.455 334.595 716.88 335.716 717.237C335.773 717.022 335.83 716.805 335.884 716.587C334.788 716.241 333.709 715.826 332.649 715.416Z"
          fill="white" />
        <path
          d="M175.302 694.128C171.411 690.908 165.363 690.047 158.712 691.768C152.786 693.3 147.702 696.338 144.211 700.354C144.439 700.429 144.664 700.511 144.896 700.579C148.295 696.766 153.189 693.885 158.88 692.414C165.317 690.747 171.15 691.561 174.874 694.642C176.644 696.106 177.897 698.009 178.808 700.058C179.036 700.033 179.268 700.004 179.5 699.979C178.547 697.776 177.219 695.717 175.302 694.128Z"
          fill="white" />
        <path
          d="M140.117 649.856C147.411 648.043 154.526 645.497 161.091 641.717C163.572 640.289 166.371 638.468 168.342 635.794C170.437 632.949 171.133 629.561 170.205 626.733C169.841 625.623 169.195 624.648 168.388 623.87C168.217 624.009 168.045 624.152 167.874 624.291C168.627 625.009 169.231 625.912 169.57 626.944C170.43 629.568 169.773 632.727 167.806 635.398C165.91 637.972 163.179 639.746 160.759 641.138C154.569 644.705 147.871 647.172 140.992 648.953C140.699 649.253 140.41 649.556 140.117 649.856Z"
          fill="white" />
      </g>
      <path
        d="M257.236 633.927L257.226 635.069L257.044 652.823L257.022 654.747C256.986 657.756 255.755 660.484 253.763 662.465C251.781 664.432 249.054 665.667 246.034 665.689C239.947 665.721 234.967 660.834 234.91 654.736L234.695 632.795L257.236 633.927Z"
        fill="#F0D7C9" />
      <path
        d="M257.226 635.069L257.043 652.823C247.176 648.807 243.113 638.125 243.113 638.125L257.226 635.069Z"
        fill="#102048" />
      <path
        d="M261.128 604.089C264.662 608.333 274.99 632.377 264.523 640.581C252.745 649.813 234.82 634.641 234.82 634.641L232.414 606.634L247.972 602.532L261.128 604.089Z"
        fill="#F0D7C9" />
      <path
        d="M224.49 602.547C224.49 602.547 189.979 620.547 218.118 672.43C221.731 679.095 229.738 682.001 236.586 678.752C243.933 675.264 246.714 666.289 242.722 659.203C238.121 651.027 233.676 640.496 235.575 632.663L224.49 602.547Z"
        fill="#102048" />
      <path
        d="M234.347 617.67C237.993 614.024 237.993 608.113 234.347 604.467C230.702 600.822 224.791 600.821 221.145 604.467C217.499 608.113 217.499 614.024 221.145 617.67C224.791 621.315 230.702 621.315 234.347 617.67Z"
        fill="#FCB966" />
      <path
        d="M239.234 622.282C238.224 616.459 237.609 612.464 243.496 609.462C243.496 609.462 264.242 613.235 268.201 605.406C272.16 597.581 266.127 585.229 253.492 593.807C221.148 587.488 216.811 617.758 226.617 627.847L236.296 626.362C238.245 626.066 239.569 624.224 239.234 622.282Z"
        fill="#102048" />
      <path
        d="M255.296 623.677C256.057 623.677 256.674 623.06 256.674 622.299C256.674 621.538 256.057 620.921 255.296 620.921C254.535 620.921 253.918 621.538 253.918 622.299C253.918 623.06 254.535 623.677 255.296 623.677Z"
        fill="#102048" />
      <path
        d="M264.632 619.079C265.393 619.079 266.01 618.462 266.01 617.701C266.01 616.94 265.393 616.323 264.632 616.323C263.871 616.323 263.254 616.94 263.254 617.701C263.254 618.462 263.871 619.079 264.632 619.079Z"
        fill="#102048" />
      <path
        d="M263.674 626.544C263.577 626.544 263.481 626.508 263.406 626.437C263.249 626.287 263.242 626.041 263.392 625.884C263.945 625.302 264.552 624.484 264.295 623.888C264.031 623.27 262.913 623.006 262.399 623.006C261.3 623.006 260.771 621.05 260.675 620.657C260.625 620.446 260.753 620.236 260.964 620.186C261.175 620.132 261.385 620.264 261.435 620.475C261.635 621.303 262.092 622.228 262.399 622.228C262.928 622.228 264.538 622.478 265.012 623.584C265.352 624.373 264.998 625.33 263.956 626.426C263.881 626.505 263.777 626.544 263.674 626.544Z"
        fill="#102048" />
      <path
        d="M263.745 631.777C263.67 631.777 263.595 631.756 263.527 631.709C260.932 629.956 258.308 631.427 258.283 631.441C258.097 631.549 257.858 631.484 257.751 631.299C257.644 631.113 257.708 630.874 257.894 630.767C258.019 630.695 260.968 629.042 263.966 631.063C264.145 631.184 264.191 631.427 264.07 631.606C263.995 631.716 263.87 631.777 263.745 631.777Z"
        fill="#102048" />
      <path
        d="M254.693 616.326C255.478 617.804 254.111 618.1 252.508 618.95C250.905 619.8 249.266 620.114 248.891 619.407C248.517 618.704 249.513 617.443 251.116 616.59C252.718 615.737 254.086 615.184 254.693 616.326Z"
        fill="#102048" />
      <path
        d="M260.532 613.66C260.878 614.977 261.86 614.402 263.288 614.027C264.716 613.652 265.872 612.935 265.708 612.307C265.544 611.678 264.252 611.471 262.82 611.846C261.392 612.221 260.264 612.642 260.532 613.66Z"
        fill="#102048" />
      <path opacity="0.4"
        d="M251.702 631.725C253.353 630.203 253.457 627.63 251.934 625.979C250.412 624.328 247.839 624.224 246.188 625.747C244.537 627.27 244.434 629.842 245.956 631.493C247.479 633.144 250.051 633.248 251.702 631.725Z"
        fill="#EB5D60" />
      <path
        d="M238.44 632.553C240.299 630.144 239.587 626.48 236.851 624.369C234.115 622.257 230.39 622.498 228.531 624.906C226.673 627.315 227.384 630.979 230.121 633.091C232.857 635.202 236.582 634.961 238.44 632.553Z"
        fill="#F0D7C9" />
      <path
        d="M235.909 630.789C235.695 630.789 235.52 630.614 235.52 630.4C235.52 629.247 234.959 628.183 234.017 627.548C233.214 627.005 232.253 626.88 231.45 627.205C231.25 627.284 231.022 627.191 230.939 626.991C230.857 626.791 230.954 626.562 231.154 626.48C232.196 626.056 233.428 626.209 234.449 626.898C235.605 627.676 236.298 628.983 236.298 630.397C236.302 630.614 236.127 630.789 235.909 630.789Z"
        fill="#102048" />
      <path d="M179.941 659.135L165.852 674.376L166.507 674.982L180.596 659.741L179.941 659.135Z"
        fill="#102048" />
      <path
        d="M279.21 724.652L278.949 723.799C289.206 720.671 299.163 716.934 308.184 705.652L308.88 706.209C299.702 717.687 289.609 721.482 279.21 724.652Z"
        fill="#102048" />
      <path
        d="M285.45 690.09H198.195C195.057 690.09 192.512 692.842 192.512 696.237V758.537C192.512 761.933 195.057 764.685 198.195 764.685H285.453C288.591 764.685 291.137 761.933 291.137 758.537V696.237C291.133 692.839 288.588 690.09 285.45 690.09Z"
        fill="#A7B4E7" />
      <path d="M624.104 829.092H98V830.877H624.104V829.092Z" fill="#A3A9C0" />
    </g>
  </g>
  <defs>
    <filter id="filter0_d_3680_32650" x="395.638" y="389.603" width="239.295" height="66.4601"
      filterUnits="userSpaceOnUse" color-interpolation-filters="sRGB">
      <feFlood flood-opacity="0" result="BackgroundImageFix" />
      <feColorMatrix in="SourceAlpha" type="matrix"
        values="0 0 0 0 0 0 0 0 0 0 0 0 0 0 0 0 0 0 127 0" result="hardAlpha" />
      <feOffset dy="2.43185" />
      <feGaussianBlur stdDeviation="6.07963" />
      <feComposite in2="hardAlpha" operator="out" />
      <feColorMatrix type="matrix" values="0 0 0 0 0 0 0 0 0 0 0 0 0 0 0 0 0 0 0.2 0" />
      <feBlend mode="normal" in2="BackgroundImageFix" result="effect1_dropShadow_3680_32650" />
      <feBlend mode="normal" in="SourceGraphic" in2="effect1_dropShadow_3680_32650" result="shape" />
    </filter>
    <filter id="filter1_d_3680_32650" x="115.27" y="351.273" width="218.561" height="62.6623"
      filterUnits="userSpaceOnUse" color-interpolation-filters="sRGB">
      <feFlood flood-opacity="0" result="BackgroundImageFix" />
      <feColorMatrix in="SourceAlpha" type="matrix"
        values="0 0 0 0 0 0 0 0 0 0 0 0 0 0 0 0 0 0 127 0" result="hardAlpha" />
      <feOffset dy="2.43185" />
      <feGaussianBlur stdDeviation="6.07963" />
      <feComposite in2="hardAlpha" operator="out" />
      <feColorMatrix type="matrix" values="0 0 0 0 0 0 0 0 0 0 0 0 0 0 0 0 0 0 0.2 0" />
      <feBlend mode="normal" in2="BackgroundImageFix" result="effect1_dropShadow_3680_32650" />
      <feBlend mode="normal" in="SourceGraphic" in2="effect1_dropShadow_3680_32650" result="shape" />
    </filter>
    <filter id="filter2_d_3680_32650" x="87.7275" y="572.936" width="542.291" height="271.636"
      filterUnits="userSpaceOnUse" color-interpolation-filters="sRGB">
      <feFlood flood-opacity="0" result="BackgroundImageFix" />
      <feColorMatrix in="SourceAlpha" type="matrix"
        values="0 0 0 0 0 0 0 0 0 0 0 0 0 0 0 0 0 0 127 0" result="hardAlpha" />
      <feOffset dy="2.43185" />
      <feGaussianBlur stdDeviation="6.07963" />
      <feComposite in2="hardAlpha" operator="out" />
      <feColorMatrix type="matrix" values="0 0 0 0 0 0 0 0 0 0 0 0 0 0 0 0 0 0 0.2 0" />
      <feBlend mode="normal" in2="BackgroundImageFix" result="effect1_dropShadow_3680_32650" />
      <feBlend mode="normal" in="SourceGraphic" in2="effect1_dropShadow_3680_32650" result="shape" />
    </filter>
    <filter id="filter3_d_3680_32650" x="271.993" y="512.238" width="89.2912" height="98.7638"
      filterUnits="userSpaceOnUse" color-interpolation-filters="sRGB">
      <feFlood flood-opacity="0" result="BackgroundImageFix" />
      <feColorMatrix in="SourceAlpha" type="matrix"
        values="0 0 0 0 0 0 0 0 0 0 0 0 0 0 0 0 0 0 127 0" result="hardAlpha" />
      <feOffset dy="2.43185" />
      <feGaussianBlur stdDeviation="6.07963" />
      <feComposite in2="hardAlpha" operator="out" />
      <feColorMatrix type="matrix" values="0 0 0 0 0 0 0 0 0 0 0 0 0 0 0 0 0 0 0.2 0" />
      <feBlend mode="normal" in2="BackgroundImageFix" result="effect1_dropShadow_3680_32650" />
      <feBlend mode="normal" in="SourceGraphic" in2="effect1_dropShadow_3680_32650" result="shape" />
    </filter>
    <filter id="filter4_d_3680_32650" x="203.528" y="539.909" width="42.9943" height="42.9933"
      filterUnits="userSpaceOnUse" color-interpolation-filters="sRGB">
      <feFlood flood-opacity="0" result="BackgroundImageFix" />
      <feColorMatrix in="SourceAlpha" type="matrix"
        values="0 0 0 0 0 0 0 0 0 0 0 0 0 0 0 0 0 0 127 0" result="hardAlpha" />
      <feOffset dy="2.43185" />
      <feGaussianBlur stdDeviation="6.07963" />
      <feComposite in2="hardAlpha" operator="out" />
      <feColorMatrix type="matrix" values="0 0 0 0 0 0 0 0 0 0 0 0 0 0 0 0 0 0 0.2 0" />
      <feBlend mode="normal" in2="BackgroundImageFix" result="effect1_dropShadow_3680_32650" />
      <feBlend mode="normal" in="SourceGraphic" in2="effect1_dropShadow_3680_32650" result="shape" />
    </filter>
    <filter id="filter5_d_3680_32650" x="216.017" y="562.286" width="34.8927" height="34.8254"
      filterUnits="userSpaceOnUse" color-interpolation-filters="sRGB">
      <feFlood flood-opacity="0" result="BackgroundImageFix" />
      <feColorMatrix in="SourceAlpha" type="matrix"
        values="0 0 0 0 0 0 0 0 0 0 0 0 0 0 0 0 0 0 127 0" result="hardAlpha" />
      <feOffset dy="2.43185" />
      <feGaussianBlur stdDeviation="6.07963" />
      <feComposite in2="hardAlpha" operator="out" />
      <feColorMatrix type="matrix" values="0 0 0 0 0 0 0 0 0 0 0 0 0 0 0 0 0 0 0.2 0" />
      <feBlend mode="normal" in2="BackgroundImageFix" result="effect1_dropShadow_3680_32650" />
      <feBlend mode="normal" in="SourceGraphic" in2="effect1_dropShadow_3680_32650" result="shape" />
    </filter>
    <filter id="filter6_d_3680_32650" x="153.063" y="465.498" width="97.8302" height="97.8302"
      filterUnits="userSpaceOnUse" color-interpolation-filters="sRGB">
      <feFlood flood-opacity="0" result="BackgroundImageFix" />
      <feColorMatrix in="SourceAlpha" type="matrix"
        values="0 0 0 0 0 0 0 0 0 0 0 0 0 0 0 0 0 0 127 0" result="hardAlpha" />
      <feOffset dy="2.43185" />
      <feGaussianBlur stdDeviation="6.07963" />
      <feComposite in2="hardAlpha" operator="out" />
      <feColorMatrix type="matrix" values="0 0 0 0 0 0 0 0 0 0 0 0 0 0 0 0 0 0 0.2 0" />
      <feBlend mode="normal" in2="BackgroundImageFix" result="effect1_dropShadow_3680_32650" />
      <feBlend mode="normal" in="SourceGraphic" in2="effect1_dropShadow_3680_32650" result="shape" />
    </filter>
    <clipPath id="clip0_3680_32650">
      <rect width="710" height="1024" fill="white" />
    </clipPath>
  </defs>
</svg>