<svg width="710" height="1024" viewBox="0 0 710 1024" fill="none" xmlns="http://www.w3.org/2000/svg">
<g clip-path="url(#clip0_3680_32543)">
<mask id="mask0_3680_32543" style="mask-type:luminance" maskUnits="userSpaceOnUse" x="0" y="0" width="710" height="1024">
<path d="M710 0H0V1024H710V0Z" fill="white"/>
</mask>
<g mask="url(#mask0_3680_32543)">
<path d="M710 0H0V1024H710V0Z" fill="white"/>
<path d="M710 0H0V1024H710V0Z" fill="#F7F8FF"/>
<path d="M260.973 746.986C305.626 788.581 369.953 825.721 389.668 886.245C408.586 946.701 383.689 1030.61 330.468 1098.04C276.45 1165.39 193.235 1217.07 108.057 1216.77C23.6767 1216.54 -62.5911 1163.47 -113.099 1087.13C-163.532 1009.91 -178.205 909.431 -154.556 830.683C-130.906 751.935 -69.6582 693.98 -9.85968 662.242C50.0137 629.632 108.512 622.368 149.453 641.692C191.192 661.085 216.32 705.392 260.973 746.986Z" fill="#EEF1FE"/>
<path d="M225.882 802.992C268.091 842.13 328.889 877.085 347.541 934.017C365.439 990.885 341.946 1069.79 291.683 1133.19C240.666 1196.52 162.054 1245.09 81.5682 1244.78C1.83638 1244.53 -79.6994 1194.58 -127.453 1122.76C-175.138 1050.12 -189.04 955.608 -166.724 881.553C-144.407 807.497 -86.5556 753.013 -30.0633 723.185C26.4994 692.538 81.7726 685.728 120.466 703.918C159.912 722.174 183.673 763.855 225.882 802.992Z" fill="#E5ECFF"/>
<path d="M537.025 439.88C458.34 379.387 348.181 328.742 307.528 234.487C268.185 140.231 297.036 2.36435 374.41 -112.994C453.095 -228.352 581.614 -322.607 720.624 -333.862C858.323 -345.116 1006.51 -271.963 1099.62 -156.605C1192.73 -39.8398 1230.76 119.129 1203.23 248.555C1175.69 377.98 1083.89 479.27 990.776 538.356C897.665 598.849 803.243 618.544 733.738 593.221C662.922 567.899 615.711 500.372 537.025 439.88Z" fill="#EEF1FE"/>
<path d="M614.38 402.075C538.768 343.128 432.91 293.778 393.843 201.931C356.037 110.084 383.761 -24.2584 458.114 -136.668C533.727 -249.077 657.227 -340.924 790.81 -351.891C923.132 -362.858 1065.54 -291.574 1155.01 -179.164C1244.49 -65.3839 1281.03 89.5218 1254.57 215.639C1228.1 341.757 1139.89 440.458 1050.41 498.034C960.939 556.98 870.203 576.172 803.412 551.497C735.361 526.822 689.993 461.021 614.38 402.075Z" fill="#E5ECFF"/>
<path d="M453.871 782.292H480.049V611.648H453.871V782.292Z" fill="#E3EBFF"/>
<path d="M465.24 732.367L469.298 730.418L434.496 657.953L430.438 659.903L465.24 732.367Z" fill="#E3EBFF"/>
<g filter="url(#filter0_d_3680_32543)">
<path d="M456.624 668.12C456.624 668.12 461.425 691.734 486.979 684.776C498.155 681.738 500.583 673.328 500.041 665.312C510.363 672.677 525.907 678.659 524.401 646.391C524.401 646.391 557.7 671.768 568.876 635.282C580.039 598.81 550.145 595.365 550.145 595.365C550.145 595.365 592.192 560.628 577.842 532.158C562.379 501.491 535.455 517.347 535.455 517.347C535.455 517.347 541.03 476.683 510.959 478.433C507.094 478.663 503.554 480.332 500.909 482.977C490.614 477.511 477.62 494.207 477.62 494.207C477.62 494.207 475.03 473.753 454.589 481.132C445.651 484.36 443.318 491.847 443.345 498.86C435.6 492.932 423.678 488.456 423.244 516.669C423.244 516.669 398.341 496.106 387.734 528.632C377.127 561.171 400.457 562.676 400.457 562.676C400.457 562.676 365.666 595.229 375.513 619.467C386.12 645.577 408.093 630.318 408.093 630.318C408.093 630.318 402.722 660.416 420.029 663.155C418.944 669.259 421.48 675.648 426.987 678.889C440.686 686.973 456.624 668.12 456.624 668.12Z" fill="white"/>
</g>
<path d="M612.64 616.157V782.298H127.402V615.56L336.377 587.267L612.64 616.157Z" fill="#F3F8FF"/>
<path d="M336.377 587.267L127.402 615.56V782.298H336.377V587.267Z" fill="#E3EBFF"/>
<path d="M358.324 782.298H457.989V654.488H358.324V782.298Z" fill="#D1E1FF"/>
<path d="M453.291 782.297V658.801H363.039V782.297H453.291Z" fill="#E3EBFF"/>
<path d="M408.541 782.297V658.801H407.781V782.297H408.541Z" fill="#D1E1FF"/>
<path d="M631.442 622.207L336.433 591.363L108.728 622.193L107.629 614.137L336.311 583.171L336.799 583.225L632.296 614.123L631.442 622.207Z" fill="#D1E1FF"/>
<g filter="url(#filter1_d_3680_32543)">
<path d="M610.396 428.438C618.263 411.442 612.024 399.33 592.791 399.33C580.733 399.33 565.772 404.091 551.218 411.849C549.577 407.428 544.938 404.783 537.492 404.783C524.376 404.783 506.296 412.975 492.108 424.518C488.677 421.941 483.712 420.367 477.324 420.11C464.764 419.594 449.559 424.287 436.348 431.951C435.209 430.676 433.242 429.862 430.529 429.753C423.3 429.455 413.507 434.202 408.638 440.346C408.339 440.74 408.068 441.106 407.797 441.472H422.825H434.775H476.307H496.747H512.644H537.126H541.575H602.299H620.203C626.876 435.45 619.47 428.736 610.396 428.438Z" fill="white"/>
</g>
<g filter="url(#filter2_d_3680_32543)">
<path d="M311.271 383.014C310.742 382.959 310.213 382.932 309.67 382.932C310.172 377.371 307.283 373.818 301.139 373.818C296.703 373.818 291.251 375.676 285.703 378.809C287.29 368.012 282.204 361 270.688 361C261.397 361 249.624 365.557 238.014 373.004C236.996 368.772 233.578 366.236 227.814 366.236C217.709 366.236 203.345 374.075 191.83 385.143C191.83 385.143 191.83 385.157 191.816 385.143C189.334 382.675 185.59 381.156 180.68 380.911C171.064 380.41 159.114 384.913 148.521 392.264C147.721 391.03 146.242 390.257 144.154 390.148C138.891 389.877 131.634 393.932 127.43 399.344H139.705H148.033H180.043H195.031H208.377H227.339H263.161H277.118H282.082H301.953H319.734C324.251 391.125 320.657 383.936 311.271 383.014Z" fill="white"/>
</g>
<g filter="url(#filter3_d_3680_32543)">
<path fill-rule="evenodd" clip-rule="evenodd" d="M160.758 826.746H152.81H152.036V826.747H131.393C131.393 826.747 118.684 815.448 114.547 800.298C112.648 793.326 122.02 788.498 127.69 793.489C129.137 794.761 130.559 796.15 131.942 797.616C131.611 793.257 131.799 788.873 132.844 784.835C134.431 778.704 142.108 776.818 146.354 781.498C148.401 783.749 150.158 786.188 151.667 788.725C152.762 781.535 154.872 774.453 158.615 768.626C162.237 762.997 170.09 764.123 172.301 770.607C174.293 776.454 175.295 783.225 175.696 789.999C176.222 788.855 176.759 787.703 177.305 786.545C185.111 770.015 197.516 776.949 190.393 793.678C191.509 793.12 192.668 792.607 193.87 792.146C198.807 790.248 204.382 793.421 204.68 798.291C205.847 816.914 185.054 826.747 185.054 826.747H174.077H160.758V826.746Z" fill="white"/>
</g>
<path d="M286.198 633.533H177.594V744.904H286.198V633.533Z" fill="#D1E1FF"/>
<path d="M281.095 739.175V639.266H182.691V739.175H281.095Z" fill="#F5FAFF"/>
<path d="M284.072 685.373H179.688V693.064H284.072V685.373Z" fill="#D1E1FF"/>
<path d="M235.733 742.891V635.562H228.043V742.891H235.733Z" fill="#D1E1FF"/>
<path d="M612.636 744.904H489.492V635.555H612.636" fill="#D1E1FF"/>
<path d="M612.641 739.282V641.19H494.488V739.282H612.641Z" fill="#F5FAFF"/>
<path d="M422.852 628.883C424.775 620.778 419.764 612.649 411.659 610.725C403.554 608.802 395.425 613.813 393.501 621.918C391.578 630.023 396.589 638.153 404.694 640.076C412.799 642 420.929 636.989 422.852 628.883Z" fill="white"/>
<path d="M477.731 778.446H262.301V782.312H477.731V778.446Z" fill="#D1E1FF"/>
<path d="M243.232 498.301C243.015 502.18 242.554 505.72 242.052 509.396C241.55 513.044 240.858 516.666 240.085 520.274C238.566 527.49 236.45 534.651 233.547 541.65L232.381 544.254L232.083 544.905L231.933 545.231C231.879 545.339 231.852 545.421 231.73 545.651C231.364 546.397 230.875 547.184 230.197 547.944C229.519 548.703 228.665 549.436 227.661 549.951C226.684 550.466 225.599 550.806 224.636 550.9C222.669 551.131 221.137 550.778 219.848 550.399C217.325 549.571 215.521 548.432 213.812 547.279C212.144 546.099 210.652 544.851 209.228 543.59C203.626 538.408 198.987 532.874 194.715 526.852L199.218 523.054C201.741 525.414 204.359 527.802 206.976 530.067C209.581 532.359 212.28 534.516 214.992 536.455C216.335 537.418 217.705 538.327 219.034 539.059C220.336 539.792 221.693 540.402 222.602 540.565C223.022 540.646 223.307 540.592 223.103 540.565C222.927 540.511 222.276 540.823 222.113 541.013C222.018 541.108 222.005 541.121 222.018 541.053L222.425 539.982L223.32 537.649C225.531 531.328 227.213 524.682 228.502 517.927C229.18 514.55 229.655 511.132 230.157 507.728C230.645 504.35 231.038 500.81 231.337 497.568L243.232 498.301Z" fill="#F0D7C9"/>
<path d="M235.132 484.113C230.331 485.334 226.98 505.069 226.98 505.069L240.191 514.062C240.191 514.062 252.86 494.15 249.171 488.874C245.332 483.394 242.131 482.336 235.132 484.113Z" fill="#3A65FD"/>
<path d="M235.555 488.521L231.879 508.419L239.298 513.451L235.555 488.521Z" fill="#004DAA"/>
<path d="M199.365 522.294L193.071 512.365L189.504 523.65C189.504 523.65 194.658 529.062 199.324 527.773L199.365 522.294Z" fill="#F0D7C9"/>
<path d="M183.865 509.083L181.383 518.686L189.507 523.65L193.075 512.365L183.865 509.083Z" fill="#F0D7C9"/>
<path d="M261.084 816.311H249.447L248.66 789.36H260.298L261.084 816.311Z" fill="#F0D7C9"/>
<path d="M363.759 762.263L354.889 769.79L334.598 751.669L343.468 744.142L363.759 762.263Z" fill="#F0D7C9"/>
<path d="M352.463 768.894L361.063 759.047C361.375 758.694 361.877 758.613 362.27 758.871L371.046 764.554C371.954 765.137 372.117 766.507 371.371 767.321C368.319 770.698 366.665 772.176 362.88 776.503C360.547 779.162 357.428 783.299 354.213 786.974C351.066 790.569 347.187 787.666 348.205 785.849C352.721 777.697 351.636 774.821 351.717 770.82C351.745 770.101 352.002 769.409 352.463 768.894Z" fill="#1D1A4D"/>
<path d="M249.035 814.956H262.11C262.585 814.956 262.978 815.282 263.033 815.756L264.525 826.105C264.674 827.177 263.752 828.194 262.653 828.181C258.096 828.099 255.898 827.828 250.147 827.828C246.607 827.828 239.296 828.194 234.414 828.194C229.639 828.194 229.273 823.365 231.307 822.931C240.422 820.965 244.017 818.266 247.082 815.688C247.652 815.214 248.343 814.956 249.035 814.956Z" fill="#1D1A4D"/>
<path d="M248.676 789.376L249.069 803.265H260.707L260.313 789.376H248.676Z" fill="#D68D83"/>
<path d="M343.476 744.143L334.605 751.684L345.077 761.016L353.947 753.474L343.476 744.143Z" fill="#D68D83"/>
<path d="M243.479 431.581C251.332 419.903 270.159 416.024 281.878 426.495C296.797 439.828 287.751 465.965 310.687 459.007C333.636 452.049 355.107 453.744 355.216 465.612C355.324 477.481 369.349 462.425 385.842 474.592C419.236 499.237 393.696 562.619 364.331 538.408C345.084 522.539 338.329 515.73 328.726 527.815C319.123 539.914 284.929 534.204 281.864 518.944C278.799 503.685 256.988 511.145 245.12 497.812C233.266 484.479 226.728 456.471 243.479 431.581Z" fill="#0F264C"/>
<path d="M235.139 484.115C235.139 484.115 229.592 486.068 240.7 554.347C259.459 554.347 278.841 554.347 287.956 554.347C287.169 535.114 287.142 523.246 296.338 483.775C296.338 483.775 286.437 481.619 276.264 481.131C268.316 480.751 261.792 480.493 254.806 481.131C245.583 481.985 235.139 484.115 235.139 484.115Z" fill="#3A65FD"/>
<path d="M274.133 456.974C272.776 463.878 271.434 476.532 276.262 481.144C276.262 481.144 274.377 488.143 261.546 488.143C247.44 488.143 254.805 481.144 254.805 481.144C262.509 479.299 262.305 473.589 260.962 468.231L274.133 456.974Z" fill="#F0D7C9"/>
<path d="M268.756 461.558L260.957 468.204C261.283 469.479 261.527 470.767 261.622 472.015C264.565 471.595 268.607 468.367 268.919 465.288C269.068 463.755 269.014 462.277 268.756 461.558Z" fill="#D68D83"/>
<path d="M281.416 444.306C278.703 455.537 277.808 460.338 271.04 465.153C260.867 472.383 247.67 466.604 246.965 454.804C246.327 444.17 250.871 427.596 262.78 425.046C274.512 422.536 284.129 433.075 281.416 444.306Z" fill="#F0D7C9"/>
<path d="M240.694 554.348C240.694 554.348 231.511 643.99 232.284 679.472C233.071 716.378 246.608 800.568 246.608 800.568H262.341C262.341 800.568 259.846 718.535 261.243 682.293C262.762 642.769 275.308 554.348 275.308 554.348H240.694Z" fill="#5061A5"/>
<path d="M263.691 801.136H245.231L243.875 795.249L264.559 794.53L263.691 801.136Z" fill="#A7B4E7"/>
<path d="M261.075 576.658C249.465 600.014 258.742 642.604 262.852 658.46C264.954 634.656 268.508 605.562 271.275 584.199C269.512 572.1 266.433 565.888 261.075 576.658Z" fill="#1D1A4D"/>
<path d="M253.176 554.348C253.176 554.348 263.877 647.543 271.961 677.451C281.564 712.974 341.176 760.772 341.176 760.772L353.275 750.504C353.275 750.504 310.062 698.583 302.724 679.865C287.058 639.92 300.472 580.403 287.953 554.348H253.176Z" fill="#5061A5"/>
<path d="M355.214 749.961L340.199 762.71L334.598 759.347L351.579 743.559L355.214 749.961Z" fill="#A7B4E7"/>
<path d="M263.643 444.416C263.807 443.494 263.449 442.659 262.844 442.552C262.239 442.445 261.616 443.106 261.453 444.028C261.29 444.95 261.648 445.784 262.252 445.891C262.857 445.998 263.48 445.338 263.643 444.416Z" fill="#0F264C"/>
<path d="M253.186 442.581C253.023 443.503 252.399 444.168 251.789 444.059C251.179 443.951 250.826 443.11 250.989 442.187C251.152 441.265 251.776 440.6 252.386 440.709C252.996 440.817 253.349 441.658 253.186 442.581Z" fill="#0F264C"/>
<path d="M252.645 440.804L250.543 439.773C250.543 439.773 251.37 441.713 252.645 440.804Z" fill="#0F264C"/>
<path d="M255.668 444.657C255.668 444.657 253.39 448.36 251.328 449.974C252.345 451.331 254.516 451.181 254.516 451.181L255.668 444.657Z" fill="#D68D83"/>
<path d="M258.69 455.535C258.201 455.535 257.672 455.495 257.116 455.4C256.967 455.373 256.872 455.237 256.899 455.074C256.926 454.925 257.062 454.83 257.225 454.857C261.267 455.576 263.681 453.08 263.695 453.053C263.803 452.945 263.966 452.931 264.088 453.04C264.196 453.148 264.21 453.325 264.101 453.433C264.006 453.514 262.067 455.535 258.69 455.535Z" fill="#0F264C"/>
<path d="M263.238 424.095C258.043 427.079 270.847 455.291 280.233 451.33C289.619 447.37 286.567 431.622 281.929 427.662C277.303 423.701 270.44 419.971 263.238 424.095Z" fill="#0F264C"/>
<path d="M260.323 422.764C260.323 422.764 254.07 423.673 249.892 431.472C245.715 439.271 269.722 423.849 266.331 422.764C262.94 421.693 260.323 422.764 260.323 422.764Z" fill="#0F264C"/>
<path d="M281.886 452.768C280.978 454.979 279.147 456.579 277.315 457.312C274.576 458.41 272.867 456.037 273.368 453.283C273.816 450.801 275.769 447.234 278.658 447.302C281.507 447.37 282.931 450.231 281.886 452.768Z" fill="#F0D7C9"/>
<path d="M266.494 438.35C266.345 438.35 266.209 438.295 266.101 438.173C264.406 436.383 262.412 436.736 262.385 436.736C262.086 436.79 261.801 436.586 261.747 436.288C261.693 435.99 261.896 435.705 262.195 435.651C262.303 435.637 264.812 435.203 266.901 437.414C267.105 437.631 267.105 437.983 266.874 438.187C266.766 438.309 266.63 438.35 266.494 438.35Z" fill="#0F264C"/>
<path d="M249.389 436.94C249.254 436.94 249.118 436.885 249.01 436.79C248.793 436.573 248.779 436.234 248.996 436.017C251.098 433.806 253.608 434.254 253.716 434.268C254.015 434.322 254.218 434.607 254.15 434.905C254.096 435.203 253.811 435.393 253.513 435.353C253.418 435.339 251.465 435.027 249.796 436.777C249.688 436.872 249.539 436.94 249.389 436.94Z" fill="#0F264C"/>
<path d="M301.437 496.228C304.041 502.548 306.171 508.774 308.043 515.257C309.901 521.714 311.474 528.292 312.342 535.209C312.519 536.959 312.722 538.682 312.776 540.499L312.844 541.842C312.858 542.059 312.939 543.266 312.627 544.514C312.464 545.165 312.193 545.911 311.746 546.63C311.298 547.362 310.661 548.068 309.969 548.556C308.558 549.573 307.242 549.831 306.293 549.939C305.303 550.034 304.543 549.967 303.879 549.872C303.201 549.777 302.631 549.641 302.088 549.505C301.017 549.207 300.081 548.868 299.199 548.502C297.436 547.783 295.863 546.942 294.343 546.087C288.335 542.602 283.045 538.682 277.918 534.301L281.255 529.445C286.965 532.334 292.784 535.345 298.467 537.664C299.877 538.234 301.288 538.749 302.59 539.143C303.241 539.333 303.865 539.482 304.381 539.563C304.625 539.59 304.855 539.618 304.991 539.604C305.14 539.604 305.208 539.563 305.018 539.563C304.869 539.577 304.353 539.604 303.607 540.119C302.834 540.635 302.305 541.666 302.21 542.127C302.075 542.574 302.143 542.954 302.075 542.371L301.953 541.272C301.831 539.821 301.559 538.315 301.329 536.823C300.786 533.826 300.135 530.801 299.308 527.763C298.535 524.738 297.639 521.7 296.704 518.675C294.778 512.667 292.648 506.536 290.41 500.744L301.437 496.228Z" fill="#F0D7C9"/>
<path d="M296.338 483.775C301.072 485.212 306.755 501.516 306.755 501.516L288.39 514.645C288.39 514.645 281.689 501.041 283.683 494.91C285.745 488.549 290.926 482.133 296.338 483.775Z" fill="#3A65FD"/>
<path d="M349.288 774.509C348.827 774.509 348.42 774.292 348.053 773.885C347.742 773.533 347.769 773.193 347.836 772.963C348.271 771.539 352.312 770.386 352.774 770.25C352.882 770.209 352.991 770.25 353.058 770.345C353.126 770.426 353.14 770.548 353.086 770.643C352.367 772.013 350.929 774.333 349.464 774.509C349.396 774.496 349.342 774.509 349.288 774.509ZM352.272 770.969C350.671 771.484 348.582 772.366 348.365 773.112C348.338 773.207 348.325 773.343 348.474 773.519C348.759 773.844 349.057 773.994 349.396 773.953C350.183 773.858 351.241 772.759 352.272 770.969Z" fill="#9FC0FF"/>
<path d="M350.993 771.01C349.651 771.01 348.145 770.739 347.63 770.074C347.467 769.871 347.263 769.45 347.657 768.867C347.901 768.501 348.254 768.284 348.701 768.23C350.369 767.999 352.906 770.21 353.014 770.305C353.082 770.373 353.123 770.468 353.109 770.563C353.096 770.658 353.028 770.739 352.933 770.766C352.485 770.915 351.767 771.01 350.993 771.01ZM348.945 768.759C348.891 768.759 348.823 768.759 348.769 768.772C348.484 768.813 348.267 768.935 348.104 769.166C347.901 769.464 347.969 769.613 348.05 769.722C348.552 770.373 350.831 770.617 352.228 770.359C351.4 769.722 349.949 768.759 348.945 768.759Z" fill="#9FC0FF"/>
<path d="M244.673 816.991C243.52 816.991 242.448 816.815 241.852 816.272C241.472 815.933 241.309 815.486 241.35 814.93C241.377 814.604 241.54 814.346 241.811 814.197C243.235 813.41 247.874 815.784 248.403 816.055C248.511 816.11 248.566 816.218 248.552 816.34C248.539 816.462 248.444 816.544 248.335 816.571C247.345 816.774 245.961 816.991 244.673 816.991ZM242.598 814.59C242.381 814.59 242.204 814.618 242.082 814.685C241.974 814.753 241.919 814.835 241.906 814.984C241.879 815.35 241.974 815.648 242.218 815.865C242.923 816.503 244.836 816.611 247.413 816.177C245.826 815.418 243.696 814.59 242.598 814.59Z" fill="#9FC0FF"/>
<path d="M248.275 816.583C248.234 816.583 248.193 816.57 248.166 816.556C246.783 815.932 244.029 813.423 244.246 812.094C244.301 811.782 244.518 811.389 245.277 811.321C245.847 811.266 246.362 811.429 246.796 811.795C248.261 813.016 248.533 816.149 248.533 816.285C248.546 816.38 248.492 816.475 248.411 816.529C248.383 816.57 248.329 816.583 248.275 816.583ZM245.508 811.863C245.454 811.863 245.399 811.863 245.345 811.877C244.843 811.931 244.803 812.135 244.803 812.189C244.667 812.976 246.539 814.956 247.949 815.81C247.814 814.902 247.42 813.016 246.471 812.216C246.173 811.985 245.861 811.863 245.508 811.863Z" fill="#9FC0FF"/>
<path d="M288.658 551.581L289.865 555.812C290.028 556.139 289.648 556.477 289.092 556.477H240.453C240.032 556.477 239.68 556.274 239.652 556.003L239.232 551.771C239.205 551.473 239.571 551.229 240.032 551.229H287.885C288.237 551.229 288.549 551.364 288.658 551.581Z" fill="#9FC0FF"/>
<path d="M282.23 556.923H283.519C283.777 556.923 283.966 556.787 283.953 556.625L283.356 551.131C283.343 550.969 283.112 550.833 282.854 550.833H281.579C281.322 550.833 281.132 550.969 281.145 551.131L281.742 556.625C281.756 556.801 281.973 556.923 282.23 556.923Z" fill="#1D1A4D"/>
<path d="M244.06 556.923H245.349C245.607 556.923 245.796 556.787 245.783 556.625L245.186 551.131C245.172 550.969 244.942 550.833 244.684 550.833H243.396C243.138 550.833 242.948 550.969 242.962 551.131L243.558 556.625C243.586 556.801 243.803 556.923 244.06 556.923Z" fill="#1D1A4D"/>
<path d="M263.152 556.923H264.427C264.685 556.923 264.875 556.787 264.861 556.625L264.264 551.131C264.251 550.969 264.02 550.833 263.762 550.833H262.474C262.216 550.833 262.026 550.969 262.04 551.131L262.637 556.625C262.677 556.801 262.894 556.923 263.152 556.923Z" fill="#1D1A4D"/>
<path d="M282.8 530.651L278.894 518.701L272.668 528.765C272.668 528.765 276.33 535.276 281.172 535.167L282.8 530.651Z" fill="#F0D7C9"/>
<path d="M274.736 505.002L271.67 544.662C271.508 546.805 269.609 548.432 267.466 548.269L191.971 542.437C189.828 542.274 188.2 540.375 188.363 538.232L191.428 498.572C191.51 497.447 192.079 496.47 192.893 495.805C193.639 495.209 194.602 494.883 195.633 494.964L271.128 500.797C272.159 500.878 273.054 501.353 273.705 502.045C274.41 502.818 274.817 503.876 274.736 505.002Z" fill="#DCE8FF"/>
<path d="M273.703 502.044L241.367 524.166C235.195 528.384 226.908 527.747 221.456 522.633L192.891 495.818C193.637 495.221 194.6 494.896 195.63 494.977L271.125 500.81C272.143 500.877 273.052 501.352 273.703 502.044Z" fill="#9FC0FF"/>
<path d="M270.769 513.262L266.008 521.956L273.712 530.352L278.893 518.701L270.769 513.262Z" fill="#F0D7C9"/>
<path d="M263.103 442.663L261 441.632C260.987 441.632 261.828 443.558 263.103 442.663Z" fill="#0F264C"/>
<path d="M480.168 602.713H463.539V828.194H480.168V602.713Z" fill="#9FC0FF"/>
<path d="M463.539 602.713H480.168V619.342L463.539 613.225V602.713Z" fill="#0F264C"/>
<path d="M445.588 548.624C445.588 526.651 427.779 508.842 405.805 508.842C383.832 508.842 366.023 526.651 366.023 548.624V602.715H445.601V548.624H445.588Z" fill="#5061A5"/>
<path d="M358.474 625.923C353.157 647.896 366.666 665.705 388.639 665.705C410.612 665.705 432.734 647.896 438.051 625.923L443.585 603.041C443.911 601.725 442.907 600.45 441.551 600.45H366.286C365.323 600.45 364.482 601.115 364.252 602.051L358.474 625.923Z" fill="#0F264C"/>
<path d="M355.271 625.923C349.954 647.896 363.463 665.705 385.436 665.705C407.409 665.705 429.531 647.896 434.848 625.923L440.382 603.041C440.708 601.725 439.704 600.45 438.348 600.45H363.083C362.12 600.45 361.279 601.115 361.049 602.051L355.271 625.923Z" fill="#9FC0FF"/>
<path d="M539.236 548.607V602.712H445.579V548.607C445.579 539.398 442.459 530.934 437.197 524.193C429.927 514.834 418.56 508.825 405.797 508.825H499.454C512.217 508.825 523.583 514.834 530.853 524.193C536.116 530.934 539.236 539.398 539.236 548.607Z" fill="#9FC0FF"/>
<path d="M539.234 548.608V563.08H445.578V548.608C445.578 539.398 442.458 530.934 437.195 524.193H530.852C536.115 530.934 539.234 539.398 539.234 548.608Z" fill="#B6CFFF"/>
<path d="M458.625 570.053V490.055C458.625 487.017 461.351 484.711 464.335 485.199L483.514 488.373C484.938 488.604 485.983 489.838 485.983 491.276V496.24C485.983 497.868 484.667 499.183 483.039 499.183H464.729V570.053C464.729 571.735 463.359 573.105 461.677 573.105C459.981 573.105 458.625 571.735 458.625 570.053Z" fill="#0F264C"/>
<path d="M405.81 519.393V559.161C405.81 561.318 404.046 563.081 401.89 563.081H326.178C324.021 563.081 322.258 561.318 322.258 559.161V519.393C322.258 518.267 322.746 517.25 323.506 516.531C324.211 515.88 325.147 515.486 326.178 515.486H401.89C402.921 515.486 403.856 515.893 404.562 516.531C405.335 517.25 405.81 518.267 405.81 519.393Z" fill="#DCE8FF"/>
<path d="M404.558 516.531L374.026 541.068C368.194 545.761 359.88 545.761 354.047 541.068L323.516 516.531C324.221 515.88 325.157 515.487 326.188 515.487H401.9C402.917 515.473 403.853 515.88 404.558 516.531Z" fill="#9FC0FF"/>
<path d="M347.778 579.113V618.882C347.778 621.038 346.015 622.802 343.858 622.802H268.146C265.99 622.802 264.227 621.038 264.227 618.882V579.113C264.227 577.988 264.715 576.97 265.474 576.251C266.18 575.6 267.116 575.207 268.146 575.207H343.858C344.889 575.207 345.825 575.614 346.53 576.251C347.304 576.97 347.778 577.988 347.778 579.113Z" fill="#DCE8FF"/>
<path d="M346.527 576.251L315.995 600.788C310.163 605.481 301.848 605.481 296.016 600.788L265.484 576.251C266.19 575.6 267.126 575.207 268.156 575.207H343.868C344.899 575.207 345.835 575.6 346.527 576.251Z" fill="#9FC0FF"/>
<path d="M445.592 549.301V596.909H417.299C415.142 596.909 413.379 595.146 413.379 592.989V553.221C413.379 552.095 413.867 551.078 414.64 550.359C415.332 549.708 416.268 549.301 417.299 549.301H445.592Z" fill="#DCE8FF"/>
<path d="M445.589 549.301V575.207C445.44 575.112 445.304 575.004 445.168 574.895L414.637 550.359C415.328 549.708 416.264 549.301 417.295 549.301H445.589Z" fill="#9FC0FF"/>
<path d="M445.585 549.301H439.387V596.909H445.585V549.301Z" fill="#B6CFFF"/>
<path d="M617.401 827H91.2969V828.785H617.401V827Z" fill="#A3A9C0"/>
<mask id="mask1_3680_32543" style="mask-type:luminance" maskUnits="userSpaceOnUse" x="204" y="232" width="302" height="56">
<path d="M506 232H204V288H506V232Z" fill="white"/>
</mask>
<g mask="url(#mask1_3680_32543)">
<path d="M221.645 286.002L204.941 235.602H214.661L229.565 281.178H224.741L240.221 235.602H248.861L263.909 281.178H259.229L274.493 235.602H283.421L266.717 286.002H256.781L243.029 244.89H245.621L231.653 286.002H221.645Z" fill="#1D1A4D"/>
<path d="M385.307 286.506C381.083 286.506 377.819 285.426 375.515 283.266C373.211 281.058 372.059 277.818 372.059 273.546V239.058H381.059V273.33C381.059 275.154 381.515 276.57 382.427 277.578C383.387 278.586 384.707 279.09 386.387 279.09C388.403 279.09 390.083 278.562 391.427 277.506L393.947 283.914C392.891 284.778 391.595 285.426 390.059 285.858C388.523 286.29 386.939 286.506 385.307 286.506ZM365.723 255.042V247.842H391.355V255.042H365.723Z" fill="#1D1A4D"/>
<path d="M425.037 286V278.224L424.533 276.568V262.96C424.533 260.32 423.741 258.28 422.157 256.84C420.573 255.352 418.173 254.608 414.957 254.608C412.797 254.608 410.661 254.944 408.549 255.616C406.485 256.288 404.733 257.224 403.293 258.424L399.765 251.872C401.829 250.288 404.277 249.112 407.109 248.344C409.989 247.528 412.965 247.12 416.037 247.12C421.605 247.12 425.901 248.464 428.925 251.152C431.997 253.792 433.533 257.896 433.533 263.464V286H425.037ZM412.941 286.504C410.061 286.504 407.541 286.024 405.381 285.064C403.221 284.056 401.541 282.688 400.341 280.96C399.189 279.184 398.613 277.192 398.613 274.984C398.613 272.824 399.117 270.88 400.125 269.152C401.181 267.424 402.885 266.056 405.237 265.048C407.589 264.04 410.709 263.536 414.597 263.536H425.757V269.512H415.245C412.173 269.512 410.109 270.016 409.053 271.024C407.997 271.984 407.469 273.184 407.469 274.624C407.469 276.256 408.117 277.552 409.413 278.512C410.709 279.472 412.509 279.952 414.813 279.952C417.021 279.952 418.989 279.448 420.717 278.44C422.493 277.432 423.765 275.944 424.533 273.976L426.045 279.376C425.181 281.632 423.621 283.384 421.365 284.632C419.157 285.88 416.349 286.504 412.941 286.504Z" fill="#1D1A4D"/>
<path d="M445.082 286V232.576H454.082V286H445.082Z" fill="#1D1A4D"/>
<path d="M473.239 277.432L473.455 266.128L493.543 247.552H504.343L487.279 264.688L482.527 268.648L473.239 277.432ZM465.895 286V232.576H474.895V286H465.895ZM494.911 286L480.871 268.648L486.559 261.448L505.855 286H494.911Z" fill="#1D1A4D"/>
<path d="M285.238 278.172C291.224 279.491 297.21 279.291 302.178 277.337M302.178 277.337C309.259 274.553 314.273 268.207 314.273 257.621C314.273 253.21 311.854 246.329 306.208 246.329C303.049 246.329 298.726 248.929 297.336 256.814C295.738 265.887 298.48 273.245 302.178 277.337ZM302.178 277.337C303.162 278.426 304.213 279.284 305.269 279.881C314.273 284.976 321.829 283.916 327.178 283.43C330.35 283.141 336.01 281.057 340.59 277.313M340.59 277.313C343.733 274.742 346.368 271.39 347.341 267.299C349.068 260.04 347.518 246.333 340.082 246.33C332.824 246.327 329.739 258.817 332.824 267.299C334.361 271.525 336.63 274.918 340.59 277.313ZM340.59 277.313C344.943 279.945 351.339 281.37 361.052 281.37" stroke="#1F40DA" stroke-width="8" stroke-linecap="square"/>
</g>
</g>
</g>
<defs>
<filter id="filter0_d_3680_32543" x="361.599" y="468.651" width="231.389" height="231.999" filterUnits="userSpaceOnUse" color-interpolation-filters="sRGB">
<feFlood flood-opacity="0" result="BackgroundImageFix"/>
<feColorMatrix in="SourceAlpha" type="matrix" values="0 0 0 0 0 0 0 0 0 0 0 0 0 0 0 0 0 0 127 0" result="hardAlpha"/>
<feOffset dy="2.43185"/>
<feGaussianBlur stdDeviation="6.07963"/>
<feComposite in2="hardAlpha" operator="out"/>
<feColorMatrix type="matrix" values="0 0 0 0 0 0 0 0 0 0 0 0 0 0 0 0 0 0 0.2 0"/>
<feBlend mode="normal" in2="BackgroundImageFix" result="effect1_dropShadow_3680_32543"/>
<feBlend mode="normal" in="SourceGraphic" in2="effect1_dropShadow_3680_32543" result="shape"/>
</filter>
<filter id="filter1_d_3680_32543" x="395.638" y="389.603" width="239.295" height="66.4601" filterUnits="userSpaceOnUse" color-interpolation-filters="sRGB">
<feFlood flood-opacity="0" result="BackgroundImageFix"/>
<feColorMatrix in="SourceAlpha" type="matrix" values="0 0 0 0 0 0 0 0 0 0 0 0 0 0 0 0 0 0 127 0" result="hardAlpha"/>
<feOffset dy="2.43185"/>
<feGaussianBlur stdDeviation="6.07963"/>
<feComposite in2="hardAlpha" operator="out"/>
<feColorMatrix type="matrix" values="0 0 0 0 0 0 0 0 0 0 0 0 0 0 0 0 0 0 0.2 0"/>
<feBlend mode="normal" in2="BackgroundImageFix" result="effect1_dropShadow_3680_32543"/>
<feBlend mode="normal" in="SourceGraphic" in2="effect1_dropShadow_3680_32543" result="shape"/>
</filter>
<filter id="filter2_d_3680_32543" x="115.27" y="351.273" width="218.561" height="62.6623" filterUnits="userSpaceOnUse" color-interpolation-filters="sRGB">
<feFlood flood-opacity="0" result="BackgroundImageFix"/>
<feColorMatrix in="SourceAlpha" type="matrix" values="0 0 0 0 0 0 0 0 0 0 0 0 0 0 0 0 0 0 127 0" result="hardAlpha"/>
<feOffset dy="2.43185"/>
<feGaussianBlur stdDeviation="6.07963"/>
<feComposite in2="hardAlpha" operator="out"/>
<feColorMatrix type="matrix" values="0 0 0 0 0 0 0 0 0 0 0 0 0 0 0 0 0 0 0.2 0"/>
<feBlend mode="normal" in2="BackgroundImageFix" result="effect1_dropShadow_3680_32543"/>
<feBlend mode="normal" in="SourceGraphic" in2="effect1_dropShadow_3680_32543" result="shape"/>
</filter>
<filter id="filter3_d_3680_32543" x="102.138" y="755.273" width="114.748" height="86.0656" filterUnits="userSpaceOnUse" color-interpolation-filters="sRGB">
<feFlood flood-opacity="0" result="BackgroundImageFix"/>
<feColorMatrix in="SourceAlpha" type="matrix" values="0 0 0 0 0 0 0 0 0 0 0 0 0 0 0 0 0 0 127 0" result="hardAlpha"/>
<feOffset dy="2.43185"/>
<feGaussianBlur stdDeviation="6.07963"/>
<feComposite in2="hardAlpha" operator="out"/>
<feColorMatrix type="matrix" values="0 0 0 0 0 0 0 0 0 0 0 0 0 0 0 0 0 0 0.2 0"/>
<feBlend mode="normal" in2="BackgroundImageFix" result="effect1_dropShadow_3680_32543"/>
<feBlend mode="normal" in="SourceGraphic" in2="effect1_dropShadow_3680_32543" result="shape"/>
</filter>
<clipPath id="clip0_3680_32543">
<rect width="710" height="1024" fill="white"/>
</clipPath>
</defs>
</svg>
