<svg width="136" height="26" viewBox="0 0 136 26" fill="none" xmlns="http://www.w3.org/2000/svg">
<g clip-path="url(#clip0_3563_28778)">
<path d="M7.94813 24.8744L0.425781 2.17773H4.80302L11.5148 22.702H9.34236L16.3135 2.17773H20.2043L26.9809 22.702H24.8734L31.7472 2.17773H35.7678L28.2455 24.8744H23.771L17.578 6.36042H18.7453L12.455 24.8744H7.94813Z" fill="#1D1A4D"/>
<path d="M81.6474 25.1007C79.7452 25.1007 78.2753 24.6144 77.2378 23.6417C76.2002 22.6473 75.6814 21.1882 75.6814 19.2644V3.7334H79.7344V19.1672C79.7344 19.9886 79.9398 20.6262 80.3505 21.0802C80.7828 21.5341 81.3772 21.7611 82.1338 21.7611C83.0416 21.7611 83.7982 21.5233 84.4034 21.0477L85.5383 23.9335C85.0627 24.3226 84.4791 24.6144 83.7874 24.8089C83.0957 25.0035 82.3824 25.1007 81.6474 25.1007ZM72.8281 10.9315V7.68912H84.371V10.9315H72.8281Z" fill="#1D1A4D"/>
<path d="M99.5402 24.8741V21.3723L99.3132 20.6266V14.4985C99.3132 13.3096 98.9565 12.3909 98.2432 11.7425C97.5299 11.0724 96.4491 10.7373 95.0008 10.7373C94.0281 10.7373 93.0662 10.8886 92.1151 11.1912C91.1856 11.4939 90.3966 11.9154 89.7482 12.4558L88.1594 9.50521C89.0889 8.79188 90.1913 8.26229 91.4666 7.91644C92.7636 7.54897 94.1038 7.36523 95.4872 7.36523C97.9946 7.36523 99.9293 7.97048 101.291 9.18097C102.674 10.3698 103.366 12.218 103.366 14.7254V24.8741H99.5402ZM94.093 25.1011C92.796 25.1011 91.6612 24.8849 90.6885 24.4526C89.7157 23.9987 88.9592 23.3826 88.4188 22.6044C87.9 21.8047 87.6406 20.9076 87.6406 19.9133C87.6406 18.9405 87.8676 18.0651 88.3215 17.2869C88.7971 16.5088 89.5644 15.8927 90.6236 15.4388C91.6828 14.9848 93.0878 14.7579 94.8387 14.7579H99.8644V17.449H95.1305C93.7471 17.449 92.8176 17.676 92.3421 18.1299C91.8665 18.5623 91.6288 19.1027 91.6288 19.7511C91.6288 20.4861 91.9206 21.0697 92.5042 21.502C93.0878 21.9343 93.8984 22.1505 94.936 22.1505C95.9303 22.1505 96.8166 21.9235 97.5947 21.4696C98.3945 21.0157 98.9674 20.3456 99.3132 19.4593L99.9941 21.8911C99.605 22.9071 98.9025 23.696 97.8866 24.2581C96.8922 24.8201 95.6277 25.1011 94.093 25.1011Z" fill="#1D1A4D"/>
<path d="M108.566 24.8739V0.81543H112.619V24.8739H108.566Z" fill="#1D1A4D"/>
<path d="M121.245 21.0155L121.342 15.925L130.388 7.5596H135.252L127.567 15.2765L125.427 17.0598L121.245 21.0155ZM117.938 24.8739V0.81543H121.99V24.8739H117.938ZM131.004 24.8739L124.682 17.0598L127.243 13.8174L135.933 24.8739H131.004Z" fill="#1D1A4D"/>
<path d="M36.582 21.3486C39.2776 21.9425 41.9731 21.8523 44.2104 20.9727M44.2104 20.9727C47.3993 19.7188 49.6573 16.8609 49.6573 12.0937C49.6573 10.1075 48.568 7.00879 46.0254 7.00879C44.6026 7.00879 42.6558 8.17951 42.0301 11.7305C41.3102 15.8164 42.545 19.1297 44.2104 20.9727ZM44.2104 20.9727C44.6535 21.463 45.127 21.8493 45.6025 22.1183C49.6573 24.4128 53.06 23.9353 55.4688 23.7163C56.8973 23.5864 59.4462 22.6479 61.5087 20.9616M61.5087 20.9616C62.9241 19.8042 64.1107 18.2945 64.5489 16.4522C65.3266 13.1833 64.6286 7.0105 61.2799 7.0091C58.0114 7.00775 56.6221 12.6323 58.0114 16.4522C58.7036 18.3552 59.7254 19.8832 61.5087 20.9616ZM61.5087 20.9616C63.469 22.1469 66.3493 22.789 70.7233 22.789" stroke="#1F40DA" stroke-width="3.60265" stroke-linecap="square"/>
</g>
<defs>
<clipPath id="clip0_3563_28778">
<rect width="136" height="25.2185" fill="white" transform="translate(0 0.556641)"/>
</clipPath>
</defs>
</svg>
