<svg width="15" height="16" viewBox="0 0 15 16" fill="none" xmlns="http://www.w3.org/2000/svg">
<path d="M1.66667 7.16667H5C5.91667 7.16667 6.66667 6.41667 6.66667 5.5V2.16667C6.66667 1.25 5.91667 0.5 5 0.5H1.66667C0.75 0.5 0 1.25 0 2.16667V5.5C0 6.41667 0.75 7.16667 1.66667 7.16667ZM1.66667 2.16667H5V5.5H1.66667V2.16667ZM1.66667 15.5H5C5.91667 15.5 6.66667 14.75 6.66667 13.8333V10.5C6.66667 9.58333 5.91667 8.83333 5 8.83333H1.66667C0.75 8.83333 0 9.58333 0 10.5V13.8333C0 14.75 0.75 15.5 1.66667 15.5ZM1.66667 10.5H5V13.8333H1.66667V10.5ZM8.33333 2.16667V5.5C8.33333 6.41667 9.08333 7.16667 10 7.16667H13.3333C14.25 7.16667 15 6.41667 15 5.5V2.16667C15 1.25 14.25 0.5 13.3333 0.5H10C9.08333 0.5 8.33333 1.25 8.33333 2.16667ZM13.3333 5.5H10V2.16667H13.3333V5.5ZM15 15.0833V14.25C15 14.0167 14.8167 13.8333 14.5833 13.8333H13.75C13.5167 13.8333 13.3333 14.0167 13.3333 14.25V15.0833C13.3333 15.3167 13.5167 15.5 13.75 15.5H14.5833C14.8167 15.5 15 15.3167 15 15.0833ZM8.33333 9.25V10.0833C8.33333 10.3167 8.51667 10.5 8.75 10.5H9.58333C9.81667 10.5 10 10.3167 10 10.0833V9.25C10 9.01667 9.81667 8.83333 9.58333 8.83333H8.75C8.51667 8.83333 8.33333 9.01667 8.33333 9.25ZM11.25 10.5H10.4167C10.1833 10.5 10 10.6833 10 10.9167V11.75C10 11.9833 10.1833 12.1667 10.4167 12.1667H11.25C11.4833 12.1667 11.6667 11.9833 11.6667 11.75V10.9167C11.6667 10.6833 11.4833 10.5 11.25 10.5ZM8.33333 12.5833V13.4167C8.33333 13.65 8.51667 13.8333 8.75 13.8333H9.58333C9.81667 13.8333 10 13.65 10 13.4167V12.5833C10 12.35 9.81667 12.1667 9.58333 12.1667H8.75C8.51667 12.1667 8.33333 12.35 8.33333 12.5833ZM10.4167 15.5H11.25C11.4833 15.5 11.6667 15.3167 11.6667 15.0833V14.25C11.6667 14.0167 11.4833 13.8333 11.25 13.8333H10.4167C10.1833 13.8333 10 14.0167 10 14.25V15.0833C10 15.3167 10.1833 15.5 10.4167 15.5ZM12.0833 13.8333H12.9167C13.15 13.8333 13.3333 13.65 13.3333 13.4167V12.5833C13.3333 12.35 13.15 12.1667 12.9167 12.1667H12.0833C11.85 12.1667 11.6667 12.35 11.6667 12.5833V13.4167C11.6667 13.65 11.85 13.8333 12.0833 13.8333ZM12.9167 8.83333H12.0833C11.85 8.83333 11.6667 9.01667 11.6667 9.25V10.0833C11.6667 10.3167 11.85 10.5 12.0833 10.5H12.9167C13.15 10.5 13.3333 10.3167 13.3333 10.0833V9.25C13.3333 9.01667 13.15 8.83333 12.9167 8.83333ZM13.75 12.1667H14.5833C14.8167 12.1667 15 11.9833 15 11.75V10.9167C15 10.6833 14.8167 10.5 14.5833 10.5H13.75C13.5167 10.5 13.3333 10.6833 13.3333 10.9167V11.75C13.3333 11.9833 13.5167 12.1667 13.75 12.1667Z" fill="#1F40DA"/>
</svg>
