<svg width="710" height="1024" viewBox="0 0 710 1024" fill="none" xmlns="http://www.w3.org/2000/svg">
<g clip-path="url(#clip0_3680_32013)">
<mask id="mask0_3680_32013" style="mask-type:luminance" maskUnits="userSpaceOnUse" x="0" y="0" width="710" height="1024">
<path d="M710 0H0V1024H710V0Z" fill="white"/>
</mask>
<g mask="url(#mask0_3680_32013)">
<path d="M710 0H0V1024H710V0Z" fill="white"/>
<path d="M710 0H0V1024H710V0Z" fill="#F7F8FF"/>
<path d="M260.674 746.986C305.327 788.581 369.654 825.721 389.369 886.245C408.287 946.701 383.39 1030.61 330.17 1098.04C276.151 1165.39 192.936 1217.07 107.758 1216.77C23.3777 1216.54 -62.8902 1163.47 -113.398 1087.13C-163.831 1009.91 -178.504 909.431 -154.854 830.683C-131.205 751.935 -69.9573 693.98 -10.1588 662.242C49.7148 629.632 108.213 622.368 149.154 641.692C190.893 661.085 216.021 705.392 260.674 746.986Z" fill="#EEF1FE"/>
<path d="M225.585 802.992C267.794 842.13 328.591 877.085 347.243 934.017C365.141 990.885 341.648 1069.79 291.385 1133.19C240.368 1196.52 161.758 1245.09 81.2712 1244.78C1.53943 1244.53 -79.9963 1194.58 -127.75 1122.76C-175.434 1050.12 -189.337 955.608 -167.021 881.553C-144.704 807.497 -86.8526 753.013 -30.3603 723.185C26.2024 692.538 81.4756 685.728 120.169 703.918C159.615 722.174 183.375 763.855 225.585 802.992Z" fill="#E5ECFF"/>
<path d="M536.731 439.88C458.046 379.387 347.887 328.742 307.233 234.487C267.89 140.231 296.741 2.36435 374.115 -112.994C452.8 -228.352 581.319 -322.607 720.329 -333.862C858.028 -345.116 1006.22 -271.963 1099.33 -156.605C1192.44 -39.8398 1230.47 119.129 1202.93 248.555C1175.39 377.98 1083.59 479.27 990.481 538.356C897.37 598.849 802.948 618.544 733.443 593.221C662.627 567.899 615.416 500.372 536.731 439.88Z" fill="#EEF1FE"/>
<path d="M614.085 402.075C538.473 343.128 432.615 293.778 393.548 201.931C355.742 110.084 383.467 -24.2584 457.819 -136.668C533.432 -249.077 656.932 -340.924 790.515 -351.891C922.837 -362.858 1065.24 -291.574 1154.72 -179.164C1244.19 -65.3839 1280.74 89.5218 1254.27 215.639C1227.81 341.757 1139.59 440.458 1050.12 498.034C960.644 556.98 869.908 576.172 803.117 551.497C735.066 526.822 689.698 461.021 614.085 402.075Z" fill="#E5ECFF"/>
<g filter="url(#filter0_d_3680_32013)">
<path d="M273.881 419C271.672 419 269.881 420.791 269.881 423V486.762C269.881 491.134 275.891 492.337 277.573 488.302L282.295 476.975C282.916 475.485 284.372 474.515 285.987 474.515H352.493C354.702 474.515 356.493 472.724 356.493 470.515V423C356.493 420.791 354.702 419 352.493 419H273.881Z" fill="white"/>
</g>
<path d="M342.556 432.803H284.814" stroke="#FCB966" stroke-width="1.5" stroke-miterlimit="10" stroke-linecap="round" stroke-linejoin="round"/>
<path opacity="0.25" d="M332.6 438.721H284.814" stroke="#3A65FD" stroke-width="1.5" stroke-miterlimit="10" stroke-linecap="round" stroke-linejoin="round"/>
<path opacity="0.25" d="M332.6 456.467H284.814" stroke="#3A65FD" stroke-width="1.5" stroke-miterlimit="10" stroke-linecap="round" stroke-linejoin="round"/>
<path opacity="0.25" d="M342.556 444.635H284.814" stroke="#3A65FD" stroke-width="1.5" stroke-miterlimit="10" stroke-linecap="round" stroke-linejoin="round"/>
<path opacity="0.25" d="M342.556 462.383H284.814" stroke="#3A65FD" stroke-width="1.5" stroke-miterlimit="10" stroke-linecap="round" stroke-linejoin="round"/>
<path opacity="0.25" d="M325.632 450.551H284.814" stroke="#3A65FD" stroke-width="1.5" stroke-miterlimit="10" stroke-linecap="round" stroke-linejoin="round"/>
<g filter="url(#filter1_d_3680_32013)">
<path d="M97.6016 862.833C95.9447 862.833 94.5858 861.501 94.4974 859.847C94.1061 852.523 92.2453 832.303 83.3961 805.628C72.4854 772.754 17.4185 765.436 20.0943 720.404C20.208 718.491 22.1507 717.276 23.9062 718.045C54.5919 731.491 78.4214 775.897 83.8302 789.752C69.2957 734.088 73.7392 690.92 76.612 673.776C77.0748 671.014 80.3703 670.713 81.3676 673.329C86.9684 688.023 97.9549 722.773 96.5731 766.378C96.4613 769.904 102.556 771.448 104.027 768.241C125.636 721.133 143.243 703.517 151.096 697.472C152.943 696.05 155.082 697.521 154.69 699.819C152.359 713.481 144.907 750.75 129.97 772.293C116.575 791.624 105.43 796.762 100.278 798.125C98.6307 798.561 97.2245 800.023 97.2696 801.726C97.5233 811.306 98.7429 840.789 104.338 858.645C104.973 860.674 103.503 862.833 101.376 862.833H97.6016Z" fill="white"/>
</g>
<g filter="url(#filter2_d_3680_32013)">
<path d="M623.141 862.83C621.484 862.83 620.126 861.501 620.045 859.846C619.65 851.815 617.628 828.222 607.29 796.909C594.733 758.892 531.178 750.533 534.727 698.149C534.857 696.234 536.805 695.006 538.569 695.764C573.999 710.994 601.556 762.573 607.788 778.614C590.782 713.169 596.43 662.715 599.707 643.803C600.186 641.04 603.511 640.681 604.522 643.297C610.931 659.88 624.631 702.119 622.268 755.208C622.111 758.735 628.078 760.199 629.523 756.979C655.544 699.01 676.713 678.421 685.55 671.801C687.417 670.402 689.572 671.885 689.187 674.186C686.673 689.232 678.13 733.24 660.704 758.494C644.941 781.352 631.894 786.99 626.203 788.378C624.547 788.781 623.146 790.225 623.188 791.929C623.454 802.534 624.822 837.852 631.515 858.661C632.165 860.684 630.696 862.83 628.571 862.83H623.141Z" fill="white"/>
</g>
<g filter="url(#filter3_d_3680_32013)">
<path d="M272.121 862.955C273.777 862.955 275.133 861.634 275.205 859.979C275.608 850.685 277.933 820.383 291.327 779.801C307.239 731.614 388.09 721.202 382.764 654.26C382.612 652.347 380.667 651.1 378.894 651.836C333.778 670.551 298.611 736.353 290.699 756.724C312.827 671.547 304.54 606.501 300.505 584.518C299.999 581.76 296.631 581.438 295.596 584.045C287.684 603.981 268.242 661.282 272.773 733.436C272.994 736.959 267.262 738.431 265.845 735.198C230.691 654.988 202.154 628.744 191.509 621.167C189.608 619.814 187.448 621.341 187.824 623.643C190.685 641.185 201.441 698.692 223.967 731.345C244.621 761.301 261.576 767.811 268.273 769.221C269.94 769.572 271.336 771.002 271.297 772.706C271.01 785.157 269.352 832.172 260.413 858.805C259.737 860.819 261.205 862.955 263.33 862.955H272.121Z" fill="white"/>
</g>
<path d="M221.642 831.195L223.876 848.153L218.904 856.637L206.888 851.987L203.141 835.437" fill="#F0D7C9"/>
<path d="M249.521 860.042L223.319 845.012L218.346 851.986H206.886L205.641 862.52H248.842C250.222 862.51 250.705 860.715 249.521 860.042Z" fill="#1D1A4D"/>
<path d="M128.434 831.195L125.129 848.153L130.091 856.637L142.107 851.987L146.935 835.437" fill="#F0D7C9"/>
<path d="M234.717 665.871L215.083 691.455C214.404 692.342 213.992 693.403 213.92 694.514L212.242 717.284L205.199 669.419L215.135 652.941L214.136 649.668L210.378 637.33L229.734 630.09L230.908 633.536L237.055 651.585C238.733 656.439 237.847 661.782 234.717 665.871Z" fill="#F0D7C9"/>
<path d="M230.928 633.536L214.146 649.668L210.398 637.33L229.755 630.09L230.928 633.536Z" fill="#D68D83"/>
<path d="M225.224 835.581L201.481 839.405L182.825 760.042L178.192 740.352L178.079 739.852L147.809 841.403L124.016 834.938L146.141 693.833L147.809 683.147L208.102 682.26L208.75 688.082L225.224 835.581Z" fill="#A7B4E7"/>
<path d="M208.75 688.082L146.141 693.833L147.036 688.082L147.809 683.147L208.101 682.26L208.636 687.093L208.75 688.082Z" fill="#6578B6"/>
<path d="M208.638 687.092C195.552 688.968 156.304 688.285 147.027 688.091L147.81 683.156L208.092 682.269L208.638 687.092Z" fill="#1D1A4D"/>
<path d="M232.821 628.949L218.87 637.177L217.078 638.228L212.867 640.716V640.828L212.785 642.602L212.147 657.092L212.064 658.866L211.426 673.356L211.354 675.13L211.148 679.678C211.148 679.678 213.64 682.411 212.939 684.736C212.764 685.307 208.626 685.745 202.448 686.041C201.861 686.072 201.264 686.092 200.657 686.123C196.384 686.296 191.318 686.408 186.026 686.469C185.429 686.469 184.832 686.48 184.235 686.48C179.365 686.51 174.351 686.48 169.604 686.398C168.997 686.388 168.4 686.367 167.813 686.357C162.253 686.225 157.146 686.021 153.182 685.705C152.554 685.664 151.947 685.613 151.391 685.552C147.407 685.174 144.977 684.685 145.028 684.053C145.306 680.779 147.376 678.577 147.376 678.577L147.386 675.13L147.396 673.356L147.448 658.866L147.458 657.092L147.509 642.602V641.684L146.027 640.828L136.74 635.475L134.949 634.434L123.355 627.735L123.994 626.328L124.807 624.554L131.386 610.054L132.2 608.29L134.959 602.202L135.535 600.938C135.916 600.112 136.318 599.296 136.761 598.521C137.687 596.838 138.758 595.268 139.952 593.79C140.436 593.178 140.951 592.576 141.476 592.015C144.287 588.956 147.664 586.438 151.401 584.592C151.988 584.296 152.596 584.021 153.193 583.766C155.777 582.665 158.516 581.88 161.357 581.441L165.661 580.778L167.823 580.442L169.615 580.166L169.676 580.156L184.245 581.359L186.036 581.512L190.453 581.88L194.17 582.389C194.397 582.42 194.633 582.451 194.86 582.502C196.847 582.807 198.793 583.307 200.667 583.95C201.274 584.153 201.871 584.378 202.458 584.623C206.659 586.325 210.458 588.844 213.64 592.025C214.216 592.596 214.772 593.198 215.307 593.8C215.936 594.514 216.533 595.268 217.089 596.043C217.737 596.92 218.334 597.838 218.88 598.786C219.488 599.806 220.033 600.866 220.538 601.957L223.421 608.31L224.234 610.074L230.834 624.574L231.647 626.348L232.821 628.949Z" fill="#3A65FD"/>
<path opacity="0.25" d="M230.824 624.546H218.871V610.046H224.225L223.411 608.282H218.871V598.758C218.315 597.82 217.728 596.892 217.079 596.015V608.282H202.439V593.772H215.288C214.763 593.16 214.196 592.559 213.62 591.998H202.439V584.595C201.841 584.35 201.244 584.126 200.647 583.922V591.998H186.017V581.485L184.225 581.332V591.987H169.595V580.139L167.803 580.414V591.987H153.173V583.738C152.566 583.993 151.958 584.258 151.382 584.564V591.987H141.456C140.931 592.559 140.417 593.16 139.933 593.762H151.382V608.262H136.741V598.493C136.298 599.278 135.897 600.094 135.516 600.91L134.939 602.174V608.262H132.18L131.366 610.026H134.939V624.526H124.798L123.984 626.3H134.939V634.396L136.731 635.437V626.3H151.371V640.79H146.017L147.5 641.646V642.564H151.371V657.054H147.449L147.438 658.828H151.371V673.318H147.376L147.366 675.092H151.371V685.514C151.938 685.565 152.535 685.626 153.163 685.667V675.092H167.793V686.319C168.39 686.329 168.987 686.35 169.585 686.36V675.092H184.215V686.452C184.822 686.452 185.42 686.442 186.006 686.442V675.103H200.637V686.105C201.255 686.074 201.852 686.054 202.428 686.023V675.113H211.334L211.406 673.339H202.428V658.849H212.045L212.127 657.074H202.428V642.585H212.765L212.848 640.81H202.439V626.321H217.069V638.22L218.86 637.17V626.321H231.627L230.824 624.546ZM151.361 624.546H136.72V610.046H151.361V624.546ZM167.793 673.359H153.163V658.869H167.793V673.359ZM167.793 657.085H153.163V642.595H167.793V657.085ZM167.793 640.821H153.163V626.331H167.793V640.821ZM167.793 624.546H153.163V610.046H167.793V624.546ZM167.793 608.272H153.163V593.772H167.793V608.272ZM184.215 673.359H169.585V658.869H184.215V673.359ZM184.215 657.085H169.585V642.595H184.215V657.085ZM184.215 640.821H169.585V626.331H184.215V640.821ZM184.215 624.546H169.585V610.046H184.215V624.546ZM184.215 608.272H169.585V593.772H184.215V608.272ZM200.647 673.359H186.017V658.869H200.647V673.359ZM200.647 657.085H186.017V642.595H200.647V657.085ZM200.647 640.821H186.017V626.331H200.647V640.821ZM200.647 624.546H186.017V610.046H200.647V624.546ZM200.647 608.272H186.017V593.772H200.647V608.272ZM217.079 624.546H202.439V610.046H217.069V624.546H217.079Z" fill="white"/>
<path d="M194.84 582.472C193.44 588.315 190.145 594.005 182.567 593.943C170.254 593.841 166.599 584.542 165.631 580.759L169.657 580.137L190.433 581.85L194.15 582.36C194.377 582.39 194.614 582.421 194.84 582.472Z" fill="white"/>
<path d="M210.396 637.331L208.82 613.685" stroke="#1D1A4D" stroke-width="0.486735" stroke-miterlimit="10" stroke-linecap="round" stroke-linejoin="round"/>
<path d="M200.102 542.704C200.102 542.704 202.676 545.488 200.658 550.321C198.64 555.154 197.621 559.253 197.436 563.822C197.281 567.594 180.715 569.807 175.022 570.45C173.838 570.592 173.127 570.654 173.127 570.654L168.618 561.884C168.02 560.334 166.579 557.398 165.333 554.002C163.274 548.496 161.699 541.786 164.942 537.84C170.183 531.457 176.031 534.281 184.988 529.917C193.945 525.532 198.455 521.464 203.603 527.449C208.751 533.425 200.102 542.704 200.102 542.704Z" fill="#1D1A4D"/>
<path d="M176.534 568.555L175.02 570.452C173.836 570.595 173.126 570.656 173.126 570.656L168.616 561.886C168.019 560.337 166.578 557.4 165.332 554.004C169.78 552.21 172.858 547.601 172.858 547.601L176.534 568.555Z" fill="#1D1A4D"/>
<path d="M190.422 581.848C190.422 581.848 190.844 590.526 181.361 590.179C171.889 589.833 169.645 580.135 169.645 580.135L172.27 579.585C172.27 579.585 173.227 569.255 172.27 561.883L190.432 571.04C190.257 571.203 190.092 571.397 189.948 571.6C187.837 574.476 188.074 581.022 188.074 581.022L190.422 581.848Z" fill="#F0D7C9"/>
<path d="M188.078 581.023C176.393 581.359 173.129 567.828 173.129 567.828L189.952 571.601C187.842 574.466 188.078 581.023 188.078 581.023Z" fill="#D68D83"/>
<path d="M198.639 562.651C198.67 564.334 198.587 565.955 198.361 567.464C197.414 573.695 194.057 578.11 185.944 577.467C173.97 576.519 171.798 564.864 171.798 564.864C171.798 564.864 168.719 567.413 165.723 564.497C162.737 561.581 164.251 557.155 167.154 556.656C168.719 556.39 170.253 557.961 171.355 559.47C171.818 560.133 172.868 559.796 172.868 558.991V547.59C172.868 547.59 187.447 548.192 196.096 545.041C196.147 545.021 196.188 545.011 196.25 544.99C197.63 546.255 198.145 547.937 198.299 549.783C198.505 552.352 198.042 555.228 198.32 557.645C198.495 559.327 198.629 561.02 198.639 562.651Z" fill="#F0D7C9"/>
<path d="M189.949 564.953L191.102 564.28C191.875 563.831 192.194 562.883 191.833 562.067L189.949 557.754" stroke="#C85E5E" stroke-width="0.486735" stroke-miterlimit="9" stroke-linecap="round"/>
<path d="M185.8 560.811C185.8 561.382 185.429 561.841 184.976 561.841C184.523 561.841 184.152 561.382 184.152 560.811C184.152 560.24 184.523 559.781 184.976 559.781C185.429 559.791 185.8 560.25 185.8 560.811Z" fill="#1D1A4D"/>
<path d="M194.851 561.355C195.306 561.355 195.675 560.894 195.675 560.325C195.675 559.756 195.306 559.295 194.851 559.295C194.396 559.295 194.027 559.756 194.027 560.325C194.027 560.894 194.396 561.355 194.851 561.355Z" fill="#1D1A4D"/>
<path d="M166.166 559.794C167.927 558.805 170.068 560.477 169.646 562.975" stroke="#C85E5E" stroke-width="0.486735" stroke-miterlimit="9" stroke-linecap="round"/>
<path d="M186.016 569.604C186.016 569.604 188.322 571.93 191.4 570.104" stroke="#C85E5E" stroke-width="0.486735" stroke-miterlimit="9" stroke-linecap="round"/>
<path d="M180.953 556.367C180.953 556.367 182.662 553.807 186.08 554.939" stroke="#1D1A4D" stroke-width="0.730195" stroke-miterlimit="10" stroke-linecap="round" stroke-linejoin="round"/>
<path d="M197.425 555.073C197.425 555.073 195.386 552.839 192.102 554.89" stroke="#1D1A4D" stroke-width="0.730195" stroke-miterlimit="10" stroke-linecap="round" stroke-linejoin="round"/>
<path d="M181.376 567.829C182.98 567.829 184.28 566.542 184.28 564.954C184.28 563.366 182.98 562.078 181.376 562.078C179.773 562.078 178.473 563.366 178.473 564.954C178.473 566.542 179.773 567.829 181.376 567.829Z" fill="#EAB7C0"/>
<path d="M198.64 562.649C198.671 564.332 198.588 565.953 198.362 567.462C197.94 567.686 197.456 567.829 196.931 567.829C195.335 567.829 194.027 566.544 194.027 564.954C194.027 563.373 195.325 562.078 196.931 562.078C197.569 562.078 198.156 562.282 198.64 562.649Z" fill="#EAB7C0"/>
<path d="M204.819 659.342H189.9C188.109 659.342 186.956 657.905 187.316 656.13L193.638 625.276C193.998 623.501 195.748 622.062 197.529 622.062H214.59C216.381 622.062 217.534 623.501 217.174 625.276L208.711 656.13C208.35 657.905 206.61 659.342 204.819 659.342Z" fill="#1D1A4D"/>
<path d="M206.959 660.659H192.041C190.249 660.659 189.096 659.221 189.457 657.447L195.778 626.591C196.139 624.817 197.889 623.379 199.67 623.379H214.589C216.38 623.379 217.533 624.817 217.173 626.591L210.851 657.447C210.491 659.221 208.751 660.659 206.959 660.659Z" fill="#2B42AE"/>
<path d="M203.323 654.432C203.323 657.481 199.637 660.173 199.637 660.173C199.637 660.173 200.513 664.333 193.573 665.73C186.623 667.148 179.581 661.182 179.581 661.182L134.732 670.553C133.569 670.798 132.395 670.92 131.242 670.92C126.218 670.92 121.368 668.687 118.125 664.731C114.058 659.775 113.194 652.943 115.912 647.151L122.388 633.294L124.643 628.471L147.52 641.676L145.883 644.459L143.515 648.508L179.818 647.233C179.818 647.233 183.545 644.674 185.944 641.533C188.343 638.382 189.208 637.658 191.102 638.841C192.986 640.024 190.917 645.408 189.311 647.457C195.107 650.649 202.067 648.181 204.868 648.589C207.648 649.007 207.689 652.291 203.323 654.432Z" fill="#F0D7C9"/>
<path d="M203.312 654.432C199.749 655.961 190.977 654.595 188.496 652.953" stroke="#C85E5E" stroke-width="0.486735" stroke-miterlimit="9" stroke-linecap="round"/>
<path d="M199.641 660.173C194.72 661.131 189.191 660.815 186.391 658.031" stroke="#C85E5E" stroke-width="0.486735" stroke-miterlimit="9" stroke-linecap="round"/>
<path d="M198.042 636.83C197.116 636.83 196.508 636.086 196.693 635.168L197.888 629.162C198.073 628.244 198.969 627.5 199.895 627.5C200.822 627.5 201.43 628.244 201.244 629.162L200.05 635.168C199.875 636.086 198.969 636.83 198.042 636.83Z" fill="#445EC7"/>
<path d="M143.484 648.506H131.428" stroke="#C85E5E" stroke-width="0.486735" stroke-miterlimit="9" stroke-linecap="round"/>
<path d="M215.145 652.95L221.549 645.221" stroke="#C85E5E" stroke-width="0.486735" stroke-miterlimit="9" stroke-linecap="round"/>
<path d="M147.49 641.664L160.556 616.783" stroke="#1D1A4D" stroke-width="0.486735" stroke-miterlimit="10" stroke-linecap="round" stroke-linejoin="round"/>
<path d="M147.489 641.676L145.852 644.46L122.367 633.284L124.612 628.461L147.489 641.676Z" fill="#D68D83"/>
<path d="M178.078 739.85L186.377 713.053" stroke="#1D1A4D" stroke-width="0.486735" stroke-miterlimit="10" stroke-linecap="round" stroke-linejoin="round"/>
<path d="M99.4699 860.042L125.673 845.012L130.646 851.986H142.105L143.351 862.52H100.149C98.7801 862.51 98.2859 860.715 99.4699 860.042Z" fill="#1D1A4D"/>
<path d="M147.326 842.094L124.263 837.393C122.698 837.077 121.689 835.557 122.008 834.008L122.76 830.377C123.079 828.828 124.613 827.828 126.178 828.144L149.241 832.845C150.806 833.161 151.815 834.681 151.495 836.23L150.744 839.861C150.425 841.421 148.891 842.41 147.326 842.094Z" fill="#A7B4E7"/>
<path d="M125.725 828.104L149.693 832.988" stroke="#1D1A4D" stroke-width="0.486735" stroke-miterlimit="10" stroke-linecap="round" stroke-linejoin="round"/>
<path d="M225.565 837.721L202.409 841.973C200.834 842.259 199.331 841.229 199.032 839.679L198.353 836.039C198.064 834.479 199.104 832.99 200.669 832.694L223.825 828.442C225.4 828.157 226.903 829.186 227.202 830.736L227.881 834.377C228.169 835.937 227.14 837.436 225.565 837.721Z" fill="#A7B4E7"/>
<path d="M200.238 832.816L224.289 828.4" stroke="#1D1A4D" stroke-width="0.486735" stroke-miterlimit="10" stroke-linecap="round" stroke-linejoin="round"/>
<path d="M154.027 676.711L206.588 669.053" stroke="#1D1A4D" stroke-width="0.486735" stroke-miterlimit="10" stroke-linecap="round" stroke-linejoin="round"/>
<path d="M185.728 716.336L182.825 760.04L178.191 740.35L178.222 739.35L185.728 716.336Z" fill="#6578B6"/>
<path d="M389.246 585.541L377.809 628.215C375.986 635.017 368.82 638.963 362.025 636.913L354.312 634.588L377.603 580.32L389.246 585.541Z" fill="#F0D7C9"/>
<path d="M382.247 573.702C381.331 572.56 374.052 576.394 372.301 576.802C370.551 577.21 372.116 581.533 375.339 581.105C378.561 580.677 379.57 577.312 379.57 577.312L382.247 573.702Z" fill="#D68D83"/>
<path d="M376.904 564.527L376.688 592.436L379.725 591.793V564.537C379.725 563.935 379.334 563.395 378.747 563.212C377.841 562.926 376.904 563.589 376.904 564.527Z" fill="#1D1A4D"/>
<path d="M381.239 574.182C381.239 574.182 371.942 583.41 373.733 586.081C375.525 588.743 381.259 583.889 382.361 582.39C382.227 585.47 386.191 588.355 388.569 587.998C392.163 587.448 393.604 583.828 392.502 582.186C391.401 580.545 384.698 576.721 384.698 576.721C384.698 576.721 383.02 571.724 381.239 574.182Z" fill="#F0D7C9"/>
<path d="M290.481 831.195L287.166 848.153L292.139 856.637L304.144 851.987L308.983 835.437" fill="#F0D7C9"/>
<path d="M261.518 860.042L287.721 845.012L292.694 851.986H304.153L305.399 862.52H262.198C260.818 862.51 260.324 860.715 261.518 860.042Z" fill="#1D1A4D"/>
<path d="M403.24 831.195L406.555 848.153L401.582 856.637L389.567 851.987L384.738 835.437" fill="#F0D7C9"/>
<path d="M432.203 860.042L406 845.012L401.027 851.986H389.568L388.322 862.52H431.524C432.903 862.51 433.387 860.715 432.203 860.042Z" fill="#1D1A4D"/>
<path d="M405.402 825.19L380.641 830.554L342.845 705.213L312.678 828.402L288.133 824.823L303.896 693.864L306.315 673.694L343.01 670.911L367.658 669.055L368.121 670.911L368.378 672.002L405.402 825.19Z" fill="#3A65FD"/>
<path d="M368.378 672.001L303.895 693.863L306.315 673.694L343.009 670.91H368.121L368.378 672.001Z" fill="#4257B2"/>
<path d="M370.035 668.065C370.251 669.636 369.149 671.094 367.543 671.328L308.425 679.945C306.417 680.23 304.625 678.65 304.708 676.631L306.407 630.714L307.652 597.268L316.682 577.741L318.556 573.703H339.291L341.557 573.999C342.123 574.07 342.679 574.162 343.235 574.264C352.182 575.967 359.832 581.708 363.929 589.835L376.707 615.307L364.547 627.482L370.035 668.065Z" fill="#FCB966"/>
<path d="M315.221 592.139C314.84 593.057 314.675 594.046 314.758 595.035L317.033 624.545L315.128 625.646L306.408 630.714L295.484 637.057L293.651 638.117L290.192 608.719C288.678 595.82 295.711 583.431 307.613 578.006L314.984 574.641L318.567 573.01L321.131 573.693L322.644 574.101L319.71 581.198L315.221 592.139Z" fill="#FCB966"/>
<mask id="mask1_3680_32013" style="mask-type:luminance" maskUnits="userSpaceOnUse" x="289" y="573" width="88" height="108">
<path d="M364.531 627.499L376.69 615.324L363.913 589.852C359.825 581.725 352.165 575.984 343.218 574.281C342.662 574.169 342.106 574.087 341.54 574.016L339.275 573.72H321.123L318.56 573.037L314.977 574.669L307.605 578.034C295.693 583.458 288.671 595.848 290.184 608.747L293.644 638.144L306.4 630.741L304.701 676.658C304.629 678.667 306.411 680.258 308.418 679.972L367.537 671.356C369.133 671.121 370.245 669.663 370.028 668.093L364.531 627.499Z" fill="white"/>
</mask>
<g mask="url(#mask1_3680_32013)">
<path opacity="0.25" d="M295.219 667.369C295.219 668.542 294.261 669.49 293.077 669.49C291.893 669.49 290.936 668.542 290.936 667.369C290.936 666.196 291.893 665.248 293.077 665.248C294.261 665.258 295.219 666.207 295.219 667.369Z" fill="white"/>
<path opacity="0.25" d="M307.892 667.369C307.892 668.542 306.935 669.49 305.751 669.49C304.567 669.49 303.609 668.542 303.609 667.369C303.609 666.196 304.567 665.248 305.751 665.248C306.935 665.248 307.892 666.207 307.892 667.369Z" fill="white"/>
<path opacity="0.25" d="M320.557 667.369C320.557 668.542 319.599 669.49 318.415 669.49C317.231 669.49 316.273 668.542 316.273 667.369C316.273 666.196 317.231 665.248 318.415 665.248C319.599 665.258 320.557 666.207 320.557 667.369Z" fill="white"/>
<path opacity="0.25" d="M333.23 667.369C333.23 668.542 332.273 669.49 331.089 669.49C329.905 669.49 328.947 668.542 328.947 667.369C328.947 666.196 329.905 665.248 331.089 665.248C332.273 665.258 333.23 666.207 333.23 667.369Z" fill="white"/>
<path opacity="0.25" d="M345.906 667.369C345.906 668.542 344.949 669.49 343.765 669.49C342.581 669.49 341.623 668.542 341.623 667.369C341.623 666.196 342.581 665.248 343.765 665.248C344.949 665.248 345.906 666.207 345.906 667.369Z" fill="white"/>
<path opacity="0.25" d="M358.57 667.369C358.57 668.542 357.613 669.49 356.429 669.49C355.245 669.49 354.287 668.542 354.287 667.369C354.287 666.196 355.245 665.248 356.429 665.248C357.613 665.258 358.57 666.207 358.57 667.369Z" fill="white"/>
<path opacity="0.25" d="M371.244 667.369C371.244 668.542 370.287 669.49 369.102 669.49C367.918 669.49 366.961 668.542 366.961 667.369C366.961 666.196 367.918 665.248 369.102 665.248C370.287 665.258 371.244 666.207 371.244 667.369Z" fill="white"/>
<path opacity="0.25" d="M295.219 655.662C295.219 656.835 294.261 657.783 293.077 657.783C291.893 657.783 290.936 656.835 290.936 655.662C290.936 654.489 291.893 653.541 293.077 653.541C294.261 653.541 295.219 654.489 295.219 655.662Z" fill="white"/>
<path opacity="0.25" d="M307.892 655.662C307.892 656.835 306.935 657.783 305.751 657.783C304.567 657.783 303.609 656.835 303.609 655.662C303.609 654.489 304.567 653.541 305.751 653.541C306.935 653.541 307.892 654.489 307.892 655.662Z" fill="white"/>
<path opacity="0.25" d="M320.557 655.662C320.557 656.835 319.599 657.783 318.415 657.783C317.231 657.783 316.273 656.835 316.273 655.662C316.273 654.489 317.231 653.541 318.415 653.541C319.599 653.541 320.557 654.489 320.557 655.662Z" fill="white"/>
<path opacity="0.25" d="M333.23 655.662C333.23 656.835 332.273 657.783 331.089 657.783C329.905 657.783 328.947 656.835 328.947 655.662C328.947 654.489 329.905 653.541 331.089 653.541C332.273 653.541 333.23 654.489 333.23 655.662Z" fill="white"/>
<path opacity="0.25" d="M345.906 655.662C345.906 656.835 344.949 657.783 343.765 657.783C342.581 657.783 341.623 656.835 341.623 655.662C341.623 654.489 342.581 653.541 343.765 653.541C344.949 653.541 345.906 654.489 345.906 655.662Z" fill="white"/>
<path opacity="0.25" d="M358.57 655.662C358.57 656.835 357.613 657.783 356.429 657.783C355.245 657.783 354.287 656.835 354.287 655.662C354.287 654.489 355.245 653.541 356.429 653.541C357.613 653.541 358.57 654.489 358.57 655.662Z" fill="white"/>
<path opacity="0.25" d="M371.244 655.662C371.244 656.835 370.287 657.783 369.102 657.783C367.918 657.783 366.961 656.835 366.961 655.662C366.961 654.489 367.918 653.541 369.102 653.541C370.287 653.541 371.244 654.489 371.244 655.662Z" fill="white"/>
<path opacity="0.25" d="M293.077 646.08C294.26 646.08 295.219 645.13 295.219 643.959C295.219 642.787 294.26 641.838 293.077 641.838C291.894 641.838 290.936 642.787 290.936 643.959C290.936 645.13 291.894 646.08 293.077 646.08Z" fill="white"/>
<path opacity="0.25" d="M307.892 643.959C307.892 645.131 306.935 646.08 305.751 646.08C304.567 646.08 303.609 645.131 303.609 643.959C303.609 642.786 304.567 641.838 305.751 641.838C306.935 641.838 307.892 642.786 307.892 643.959Z" fill="white"/>
<path opacity="0.25" d="M320.557 643.959C320.557 645.131 319.599 646.08 318.415 646.08C317.231 646.08 316.273 645.131 316.273 643.959C316.273 642.786 317.231 641.838 318.415 641.838C319.599 641.838 320.557 642.786 320.557 643.959Z" fill="white"/>
<path opacity="0.25" d="M333.23 643.959C333.23 645.131 332.273 646.08 331.089 646.08C329.905 646.08 328.947 645.131 328.947 643.959C328.947 642.786 329.905 641.838 331.089 641.838C332.273 641.838 333.23 642.786 333.23 643.959Z" fill="white"/>
<path opacity="0.25" d="M345.904 643.959C345.904 645.131 344.947 646.08 343.763 646.08C342.579 646.08 341.621 645.131 341.621 643.959C341.621 642.786 342.579 641.838 343.763 641.838C344.947 641.838 345.904 642.786 345.904 643.959Z" fill="white"/>
<path opacity="0.25" d="M356.429 646.08C357.611 646.08 358.57 645.13 358.57 643.959C358.57 642.787 357.611 641.838 356.429 641.838C355.246 641.838 354.287 642.787 354.287 643.959C354.287 645.13 355.246 646.08 356.429 646.08Z" fill="white"/>
<path opacity="0.25" d="M369.102 646.08C370.285 646.08 371.244 645.13 371.244 643.959C371.244 642.787 370.285 641.838 369.102 641.838C367.92 641.838 366.961 642.787 366.961 643.959C366.961 645.13 367.92 646.08 369.102 646.08Z" fill="white"/>
<path opacity="0.25" d="M293.077 634.361C294.26 634.361 295.219 633.411 295.219 632.24C295.219 631.069 294.26 630.119 293.077 630.119C291.894 630.119 290.936 631.069 290.936 632.24C290.936 633.411 291.894 634.361 293.077 634.361Z" fill="white"/>
<path opacity="0.25" d="M307.892 632.24C307.892 633.413 306.935 634.361 305.751 634.361C304.567 634.361 303.609 633.413 303.609 632.24C303.609 631.067 304.567 630.119 305.751 630.119C306.935 630.119 307.892 631.078 307.892 632.24Z" fill="white"/>
<path opacity="0.25" d="M320.557 632.24C320.557 633.413 319.599 634.361 318.415 634.361C317.231 634.361 316.273 633.413 316.273 632.24C316.273 631.067 317.231 630.119 318.415 630.119C319.599 630.129 320.557 631.078 320.557 632.24Z" fill="white"/>
<path opacity="0.25" d="M333.23 632.24C333.23 633.413 332.273 634.361 331.089 634.361C329.905 634.361 328.947 633.413 328.947 632.24C328.947 631.067 329.905 630.119 331.089 630.119C332.273 630.129 333.23 631.078 333.23 632.24Z" fill="white"/>
<path opacity="0.25" d="M345.904 632.24C345.904 633.413 344.947 634.361 343.763 634.361C342.579 634.361 341.621 633.413 341.621 632.24C341.621 631.067 342.579 630.119 343.763 630.119C344.947 630.119 345.904 631.078 345.904 632.24Z" fill="white"/>
<path opacity="0.25" d="M356.429 634.361C357.611 634.361 358.57 633.411 358.57 632.24C358.57 631.069 357.611 630.119 356.429 630.119C355.246 630.119 354.287 631.069 354.287 632.24C354.287 633.411 355.246 634.361 356.429 634.361Z" fill="white"/>
<path opacity="0.25" d="M369.102 634.361C370.285 634.361 371.244 633.411 371.244 632.24C371.244 631.069 370.285 630.119 369.102 630.119C367.92 630.119 366.961 631.069 366.961 632.24C366.961 633.411 367.92 634.361 369.102 634.361Z" fill="white"/>
<path opacity="0.25" d="M295.219 620.531C295.219 621.704 294.261 622.652 293.077 622.652C291.893 622.652 290.936 621.704 290.936 620.531C290.936 619.358 291.893 618.41 293.077 618.41C294.261 618.41 295.219 619.358 295.219 620.531Z" fill="white"/>
<path opacity="0.25" d="M307.892 620.531C307.892 621.704 306.935 622.652 305.751 622.652C304.567 622.652 303.609 621.704 303.609 620.531C303.609 619.358 304.567 618.41 305.751 618.41C306.935 618.41 307.892 619.358 307.892 620.531Z" fill="white"/>
<path opacity="0.25" d="M320.557 620.531C320.557 621.704 319.599 622.652 318.415 622.652C317.231 622.652 316.273 621.704 316.273 620.531C316.273 619.358 317.231 618.41 318.415 618.41C319.599 618.41 320.557 619.358 320.557 620.531Z" fill="white"/>
<path opacity="0.25" d="M333.232 620.531C333.232 621.704 332.275 622.652 331.091 622.652C329.907 622.652 328.949 621.704 328.949 620.531C328.949 619.358 329.907 618.41 331.091 618.41C332.275 618.41 333.232 619.358 333.232 620.531Z" fill="white"/>
<path opacity="0.25" d="M345.904 620.531C345.904 621.704 344.947 622.652 343.763 622.652C342.579 622.652 341.621 621.704 341.621 620.531C341.621 619.358 342.579 618.41 343.763 618.41C344.947 618.41 345.904 619.358 345.904 620.531Z" fill="white"/>
<path opacity="0.25" d="M358.57 620.531C358.57 621.704 357.613 622.652 356.429 622.652C355.245 622.652 354.287 621.704 354.287 620.531C354.287 619.358 355.245 618.41 356.429 618.41C357.613 618.41 358.57 619.358 358.57 620.531Z" fill="white"/>
<path opacity="0.25" d="M371.244 620.531C371.244 621.704 370.287 622.652 369.102 622.652C367.918 622.652 366.961 621.704 366.961 620.531C366.961 619.358 367.918 618.41 369.102 618.41C370.287 618.41 371.244 619.358 371.244 620.531Z" fill="white"/>
<path opacity="0.25" d="M295.219 608.828C295.219 610.001 294.261 610.949 293.077 610.949C291.893 610.949 290.936 610.001 290.936 608.828C290.936 607.655 291.893 606.707 293.077 606.707C294.261 606.707 295.219 607.655 295.219 608.828Z" fill="white"/>
<path opacity="0.25" d="M307.892 608.828C307.892 610.001 306.935 610.949 305.751 610.949C304.567 610.949 303.609 610.001 303.609 608.828C303.609 607.655 304.567 606.707 305.751 606.707C306.935 606.707 307.892 607.655 307.892 608.828Z" fill="white"/>
<path opacity="0.25" d="M320.557 608.828C320.557 610.001 319.599 610.949 318.415 610.949C317.231 610.949 316.273 610.001 316.273 608.828C316.273 607.655 317.231 606.707 318.415 606.707C319.599 606.707 320.557 607.655 320.557 608.828Z" fill="white"/>
<path opacity="0.25" d="M333.23 608.828C333.23 610.001 332.273 610.949 331.089 610.949C329.905 610.949 328.947 610.001 328.947 608.828C328.947 607.655 329.905 606.707 331.089 606.707C332.273 606.707 333.23 607.655 333.23 608.828Z" fill="white"/>
<path opacity="0.25" d="M345.904 608.828C345.904 610.001 344.947 610.949 343.763 610.949C342.579 610.949 341.621 610.001 341.621 608.828C341.621 607.655 342.579 606.707 343.763 606.707C344.947 606.707 345.904 607.655 345.904 608.828Z" fill="white"/>
<path opacity="0.25" d="M358.57 608.828C358.57 610.001 357.613 610.949 356.429 610.949C355.245 610.949 354.287 610.001 354.287 608.828C354.287 607.655 355.245 606.707 356.429 606.707C357.613 606.707 358.57 607.655 358.57 608.828Z" fill="white"/>
<path opacity="0.25" d="M371.244 608.828C371.244 610.001 370.287 610.949 369.102 610.949C367.918 610.949 366.961 610.001 366.961 608.828C366.961 607.655 367.918 606.707 369.102 606.707C370.287 606.707 371.244 607.655 371.244 608.828Z" fill="white"/>
<path opacity="0.25" d="M293.077 599.244C294.26 599.244 295.219 598.294 295.219 597.123C295.219 595.952 294.26 595.002 293.077 595.002C291.894 595.002 290.936 595.952 290.936 597.123C290.936 598.294 291.894 599.244 293.077 599.244Z" fill="white"/>
<path opacity="0.25" d="M307.892 597.123C307.892 598.296 306.935 599.244 305.751 599.244C304.567 599.244 303.609 598.296 303.609 597.123C303.609 595.95 304.567 595.002 305.751 595.002C306.935 595.002 307.892 595.95 307.892 597.123Z" fill="white"/>
<path opacity="0.25" d="M320.557 597.123C320.557 598.296 319.599 599.244 318.415 599.244C317.231 599.244 316.273 598.296 316.273 597.123C316.273 595.95 317.231 595.002 318.415 595.002C319.599 595.002 320.557 595.95 320.557 597.123Z" fill="white"/>
<path opacity="0.25" d="M333.23 597.123C333.23 598.296 332.273 599.244 331.089 599.244C329.905 599.244 328.947 598.296 328.947 597.123C328.947 595.95 329.905 595.002 331.089 595.002C332.273 595.002 333.23 595.95 333.23 597.123Z" fill="white"/>
<path opacity="0.25" d="M345.906 597.123C345.906 598.296 344.949 599.244 343.765 599.244C342.581 599.244 341.623 598.296 341.623 597.123C341.623 595.95 342.581 595.002 343.765 595.002C344.949 595.002 345.906 595.95 345.906 597.123Z" fill="white"/>
<path opacity="0.25" d="M356.429 599.244C357.611 599.244 358.57 598.294 358.57 597.123C358.57 595.952 357.611 595.002 356.429 595.002C355.246 595.002 354.287 595.952 354.287 597.123C354.287 598.294 355.246 599.244 356.429 599.244Z" fill="white"/>
<path opacity="0.25" d="M369.102 599.244C370.285 599.244 371.244 598.294 371.244 597.123C371.244 595.952 370.285 595.002 369.102 595.002C367.92 595.002 366.961 595.952 366.961 597.123C366.961 598.294 367.92 599.244 369.102 599.244Z" fill="white"/>
<path opacity="0.25" d="M293.077 587.527C294.26 587.527 295.219 586.577 295.219 585.406C295.219 584.235 294.26 583.285 293.077 583.285C291.894 583.285 290.936 584.235 290.936 585.406C290.936 586.577 291.894 587.527 293.077 587.527Z" fill="white"/>
<path opacity="0.25" d="M307.892 585.406C307.892 586.579 306.935 587.527 305.751 587.527C304.567 587.527 303.609 586.579 303.609 585.406C303.609 584.233 304.567 583.285 305.751 583.285C306.935 583.285 307.892 584.233 307.892 585.406Z" fill="white"/>
<path opacity="0.25" d="M320.557 585.406C320.557 586.579 319.599 587.527 318.415 587.527C317.231 587.527 316.273 586.579 316.273 585.406C316.273 584.233 317.231 583.285 318.415 583.285C319.599 583.285 320.557 584.233 320.557 585.406Z" fill="white"/>
<path opacity="0.25" d="M333.23 585.406C333.23 586.579 332.273 587.527 331.089 587.527C329.905 587.527 328.947 586.579 328.947 585.406C328.947 584.233 329.905 583.285 331.089 583.285C332.273 583.285 333.23 584.233 333.23 585.406Z" fill="white"/>
<path opacity="0.25" d="M345.906 585.406C345.906 586.579 344.949 587.527 343.765 587.527C342.581 587.527 341.623 586.579 341.623 585.406C341.623 584.233 342.581 583.285 343.765 583.285C344.949 583.285 345.906 584.233 345.906 585.406Z" fill="white"/>
<path opacity="0.25" d="M356.429 587.527C357.611 587.527 358.57 586.577 358.57 585.406C358.57 584.235 357.611 583.285 356.429 583.285C355.246 583.285 354.287 584.235 354.287 585.406C354.287 586.577 355.246 587.527 356.429 587.527Z" fill="white"/>
<path opacity="0.25" d="M369.102 587.527C370.285 587.527 371.244 586.577 371.244 585.406C371.244 584.235 370.285 583.285 369.102 583.285C367.92 583.285 366.961 584.235 366.961 585.406C366.961 586.577 367.92 587.527 369.102 587.527Z" fill="white"/>
<path opacity="0.25" d="M295.219 573.699C295.219 574.872 294.261 575.82 293.077 575.82C291.893 575.82 290.936 574.872 290.936 573.699C290.936 572.526 291.893 571.578 293.077 571.578C294.261 571.578 295.219 572.526 295.219 573.699Z" fill="white"/>
<path opacity="0.25" d="M307.892 573.699C307.892 574.872 306.935 575.82 305.751 575.82C304.567 575.82 303.609 574.872 303.609 573.699C303.609 572.526 304.567 571.578 305.751 571.578C306.935 571.578 307.892 572.526 307.892 573.699Z" fill="white"/>
<path opacity="0.25" d="M320.557 573.699C320.557 574.872 319.599 575.82 318.415 575.82C317.231 575.82 316.273 574.872 316.273 573.699C316.273 572.526 317.231 571.578 318.415 571.578C319.599 571.578 320.557 572.526 320.557 573.699Z" fill="white"/>
<path opacity="0.25" d="M333.232 573.699C333.232 574.872 332.275 575.82 331.091 575.82C329.907 575.82 328.949 574.872 328.949 573.699C328.949 572.526 329.907 571.578 331.091 571.578C332.275 571.578 333.232 572.526 333.232 573.699Z" fill="white"/>
<path opacity="0.25" d="M345.906 573.699C345.906 574.872 344.949 575.82 343.765 575.82C342.581 575.82 341.623 574.872 341.623 573.699C341.623 572.526 342.581 571.578 343.765 571.578C344.949 571.578 345.906 572.526 345.906 573.699Z" fill="white"/>
<path opacity="0.25" d="M358.57 573.699C358.57 574.872 357.613 575.82 356.429 575.82C355.245 575.82 354.287 574.872 354.287 573.699C354.287 572.526 355.245 571.578 356.429 571.578C357.613 571.578 358.57 572.526 358.57 573.699Z" fill="white"/>
<path opacity="0.25" d="M371.244 573.699C371.244 574.872 370.287 575.82 369.102 575.82C367.918 575.82 366.961 574.872 366.961 573.699C366.961 572.526 367.918 571.578 369.102 571.578C370.287 571.578 371.244 572.526 371.244 573.699Z" fill="white"/>
</g>
<path d="M346.953 621.304L359.576 593.711C360.06 592.651 360.997 591.855 362.129 591.549L413.464 577.6C414.329 577.365 416.11 579.486 415.709 580.292L397.032 614.635C396.435 615.838 395.395 616.777 394.129 617.256L345.852 635.386L346.953 621.304Z" fill="#1D1A4D"/>
<path d="M347.869 623.33L360.492 595.737C360.976 594.677 361.913 593.881 363.045 593.576L414.38 579.626C415.245 579.392 415.997 580.279 415.595 581.084L397.948 616.661C397.351 617.865 396.311 618.803 395.045 619.282L346.768 637.412L347.869 623.33Z" fill="#2B42AE"/>
<path d="M360.338 629.837C360.338 629.837 361.378 632.233 356.271 636.883C351.154 641.532 343.422 638.524 343.422 638.524L322.912 653.932C320.009 656.083 316.539 657.185 313.059 657.185C310.465 657.185 307.87 656.583 305.482 655.349C301.085 653.086 297.966 648.986 296.967 644.184L296.823 643.49L295.484 637.046L306.408 630.703L315.129 625.635L315.417 627.247L316.776 634.69L339.077 623.882C339.077 623.882 343.566 616.764 345.707 614.245C347.849 611.717 350.258 611.309 351.02 612.95C351.792 614.592 346.953 621.292 346.953 621.292C346.953 621.292 348.745 621.149 354.14 619.303C359.524 617.457 363.046 613.634 364.487 614.796C365.939 615.969 365.115 619.303 363.179 621.914C363.663 626.492 360.338 629.837 360.338 629.837Z" fill="#F0D7C9"/>
<path d="M315.417 627.258L296.823 643.501L295.484 637.057L306.408 630.714L315.119 625.646L315.417 627.258Z" fill="#D68D83"/>
<path d="M343.216 574.274C342.361 579.066 339.633 583.9 332.312 584.685C326.526 585.317 322.49 583.585 319.71 581.219C318.454 580.138 317.445 578.924 316.673 577.751C315.942 576.66 315.386 575.589 314.984 574.651L318.567 573.021L321.131 573.703H339.282L341.548 573.998C342.104 574.08 342.67 574.162 343.216 574.274Z" fill="white"/>
<path d="M332.869 581.432C322.718 582.554 318.568 573.021 318.568 573.021L320.648 572.133C320.648 572.133 320.998 564.128 320.236 559.479L323.14 560.214L337.43 563.854C336.112 566.913 336.452 571.205 336.617 572.571C336.648 572.847 336.668 573.01 336.668 573.01L339.284 573.693C339.284 573.703 339.706 580.678 332.869 581.432Z" fill="#F0D7C9"/>
<path d="M336.618 572.582C330.893 572.714 323.624 570.736 321.401 563.333C320.896 561.651 321.648 560.692 323.141 560.213L337.431 563.853C336.103 566.922 336.453 571.205 336.618 572.582Z" fill="#D68D83"/>
<path d="M317.816 554.421L312.617 548.099C309.929 544.826 310.207 540.064 313.255 537.127C310.444 530.468 314.418 522.912 321.533 521.362L326.835 520.21C327.782 520.006 328.668 519.609 329.45 519.038L334.547 515.356C335.782 514.469 337.44 514.408 338.727 515.203C340.395 516.233 340.982 518.365 340.065 520.088L338.5 523.014C338.315 523.361 338.717 523.728 339.046 523.524L348.261 517.824C349.445 517.09 350.999 517.304 351.936 518.334C352.842 519.333 352.935 520.822 352.142 521.913L345.79 530.733C345.574 531.039 345.882 531.447 346.232 531.325L347.787 530.774C349.383 530.213 351.154 530.835 352.029 532.263C352.873 533.629 352.698 535.373 351.586 536.546C348.549 539.747 342.845 546.151 342.083 549.781C341.085 554.768 317.816 554.421 317.816 554.421Z" fill="#1D1A4D"/>
<path d="M342.866 544.551C342.691 545.53 342.527 547.008 342.527 549.16C342.527 550.577 342.805 552.923 342.836 555.482C342.856 557.266 342.763 559.173 342.372 560.968C341.466 565.128 338.964 568.656 332.663 568.656C319.752 568.656 318.445 556.002 318.445 556.002C318.445 556.002 318.095 559.041 315.202 557.613C313.039 556.542 312.298 551.658 314.749 550.496C316.19 549.813 317.724 550.74 318.754 551.617C319.186 551.984 319.845 551.638 319.793 551.077L319.279 545.112C322.8 546.172 335.433 542.614 340.406 537.76C340.488 539.065 341.404 540.554 342.177 541.594C342.784 542.45 343.052 543.511 342.866 544.551Z" fill="#F0D7C9"/>
<path d="M333.744 558.469L334.897 557.797C335.669 557.348 335.989 556.399 335.628 555.583L333.744 551.271" stroke="#C85E5E" stroke-width="0.486735" stroke-miterlimit="9" stroke-linecap="round"/>
<path d="M329.597 553.309C329.597 553.88 329.226 554.339 328.773 554.339C328.32 554.339 327.949 553.88 327.949 553.309C327.949 552.738 328.32 552.279 328.773 552.279C329.226 552.289 329.597 552.748 329.597 553.309Z" fill="#1D1A4D"/>
<path d="M339.47 552.727C339.47 553.298 339.099 553.757 338.646 553.757C338.193 553.757 337.822 553.298 337.822 552.727C337.822 552.156 338.193 551.697 338.646 551.697C339.099 551.707 339.47 552.166 339.47 552.727Z" fill="#1D1A4D"/>
<path d="M324.746 549.882C324.746 549.882 326.455 547.323 329.873 548.455" stroke="#1D1A4D" stroke-width="0.730195" stroke-miterlimit="10" stroke-linecap="round" stroke-linejoin="round"/>
<path d="M341.217 548.589C341.217 548.589 339.179 546.354 335.895 548.405" stroke="#1D1A4D" stroke-width="0.730195" stroke-miterlimit="10" stroke-linecap="round" stroke-linejoin="round"/>
<path d="M329.873 560.947L334.764 561.172C334.764 561.172 334.599 563.68 332.138 563.517C329.667 563.354 329.873 560.947 329.873 560.947Z" fill="white"/>
<path d="M314.5 552.879C315.952 551.992 317.259 553.114 316.981 555.276" stroke="#C85E5E" stroke-width="0.486735" stroke-miterlimit="9" stroke-linecap="round"/>
<path d="M329.141 558.153C329.141 559.744 327.844 561.028 326.237 561.028C324.631 561.028 323.334 559.744 323.334 558.153C323.334 556.562 324.631 555.277 326.237 555.277C327.844 555.277 329.141 556.562 329.141 558.153Z" fill="#EAB7C0"/>
<path d="M342.844 555.473C342.864 557.257 342.772 559.164 342.38 560.958C342.195 560.999 341.999 561.02 341.804 561.02C340.208 561.02 338.9 559.735 338.9 558.144C338.9 556.564 340.198 555.269 341.804 555.269C342.164 555.279 342.514 555.35 342.844 555.473Z" fill="#EAB7C0"/>
<path d="M316.778 634.691L308.572 638.801" stroke="#C85E5E" stroke-width="0.486735" stroke-miterlimit="9" stroke-linecap="round"/>
<path d="M363.168 621.904C361.377 625.463 351.482 626.84 351.482 626.84" stroke="#C85E5E" stroke-width="0.486735" stroke-miterlimit="9" stroke-linecap="round"/>
<path d="M360.337 629.836C356.332 634.078 349.701 633.048 349.701 633.048" stroke="#C85E5E" stroke-width="0.486735" stroke-miterlimit="9" stroke-linecap="round"/>
<path d="M315.118 625.647L311.689 601.021" stroke="#1D1A4D" stroke-width="0.486735" stroke-miterlimit="10" stroke-linecap="round" stroke-linejoin="round"/>
<path d="M357.331 645.226L332.312 666.109" stroke="#1D1A4D" stroke-width="0.486735" stroke-miterlimit="10" stroke-linecap="round" stroke-linejoin="round"/>
<path d="M310.772 836.722L287.421 833.735C285.835 833.531 284.713 832.093 284.919 830.522L285.392 826.852C285.598 825.281 287.05 824.17 288.636 824.374L311.987 827.361C313.572 827.565 314.694 829.003 314.489 830.573L314.015 834.244C313.809 835.815 312.357 836.926 310.772 836.722Z" fill="#3A65FD"/>
<path d="M288.172 824.363L312.439 827.463" stroke="#1D1A4D" stroke-width="0.486735" stroke-miterlimit="10" stroke-linecap="round" stroke-linejoin="round"/>
<path d="M406.967 831.89L384.367 838.426C382.833 838.864 381.227 837.997 380.774 836.478L379.724 832.919C379.271 831.4 380.156 829.809 381.691 829.361L404.29 822.824C405.824 822.376 407.43 823.253 407.883 824.772L408.933 828.331C409.376 829.86 408.501 831.451 406.967 831.89Z" fill="#3A65FD"/>
<path d="M381.268 829.535L404.752 822.754" stroke="#1D1A4D" stroke-width="0.486735" stroke-miterlimit="10" stroke-linecap="round" stroke-linejoin="round"/>
<path opacity="0.25" d="M363.366 597.729C364.735 596.73 366.465 596.75 367.227 597.77C367.989 598.79 367.505 600.441 366.136 601.441C364.766 602.44 363.036 602.42 362.275 601.4C361.513 600.37 361.997 598.728 363.366 597.729Z" fill="white"/>
<path opacity="0.25" d="M364.045 598.628C364.745 598.118 365.641 598.118 366.032 598.648C366.423 599.179 366.176 600.015 365.476 600.535C364.776 601.045 363.88 601.045 363.489 600.514C363.087 599.984 363.345 599.148 364.045 598.628Z" fill="white"/>
<path d="M344.822 693.832L338.295 723.78" stroke="#1D1A4D" stroke-width="0.486735" stroke-miterlimit="10" stroke-linecap="round" stroke-linejoin="round"/>
<path d="M432.746 612.023H432.066C432.303 611.961 432.53 611.972 432.746 612.023Z" fill="#2B42AE"/>
<path d="M432.064 612.021C432.054 612.021 432.034 612.021 432.023 612.032V612.021H432.064Z" fill="#2B42AE"/>
<path d="M483.404 801.646L481.746 848.633L486.719 857.107L498.734 852.466L501.905 805.876" fill="#F0D7C9"/>
<path d="M456.098 860.522L482.301 845.492L487.274 852.467H498.733L499.979 863H456.777C455.398 862.99 454.914 861.195 456.098 860.522Z" fill="#FCB966"/>
<path d="M563.535 801.646L578.628 848.633L573.666 857.107L561.651 852.466L545.033 805.876" fill="#F0D7C9"/>
<path d="M604.285 860.522L578.082 845.492L573.109 852.467H561.65L560.404 863H603.606C604.975 862.99 605.469 861.195 604.285 860.522Z" fill="#FCB966"/>
<path d="M484.886 647L478.678 824.355L503.254 826.14L512.644 715.238L549.647 829.535L571.464 822.744C571.464 822.744 541.915 702.104 538.599 684.871C535.284 667.639 536.942 658.614 531.691 646.582L484.886 647Z" fill="#292F69"/>
<path d="M504.529 527.899C497.446 525.982 492.061 536.241 493.719 548.956C495.376 561.672 484.329 573.847 485.575 579.037C486.821 584.237 511.397 591.477 527.829 591.345C544.261 591.212 549.368 584.095 546.33 579.037C543.293 573.979 538.464 569.054 538.876 553.81C539.288 538.565 528.591 510.116 504.529 527.899Z" fill="#1D1A4D"/>
<path d="M470.656 600.513L461.544 620.754L447.459 588.032C447.459 588.032 445.668 576.856 444.216 573.715C442.765 570.575 443.248 566.394 441.313 565.782C439.377 565.17 438.687 568.586 438.687 571.523C438.687 574.46 438.204 577.264 438.204 577.264C438.204 577.264 430.121 570.289 429.648 568.097C429.164 565.905 429.442 558.461 427.65 557.502C425.859 556.544 423.851 558.736 423.439 565.089C423.028 571.452 435.938 589.98 435.938 589.98L445.4 635.376L471.912 640.159L487.654 614.585L470.656 600.513Z" fill="#F0D7C9"/>
<path d="M551.849 606.475L542.088 613.491L541.172 614.143L533.893 619.384L532.791 647.966L528.343 647.885L527.427 647.864L514.598 647.609L513.682 647.599L500.853 647.344L499.937 647.324L487.108 647.069L486.192 647.049L484.885 647.028C484.885 647.028 485.441 640.043 483.371 629.857C481.291 619.67 484.195 612.665 484.195 612.665L470.666 600.53L477.595 589.864C479.716 586.601 482.702 583.981 486.192 582.308C486.491 582.155 486.8 582.023 487.108 581.89C488.117 581.452 489.168 581.095 490.238 580.83L499.937 578.362L500.462 578.219L500.853 578.128L504.138 577.281L513.682 577.312H514.598L524.997 577.342L527.427 578.607L528.343 579.086L528.364 579.096L537.105 583.624C538.577 584.389 539.936 585.306 541.172 586.377C541.481 586.632 541.8 586.917 542.088 587.203C544.219 589.252 545.918 591.74 547.03 594.534L551.849 606.475Z" fill="#3A65FD"/>
<path opacity="0.25" d="M487.112 581.875V647.054L486.195 647.033V582.293C486.494 582.14 486.803 581.997 487.112 581.875Z" fill="white"/>
<path opacity="0.25" d="M500.854 578.109V647.326L499.938 647.306V578.344L500.462 578.201L500.854 578.109Z" fill="white"/>
<path opacity="0.25" d="M514.602 577.295V647.603L513.686 647.582V577.295H514.602Z" fill="white"/>
<path opacity="0.25" d="M528.356 579.079V647.878L527.43 647.858V578.59L528.356 579.079Z" fill="white"/>
<path opacity="0.25" d="M542.102 587.197V613.495L541.186 614.147V586.371C541.494 586.626 541.803 586.901 542.102 587.197Z" fill="white"/>
<path d="M528.373 579.087C525.521 584.848 518.005 588.214 508.78 587.612C501.038 587.102 500.08 581.983 500.472 578.211L504.147 577.271L524.996 577.333L528.373 579.087Z" fill="white"/>
<path d="M524.999 577.325C524.999 577.325 521.189 584.84 511.46 584.84C501.73 584.84 504.15 577.253 504.15 577.253L506.909 576.366L506.744 571.665L506.497 564.813L523.063 559.816C522.713 560.5 522.466 561.489 522.301 562.621C521.529 567.801 522.363 576.366 522.363 576.366L524.999 577.325Z" fill="#F0D7C9"/>
<path d="M523.063 559.828C522.713 560.511 522.465 561.5 522.301 562.632C522.301 562.642 522.29 562.642 522.29 562.653C517.637 571.922 509.812 572.024 506.733 571.677L506.486 564.825L523.063 559.828Z" fill="#D68D83"/>
<path d="M504.86 535.15C506.384 543.226 523.814 548.804 525.05 549.732C525.771 550.272 526.007 551.557 526.079 552.526C526.09 552.73 526.378 552.771 526.45 552.577C526.893 551.384 527.768 549.681 529.251 549.508C531.557 549.232 533.781 552.118 532.463 555.575C531.145 559.032 525.884 557.196 525.884 557.196C525.884 557.196 521.59 567.546 511.727 567.832C501.864 568.117 499.681 559.837 500.433 554.749C501.184 549.661 501.102 547.132 500.669 544.144C500.247 541.146 504.036 539.035 504.86 535.15Z" fill="#F0D7C9"/>
<path d="M530.032 551.496C529.208 551.731 528.282 553.974 528.652 555.014" stroke="#C85E5E" stroke-width="0.486735" stroke-miterlimit="9" stroke-linecap="round"/>
<path d="M510.257 557.935L509.103 557.262C508.331 556.814 508.012 555.865 508.372 555.05L510.257 550.736" stroke="#C85E5E" stroke-width="0.486735" stroke-miterlimit="9" stroke-linecap="round"/>
<path d="M514.404 552.776C514.404 553.347 514.775 553.806 515.228 553.806C515.681 553.806 516.052 553.347 516.052 552.776C516.052 552.205 515.681 551.746 515.228 551.746C514.775 551.756 514.404 552.215 514.404 552.776Z" fill="#1D1A4D"/>
<path d="M504.531 552.194C504.531 552.765 504.902 553.224 505.355 553.224C505.808 553.224 506.179 552.765 506.179 552.194C506.179 551.623 505.808 551.164 505.355 551.164C504.902 551.174 504.531 551.633 504.531 552.194Z" fill="#1D1A4D"/>
<path d="M518.709 547.241C518.709 547.241 516.63 544.965 513.428 546.587" stroke="#1D1A4D" stroke-width="0.730195" stroke-miterlimit="10" stroke-linecap="round" stroke-linejoin="round"/>
<path d="M502.688 547.15C502.688 547.15 504.726 544.915 508.01 546.966" stroke="#1D1A4D" stroke-width="0.730195" stroke-miterlimit="10" stroke-linecap="round" stroke-linejoin="round"/>
<path d="M508.092 552.464C508.092 554.768 506.208 556.634 503.881 556.634C501.554 556.634 499.67 554.768 499.67 552.464C499.67 550.159 501.554 548.293 503.881 548.293C506.208 548.293 508.092 550.159 508.092 552.464Z" stroke="#3A65FD" stroke-width="0.730195" stroke-miterlimit="10"/>
<path d="M519.789 552.464C519.789 554.768 517.905 556.634 515.578 556.634C513.251 556.634 511.367 554.768 511.367 552.464C511.367 550.159 513.251 548.293 515.578 548.293C517.895 548.293 519.789 550.159 519.789 552.464Z" stroke="#3A65FD" stroke-width="0.730195" stroke-miterlimit="10"/>
<path d="M507.979 551.497C507.979 551.497 509.76 549.793 511.479 551.497" stroke="#3A65FD" stroke-width="0.730195" stroke-miterlimit="10"/>
<path d="M511.469 561.672C511.469 561.672 514.156 562.764 516.359 560.896" stroke="#C85E5E" stroke-width="0.486735" stroke-miterlimit="9" stroke-linecap="round"/>
<path d="M481.622 646.591H440.716C440.037 646.612 439.419 646.204 439.224 645.521L430.451 613.992C430.235 613.197 430.699 612.381 431.502 612.167L432.006 612.024H432.016C432.027 612.014 432.047 612.014 432.058 612.014H472.973L481.622 646.591Z" fill="#A7B4E7"/>
<path d="M457.25 630.857C457.25 632.591 455.83 633.998 454.079 633.998C452.329 633.998 450.908 632.591 450.908 630.857C450.908 629.124 452.329 627.717 454.079 627.717C455.83 627.717 457.25 629.124 457.25 630.857Z" fill="#E6E9FC"/>
<path d="M481.633 646.592H514.096C514.92 646.592 515.578 645.93 515.578 645.124V644.584C515.578 643.768 514.909 643.115 514.096 643.115H481.633C480.809 643.115 480.151 643.778 480.151 644.584V645.124C480.14 645.93 480.809 646.592 481.633 646.592Z" fill="#6578B6"/>
<path d="M471.418 613.983L480.046 644.981C480.262 645.766 481.086 646.225 481.869 646.011L482.404 645.868C483.197 645.654 483.66 644.839 483.444 644.064L474.816 613.065C474.6 612.28 473.776 611.821 472.994 612.035L472.458 612.178C471.665 612.392 471.202 613.197 471.418 613.983Z" fill="#6578B6"/>
<path d="M566.602 655.614C566.602 659.57 564.852 663.394 561.671 665.994C556.996 669.808 550.345 670.083 545.362 666.688L522.619 651.189C522.619 651.189 510.243 653.881 504.673 653.371C499.103 652.871 493.162 649.955 493.121 648.823C493.07 647.681 515.535 645.356 514.475 644.438C513.414 643.531 503.386 643.439 503.252 641.298C503.118 639.156 505.641 638.422 509.831 638.147C514.032 637.871 519.355 639.972 519.355 639.972L542.119 643.102L535.653 624.422L533.903 619.374L551.859 606.465L553.022 610.217L566.005 651.647C566.407 652.963 566.602 654.299 566.602 655.614Z" fill="#F0D7C9"/>
<path d="M551.848 606.478L553.022 610.22L535.653 624.424L533.893 619.387L551.848 606.478Z" fill="#D68D83"/>
<path d="M542.109 643.105L551.849 644.401" stroke="#C85E5E" stroke-width="0.486735" stroke-miterlimit="9" stroke-linecap="round"/>
<path d="M488.18 644.847C488.18 645.143 487.943 645.378 487.645 645.378C487.346 645.378 487.109 645.143 487.109 644.847C487.109 644.551 487.346 644.316 487.645 644.316C487.943 644.316 488.18 644.551 488.18 644.847Z" fill="#1D1A4D"/>
<path d="M490.352 644.847C490.352 645.143 490.115 645.378 489.817 645.378C489.518 645.378 489.281 645.143 489.281 644.847C489.281 644.551 489.518 644.316 489.817 644.316C490.115 644.316 490.352 644.551 490.352 644.847Z" fill="#1D1A4D"/>
<path d="M502.5 832.58L478.964 831.795C477.368 831.744 476.112 830.419 476.174 828.838L476.298 825.137C476.349 823.556 477.688 822.312 479.283 822.373L502.82 823.158C504.416 823.209 505.672 824.535 505.61 826.116L505.486 829.817C505.435 831.398 504.096 832.631 502.5 832.58Z" fill="#A7B4E7"/>
<path d="M573.245 827.32L550.687 834.009C549.153 834.468 547.547 833.601 547.083 832.082L546.013 828.533C545.549 827.014 546.425 825.423 547.959 824.964L570.517 818.275C572.051 817.816 573.657 818.683 574.12 820.202L575.191 823.751C575.644 825.26 574.769 826.861 573.245 827.32Z" fill="#A7B4E7"/>
<path d="M505.547 692.078L516.944 728.552" stroke="#1D1A4D" stroke-width="0.486735" stroke-miterlimit="10" stroke-linecap="round" stroke-linejoin="round"/>
<path d="M487.109 629.021C493.163 634.558 503.881 635.384 503.881 635.384" stroke="#1D1A4D" stroke-width="0.486735" stroke-miterlimit="10" stroke-linecap="round" stroke-linejoin="round"/>
<path d="M533.894 619.387L526.162 606.478" stroke="#1D1A4D" stroke-width="0.486735" stroke-miterlimit="10" stroke-linecap="round" stroke-linejoin="round"/>
<path d="M484.195 612.647C487.511 606.121 488.18 597.637 488.18 597.637" stroke="#1D1A4D" stroke-width="0.486735" stroke-miterlimit="10" stroke-linecap="round" stroke-linejoin="round"/>
<path d="M84.7266 862.988H625.422" stroke="#A3A9C0" stroke-width="1.94712" stroke-miterlimit="10" stroke-linecap="round" stroke-linejoin="round"/>
<g filter="url(#filter4_d_3680_32013)">
<path d="M468.425 514.642C470.635 514.642 472.425 516.432 472.425 518.642V548.098C472.425 551.651 468.138 553.441 465.612 550.941L462.67 548.031C461.922 547.29 460.911 546.874 459.857 546.874H423.639C421.43 546.874 419.639 545.083 419.639 542.874V518.642C419.639 516.432 421.43 514.642 423.639 514.642H468.425Z" fill="white"/>
</g>
<path d="M433.869 523.369H458.188" stroke="#3A65FD" stroke-width="0.926761" stroke-miterlimit="10" stroke-linecap="round" stroke-linejoin="round"/>
<path opacity="0.25" d="M437.895 528.314H458.188" stroke="#3A65FD" stroke-width="0.926761" stroke-miterlimit="10" stroke-linecap="round" stroke-linejoin="round"/>
<path opacity="0.25" d="M433.869 533.26H458.188" stroke="#3A65FD" stroke-width="0.926761" stroke-miterlimit="10" stroke-linecap="round" stroke-linejoin="round"/>
<path opacity="0.25" d="M441.137 538.205H458.187" stroke="#3A65FD" stroke-width="0.926761" stroke-miterlimit="10" stroke-linecap="round" stroke-linejoin="round"/>
<g filter="url(#filter5_d_3680_32013)">
<path d="M232.332 539.652C230.123 539.652 228.332 541.443 228.332 543.652V573.109C228.332 576.662 232.62 578.451 235.145 575.952L238.087 573.041C238.836 572.3 239.847 571.885 240.9 571.885H277.119C279.328 571.885 281.119 570.094 281.119 567.885V543.652C281.119 541.443 279.328 539.652 277.119 539.652H232.332Z" fill="white"/>
</g>
<path d="M266.879 548.371H242.57" stroke="#FCB966" stroke-width="0.926761" stroke-miterlimit="10" stroke-linecap="round" stroke-linejoin="round"/>
<path opacity="0.25" d="M262.853 553.328H242.57" stroke="#3A65FD" stroke-width="0.926761" stroke-miterlimit="10" stroke-linecap="round" stroke-linejoin="round"/>
<path opacity="0.25" d="M266.879 558.271H242.57" stroke="#3A65FD" stroke-width="0.926761" stroke-miterlimit="10" stroke-linecap="round" stroke-linejoin="round"/>
<path opacity="0.25" d="M259.62 563.219H242.57" stroke="#3A65FD" stroke-width="0.926761" stroke-miterlimit="10" stroke-linecap="round" stroke-linejoin="round"/>
<mask id="mask2_3680_32013" style="mask-type:luminance" maskUnits="userSpaceOnUse" x="204" y="232" width="302" height="56">
<path d="M506 232H204V288H506V232Z" fill="white"/>
</mask>
<g mask="url(#mask2_3680_32013)">
<path d="M221.647 286.001L204.943 235.601H214.663L229.567 281.177H224.743L240.223 235.601H248.863L263.911 281.177H259.231L274.495 235.601H283.423L266.719 286.001H256.783L243.031 244.889H245.623L231.655 286.001H221.647Z" fill="#1D1A4D"/>
<path d="M385.305 286.506C381.081 286.506 377.817 285.426 375.513 283.266C373.209 281.058 372.057 277.818 372.057 273.546V239.058H381.057V273.33C381.057 275.154 381.513 276.57 382.425 277.578C383.385 278.586 384.705 279.09 386.385 279.09C388.401 279.09 390.081 278.562 391.425 277.506L393.945 283.914C392.889 284.778 391.593 285.426 390.057 285.858C388.521 286.29 386.937 286.506 385.305 286.506ZM365.721 255.042V247.842H391.353V255.042H365.721Z" fill="#1D1A4D"/>
<path d="M425.037 286.001V278.225L424.533 276.569V262.961C424.533 260.321 423.741 258.281 422.157 256.841C420.573 255.353 418.173 254.609 414.957 254.609C412.797 254.609 410.661 254.945 408.549 255.617C406.485 256.289 404.733 257.225 403.293 258.425L399.765 251.873C401.829 250.289 404.277 249.113 407.109 248.345C409.989 247.529 412.965 247.121 416.037 247.121C421.605 247.121 425.901 248.465 428.925 251.153C431.997 253.793 433.533 257.897 433.533 263.465V286.001H425.037ZM412.941 286.505C410.061 286.505 407.541 286.025 405.381 285.065C403.221 284.057 401.541 282.689 400.341 280.961C399.189 279.185 398.613 277.193 398.613 274.985C398.613 272.825 399.117 270.881 400.125 269.153C401.181 267.425 402.885 266.057 405.237 265.049C407.589 264.041 410.709 263.537 414.597 263.537H425.757V269.513H415.245C412.173 269.513 410.109 270.017 409.053 271.025C407.997 271.985 407.469 273.185 407.469 274.625C407.469 276.257 408.117 277.553 409.413 278.513C410.709 279.473 412.509 279.953 414.813 279.953C417.021 279.953 418.989 279.449 420.717 278.441C422.493 277.433 423.765 275.945 424.533 273.977L426.045 279.377C425.181 281.633 423.621 283.385 421.365 284.633C419.157 285.881 416.349 286.505 412.941 286.505Z" fill="#1D1A4D"/>
<path d="M445.082 286V232.576H454.082V286H445.082Z" fill="#1D1A4D"/>
<path d="M473.24 277.432L473.456 266.128L493.544 247.552H504.344L487.28 264.688L482.529 268.648L473.24 277.432ZM465.896 286V232.576H474.896V286H465.896ZM494.912 286L480.872 268.648L486.56 261.448L505.856 286H494.912Z" fill="#1D1A4D"/>
<path d="M285.24 278.171C291.226 279.49 297.212 279.29 302.18 277.336M302.18 277.336C309.261 274.552 314.275 268.206 314.275 257.62C314.275 253.209 311.856 246.328 306.21 246.328C303.051 246.328 298.728 248.928 297.338 256.813C295.74 265.886 298.482 273.244 302.18 277.336ZM302.18 277.336C303.164 278.425 304.215 279.283 305.271 279.88C314.275 284.975 321.831 283.915 327.18 283.429C330.352 283.14 336.012 281.056 340.592 277.312M340.592 277.312C343.735 274.741 346.37 271.389 347.343 267.298C349.07 260.039 347.52 246.332 340.084 246.329C332.826 246.326 329.741 258.816 332.826 267.298C334.363 271.524 336.632 274.917 340.592 277.312ZM340.592 277.312C344.945 279.944 351.341 281.37 361.054 281.37" stroke="#1F40DA" stroke-width="8" stroke-linecap="square"/>
</g>
</g>
</g>
<defs>
<filter id="filter0_d_3680_32013" x="257.722" y="409.273" width="110.93" height="96.0861" filterUnits="userSpaceOnUse" color-interpolation-filters="sRGB">
<feFlood flood-opacity="0" result="BackgroundImageFix"/>
<feColorMatrix in="SourceAlpha" type="matrix" values="0 0 0 0 0 0 0 0 0 0 0 0 0 0 0 0 0 0 127 0" result="hardAlpha"/>
<feOffset dy="2.43185"/>
<feGaussianBlur stdDeviation="6.07963"/>
<feComposite in2="hardAlpha" operator="out"/>
<feColorMatrix type="matrix" values="0 0 0 0 0 0 0 0 0 0 0 0 0 0 0 0 0 0 0.2 0"/>
<feBlend mode="normal" in2="BackgroundImageFix" result="effect1_dropShadow_3680_32013"/>
<feBlend mode="normal" in="SourceGraphic" in2="effect1_dropShadow_3680_32013" result="shape"/>
</filter>
<filter id="filter1_d_3680_32013" x="7.84074" y="661.799" width="159.055" height="215.625" filterUnits="userSpaceOnUse" color-interpolation-filters="sRGB">
<feFlood flood-opacity="0" result="BackgroundImageFix"/>
<feColorMatrix in="SourceAlpha" type="matrix" values="0 0 0 0 0 0 0 0 0 0 0 0 0 0 0 0 0 0 127 0" result="hardAlpha"/>
<feOffset dy="2.43185"/>
<feGaussianBlur stdDeviation="6.07963"/>
<feComposite in2="hardAlpha" operator="out"/>
<feColorMatrix type="matrix" values="0 0 0 0 0 0 0 0 0 0 0 0 0 0 0 0 0 0 0.1 0"/>
<feBlend mode="normal" in2="BackgroundImageFix" result="effect1_dropShadow_3680_32013"/>
<feBlend mode="normal" in="SourceGraphic" in2="effect1_dropShadow_3680_32013" result="shape"/>
</filter>
<filter id="filter2_d_3680_32013" x="522.425" y="631.792" width="178.967" height="245.629" filterUnits="userSpaceOnUse" color-interpolation-filters="sRGB">
<feFlood flood-opacity="0" result="BackgroundImageFix"/>
<feColorMatrix in="SourceAlpha" type="matrix" values="0 0 0 0 0 0 0 0 0 0 0 0 0 0 0 0 0 0 127 0" result="hardAlpha"/>
<feOffset dy="2.43185"/>
<feGaussianBlur stdDeviation="6.07963"/>
<feComposite in2="hardAlpha" operator="out"/>
<feColorMatrix type="matrix" values="0 0 0 0 0 0 0 0 0 0 0 0 0 0 0 0 0 0 0.1 0"/>
<feBlend mode="normal" in2="BackgroundImageFix" result="effect1_dropShadow_3680_32013"/>
<feBlend mode="normal" in="SourceGraphic" in2="effect1_dropShadow_3680_32013" result="shape"/>
</filter>
<filter id="filter3_d_3680_32013" x="175.622" y="572.531" width="219.553" height="305.015" filterUnits="userSpaceOnUse" color-interpolation-filters="sRGB">
<feFlood flood-opacity="0" result="BackgroundImageFix"/>
<feColorMatrix in="SourceAlpha" type="matrix" values="0 0 0 0 0 0 0 0 0 0 0 0 0 0 0 0 0 0 127 0" result="hardAlpha"/>
<feOffset dy="2.43185"/>
<feGaussianBlur stdDeviation="6.07963"/>
<feComposite in2="hardAlpha" operator="out"/>
<feColorMatrix type="matrix" values="0 0 0 0 0 0 0 0 0 0 0 0 0 0 0 0 0 0 0.1 0"/>
<feBlend mode="normal" in2="BackgroundImageFix" result="effect1_dropShadow_3680_32013"/>
<feBlend mode="normal" in="SourceGraphic" in2="effect1_dropShadow_3680_32013" result="shape"/>
</filter>
<filter id="filter4_d_3680_32013" x="407.479" y="504.914" width="77.1037" height="61.7824" filterUnits="userSpaceOnUse" color-interpolation-filters="sRGB">
<feFlood flood-opacity="0" result="BackgroundImageFix"/>
<feColorMatrix in="SourceAlpha" type="matrix" values="0 0 0 0 0 0 0 0 0 0 0 0 0 0 0 0 0 0 127 0" result="hardAlpha"/>
<feOffset dy="2.43185"/>
<feGaussianBlur stdDeviation="6.07963"/>
<feComposite in2="hardAlpha" operator="out"/>
<feColorMatrix type="matrix" values="0 0 0 0 0 0 0 0 0 0 0 0 0 0 0 0 0 0 0.2 0"/>
<feBlend mode="normal" in2="BackgroundImageFix" result="effect1_dropShadow_3680_32013"/>
<feBlend mode="normal" in="SourceGraphic" in2="effect1_dropShadow_3680_32013" result="shape"/>
</filter>
<filter id="filter5_d_3680_32013" x="216.173" y="529.925" width="77.1056" height="61.7834" filterUnits="userSpaceOnUse" color-interpolation-filters="sRGB">
<feFlood flood-opacity="0" result="BackgroundImageFix"/>
<feColorMatrix in="SourceAlpha" type="matrix" values="0 0 0 0 0 0 0 0 0 0 0 0 0 0 0 0 0 0 127 0" result="hardAlpha"/>
<feOffset dy="2.43185"/>
<feGaussianBlur stdDeviation="6.07963"/>
<feComposite in2="hardAlpha" operator="out"/>
<feColorMatrix type="matrix" values="0 0 0 0 0 0 0 0 0 0 0 0 0 0 0 0 0 0 0.2 0"/>
<feBlend mode="normal" in2="BackgroundImageFix" result="effect1_dropShadow_3680_32013"/>
<feBlend mode="normal" in="SourceGraphic" in2="effect1_dropShadow_3680_32013" result="shape"/>
</filter>
<clipPath id="clip0_3680_32013">
<rect width="710" height="1024" fill="white"/>
</clipPath>
</defs>
</svg>
