<svg width="20" height="20" viewBox="0 0 20 20" fill="none" xmlns="http://www.w3.org/2000/svg">
<path d="M18.7597 8.10656L17.1556 7.75063C17.0306 7.35063 16.8669 6.96781 16.679 6.59971L17.5468 5.15377C17.8709 4.63596 18.0346 3.87408 17.5468 3.38596L16.6625 2.50221C16.1746 2.01408 15.3509 2.10189 14.8534 2.44689L13.4465 3.34312C13.0815 3.15375 12.7 2.99156 12.3034 2.86344L11.9434 1.24C11.8359 0.644707 11.3153 0 10.625 0H9.37498C8.68467 0 8.26154 0.654375 8.12498 1.25L7.72404 2.85406C7.30061 2.98906 6.89404 3.16156 6.50654 3.36594L5.06436 2.4475C4.56717 2.1025 3.74311 2.01469 3.25529 2.50281L2.37123 3.38656C1.88311 3.875 2.04686 4.63656 2.37123 5.15438L3.28436 6.67625C3.11312 7.02125 2.96123 7.37812 2.84404 7.75094L1.24029 8.10687C0.644668 8.21406 0 8.73469 0 9.425V10.675C0 11.3653 0.654375 11.7884 1.25 11.925L2.87406 12.3309C2.98627 12.6753 3.12656 13.0059 3.28531 13.3266L2.37125 14.85C2.04721 15.3675 1.88346 16.1294 2.37125 16.6175L3.25563 17.5013C3.74344 17.9897 4.56719 17.9016 5.06469 17.5569L6.51 16.6359C6.89969 16.8415 7.30844 17.0156 7.73469 17.1503L8.13467 18.75C8.27154 19.3456 8.69436 20 9.38467 20H10.6347C11.325 20 11.8456 19.3553 11.9531 18.7597L12.3137 17.1319C12.7062 17.005 13.0828 16.845 13.4434 16.6581L14.8534 17.5566C15.3509 17.9016 16.175 17.9894 16.6625 17.5009L17.5469 16.6172C18.0347 16.1287 17.8709 15.3672 17.5469 14.8497L16.6785 13.4019C16.8531 13.0588 17.0044 12.7019 17.126 12.3306L18.75 11.925C19.3456 11.7881 20 11.3653 20 10.675V9.425C20 8.73469 19.3556 8.21406 18.7597 8.10656ZM18.7506 10.5869C18.6975 10.625 18.5974 10.6774 18.4706 10.7068L16.1531 11.2855L15.9381 11.9424C15.8409 12.2383 15.7153 12.5387 15.5646 12.8352L15.2509 13.4518L16.4753 15.4933C16.5534 15.6183 16.59 15.7302 16.6009 15.7961L15.7787 16.6171C15.6993 16.5921 15.609 16.5596 15.5656 16.5299L13.5081 15.2177L12.8684 15.5487C12.5603 15.7087 12.244 15.8412 11.929 15.943L11.2478 16.1634L10.7328 18.4899C10.709 18.6143 10.6424 18.7146 10.5968 18.7505H9.47182C9.43371 18.6974 9.38152 18.5974 9.35244 18.4709L8.77715 16.1699L8.11123 15.9587C7.76809 15.8505 7.42592 15.7065 7.09279 15.5308L6.44998 15.1915L4.39217 16.503C4.30811 16.5599 4.21811 16.5921 4.13654 16.5921L3.31686 15.7943C3.32779 15.7296 3.36186 15.6228 3.42998 15.5137L4.70842 13.3837L4.40436 12.7715C4.26248 12.4828 4.14998 12.2118 4.06248 11.9434L3.84779 11.2859L1.55309 10.7121C1.40871 10.6793 1.30434 10.6255 1.24996 10.5871V9.42492C1.25059 9.42523 1.25152 9.42555 1.25279 9.42555C1.27373 9.42555 1.37654 9.3524 1.46217 9.3368L3.81998 8.81459L4.03652 8.12553C4.12465 7.8449 4.24496 7.5524 4.40402 7.23148L4.70809 6.61898L3.44311 4.51117C3.36467 4.38555 3.32842 4.27367 3.31748 4.20805L4.13936 3.38646C4.21904 3.41209 4.30873 3.44428 4.35186 3.47396L6.44779 4.8099L7.08998 4.47115C7.41967 4.29742 7.76061 4.15398 8.10373 4.04492L8.76811 3.83336L9.33809 1.55275C9.37123 1.4084 9.42434 1.30402 9.46309 1.24963H10.625C10.6165 1.26246 10.6969 1.3715 10.7134 1.46184L11.2384 3.83309L11.919 4.05309C12.2381 4.15621 12.5587 4.29059 12.8706 4.45246L13.5103 4.78465L15.525 3.50121C15.6094 3.44369 15.6997 3.41184 15.7806 3.41184L16.6009 4.20902C16.59 4.27402 16.5556 4.38121 16.4875 4.49059L15.2503 6.5509L15.5659 7.1684C15.7362 7.50152 15.8662 7.81402 15.9628 8.12402L16.1787 8.81434L18.4891 9.32715C18.6288 9.35309 18.7375 9.43371 18.7606 9.47746L18.7506 10.5869ZM10.0084 6.24363C7.93277 6.24363 6.24402 7.92895 6.24402 9.99988C6.24402 12.0705 7.93277 13.7558 10.0084 13.7558C12.084 13.7558 13.7728 12.0705 13.7728 9.99988C13.7728 7.92895 12.084 6.24363 10.0084 6.24363ZM9.99996 12.4999C8.62152 12.4999 7.49996 11.3783 7.49996 9.99988C7.49996 8.62113 8.62152 7.49988 9.99996 7.49988C11.3787 7.49988 12.5 8.62113 12.5 9.99988C12.5 11.3783 11.3784 12.4999 9.99996 12.4999Z" fill="#3A65FD"/>
</svg>
