<svg width="82" height="82" viewBox="0 0 82 82" fill="none" xmlns="http://www.w3.org/2000/svg">
<path d="M72.531 67.1516C76.7398 62.0919 79.6671 56.0937 81.0652 49.6646C82.4632 43.2354 82.291 36.5644 80.563 30.2158C78.8351 23.8672 75.6022 18.0278 71.1379 13.1916C66.6737 8.35545 61.1093 4.66475 54.9156 2.43175C48.7219 0.198745 42.081 -0.510876 35.5547 0.362917C29.0285 1.23671 22.8088 3.66821 17.422 7.45173C12.0351 11.2352 7.6395 16.2595 4.60698 22.0994C1.57446 27.9393 -0.0057517 34.4231 1.57308e-05 41.0023C0.00222889 50.5665 3.37539 59.8245 9.52761 67.1516L9.46899 67.2014C9.67414 67.4474 9.90859 67.6582 10.1196 67.9013C10.3834 68.2029 10.6676 68.4869 10.9402 68.7797C11.7608 69.6699 12.6048 70.525 13.4899 71.3273C13.7595 71.5733 14.0379 71.8017 14.3104 72.036C15.2483 72.8442 16.2125 73.6114 17.2118 74.3259C17.3408 74.4137 17.458 74.5279 17.5869 74.6187V74.5835C24.4509 79.4098 32.6391 82 41.0322 82C49.4254 82 57.6136 79.4098 64.4776 74.5835V74.6187C64.6065 74.5279 64.7208 74.4137 64.8527 74.3259C65.8491 73.6084 66.8162 72.8442 67.7541 72.036C68.0266 71.8017 68.305 71.5704 68.5746 71.3273C69.4597 70.522 70.3037 69.6699 71.1243 68.7797C71.3969 68.4869 71.6782 68.2029 71.9449 67.9013C72.153 67.6582 72.3904 67.4474 72.5955 67.1985L72.531 67.1516ZM41.0293 17.5762C43.6377 17.5762 46.1874 18.349 48.3562 19.7969C50.5249 21.2448 52.2153 23.3028 53.2134 25.7107C54.2116 28.1185 54.4728 30.768 53.9639 33.3241C53.455 35.8802 52.199 38.2281 50.3546 40.071C48.5103 41.9139 46.1604 43.1689 43.6022 43.6773C41.044 44.1858 38.3923 43.9248 35.9825 42.9275C33.5727 41.9301 31.513 40.2412 30.0639 38.0742C28.6148 35.9072 27.8413 33.3595 27.8413 30.7533C27.8413 27.2585 29.2308 23.9069 31.704 21.4357C34.1772 18.9645 37.5316 17.5762 41.0293 17.5762ZM17.6045 67.1516C17.6554 63.3067 19.2192 59.6364 21.9576 56.9347C24.696 54.2331 28.3889 52.7173 32.2373 52.7153H49.8213C53.6697 52.7173 57.3626 54.2331 60.101 56.9347C62.8395 59.6364 64.4033 63.3067 64.4541 67.1516C58.0267 72.9388 49.6814 76.1416 41.0293 76.1416C32.3772 76.1416 24.0319 72.9388 17.6045 67.1516Z" fill="#3A65FD"/>
</svg>
