<svg width="24" height="24" viewBox="0 0 24 24" fill="none" xmlns="http://www.w3.org/2000/svg">
<path d="M2.5 8.625C2.5 11.2908 4.04294 14.11 7.26567 17.0095C8.72406 18.3206 10.3118 19.4802 12.0045 20.4704C12.0416 20.4899 12.083 20.5001 12.125 20.5001C12.1683 20.5001 12.2108 20.4893 12.2488 20.4686C12.4488 20.3568 14.8424 18.9956 17.1828 16.8411C19.5519 14.6603 21.75 11.7732 21.75 8.625C21.75 7.54935 21.4116 6.50097 20.7826 5.62836C20.1537 4.75575 19.2661 4.10315 18.2457 3.763C17.2252 3.42285 16.1236 3.41239 15.0969 3.73312C14.0702 4.05384 13.1704 4.68948 12.525 5.55L12.125 6.08333L11.725 5.55C11.0796 4.68948 10.1798 4.05384 9.15311 3.73312C8.12639 3.41239 7.02478 3.42285 6.00433 3.763C4.98388 4.10315 4.09633 4.75575 3.46738 5.62836C2.83844 6.50097 2.5 7.54935 2.5 8.625Z" fill="white" stroke="#FF5964"/>
</svg>
